<svg width="17" height="22" viewBox="0 0 17 22" fill="none" xmlns="http://www.w3.org/2000/svg">
<path d="M15.1212 8.36467L8.86287 18.0127C8.28554 18.9027 7.37831 19.5269 6.34074 19.748C5.30317 19.9691 4.22027 19.769 3.33025 19.1917C2.44023 18.6144 1.816 17.7071 1.59489 16.6696C1.37378 15.632 1.5739 14.5491 2.15122 13.6591L8.95371 3.17212C9.31453 2.61586 9.88156 2.22572 10.53 2.08752C11.1785 1.94933 11.8553 2.0744 12.4116 2.43523C12.9679 2.79606 13.358 3.36308 13.4962 4.01156C13.6344 4.66004 13.5093 5.33686 13.1485 5.89312L7.4344 14.7022C7.29007 14.9247 7.06326 15.0807 6.80386 15.136C6.54447 15.1913 6.27375 15.1412 6.05124 14.9969C5.82874 14.8526 5.67268 14.6258 5.6174 14.3664C5.56212 14.107 5.61215 13.8363 5.75648 13.6138L10.9264 5.64368L9.66794 4.82738L4.49805 12.7975C4.13722 13.3537 4.01215 14.0305 4.15034 14.679C4.28854 15.3275 4.67868 15.8945 5.23494 16.2553C5.79121 16.6162 6.46802 16.7412 7.1165 16.6031C7.76498 16.4649 8.332 16.0747 8.69283 15.5185L14.4069 6.70942C14.9842 5.8194 15.1844 4.73649 14.9633 3.69892C14.7421 2.66136 14.1179 1.75412 13.2279 1.1768C12.3379 0.599474 11.255 0.399356 10.2174 0.620467C9.17983 0.841578 8.2726 1.4658 7.69527 2.35582L0.892784 12.8428C0.0989658 14.0666 -0.176196 15.5556 0.12783 16.9822C0.431857 18.4089 1.29017 19.6563 2.51395 20.4501C3.73772 21.2439 5.22672 21.5191 6.65338 21.2151C8.08003 20.9111 9.32748 20.0527 10.1213 18.829L16.3796 9.18097L15.1212 8.36467Z" fill="black"/>
</svg>
