<svg width="16" height="16" viewBox="0 0 16 16" fill="none" xmlns="http://www.w3.org/2000/svg">
<path d="M1.38548 0.214684C0.75679 0.318954 0.207836 0.831106 0.0452971 1.4598C-0.000704562 1.63154 -0.00377134 2.26329 0.00236221 7.9307L0.0115625 14.2115L0.0912988 14.4139C0.266105 14.8616 0.624918 15.2235 1.07573 15.4075L1.29961 15.4995L5.22509 15.5056C7.46997 15.5087 9.12296 15.4995 9.08923 15.4842C9.05549 15.4688 8.92362 15.4198 8.79788 15.3738C7.32889 14.8463 6.12978 13.4816 5.80777 11.9727C5.78017 11.8378 5.7495 11.7028 5.74337 11.6752C5.72804 11.6292 5.63603 11.6231 4.74973 11.6139L3.7745 11.6047L3.64263 11.5127C3.57209 11.4606 3.48929 11.3716 3.45862 11.3134C3.32982 11.0772 3.42489 10.7491 3.66103 10.6172C3.78063 10.5497 3.80517 10.5467 4.7436 10.5467C5.28949 10.5467 5.70044 10.5344 5.70044 10.5191C5.70044 10.3749 5.84457 9.72169 5.93044 9.47022C5.99178 9.29541 6.05005 9.12674 6.05925 9.09607C6.07458 9.047 6.01018 9.04394 5.00734 9.04394C3.9033 9.04394 3.77143 9.03167 3.60583 8.91513C3.38809 8.76179 3.33595 8.39071 3.50156 8.17604C3.67023 7.95216 3.64263 7.95523 5.28335 7.94603L6.75541 7.93683L7.12342 7.57802C7.3381 7.37254 7.61717 7.1364 7.78584 7.026C8.07719 6.83279 8.61387 6.55371 8.77641 6.51384C8.82242 6.50158 8.85922 6.48011 8.85922 6.46478C8.85922 6.44944 7.78584 6.43718 6.32299 6.43718H3.7837L3.66103 6.36664C3.48316 6.26544 3.39422 6.09676 3.40955 5.87902C3.42182 5.67355 3.51689 5.52634 3.69783 5.43741C3.8113 5.3822 3.96157 5.37914 8.23053 5.37914C12.3431 5.37914 12.6528 5.3822 12.7418 5.43127C13.0546 5.60301 13.1404 5.98943 12.9227 6.24704C12.8 6.39424 12.6712 6.43718 12.3584 6.43718C12.1928 6.43718 12.0793 6.44944 12.0793 6.46784C12.0793 6.48318 12.0977 6.49851 12.1192 6.49851C12.202 6.49851 12.8798 6.85119 13.1619 7.04133C13.9991 7.60562 14.683 8.51338 15.0142 9.50395L15.1308 9.85663L15.14 5.82382C15.1461 2.92878 15.1369 1.73274 15.1124 1.58247C15.0326 1.09178 14.6677 0.604164 14.223 0.383356C13.7875 0.168682 14.2138 0.180949 7.55584 0.184016C4.24985 0.187082 1.47442 0.199349 1.38548 0.214684ZM12.6467 2.82144C12.8062 2.86745 12.984 3.04839 13.027 3.21093C13.0914 3.44093 12.9748 3.68628 12.754 3.79975C12.6344 3.86108 12.5578 3.86108 8.21213 3.86108H3.7929L3.67023 3.79361C3.36355 3.61881 3.31142 3.18332 3.56903 2.94105C3.73463 2.78464 3.56289 2.79078 8.19986 2.78771C11.2636 2.78771 12.5608 2.79691 12.6467 2.82144Z" fill="#757575"/>
<path d="M10.0276 7.32927C8.81627 7.47035 7.72143 8.25544 7.18475 9.36561C6.50699 10.7671 6.78607 12.3987 7.89011 13.5088C8.58933 14.2111 9.46643 14.573 10.4846 14.573C11.1348 14.573 11.6714 14.4411 12.2327 14.1467L12.5087 13.9995L13.3919 14.8766C14.1249 15.6065 14.2935 15.7598 14.3947 15.7874C14.5665 15.8334 14.6524 15.8273 14.7934 15.7629C14.9376 15.6954 15.3117 15.3213 15.3577 15.1986C15.4006 15.0882 15.4006 14.8981 15.3608 14.7877C15.3424 14.7417 14.9314 14.3062 14.4499 13.8216L13.5698 12.9415L13.6556 12.7943C14.2353 11.7822 14.315 10.6322 13.8795 9.54962C13.7293 9.17547 13.4808 8.79519 13.1711 8.47012C12.8123 8.0929 12.5731 7.91503 12.1253 7.69422C11.4506 7.35994 10.7759 7.2434 10.0276 7.32927ZM10.9753 8.84426C11.7297 9.02827 12.3216 9.56802 12.5577 10.2887C12.6375 10.5341 12.6467 10.6015 12.6436 10.945C12.6436 11.2762 12.6313 11.3621 12.5608 11.5737C12.4443 11.9233 12.2817 12.1809 12.018 12.4477C11.604 12.8617 11.1624 13.0549 10.5889 13.0825C10.1534 13.104 9.87124 13.0457 9.50016 12.8556C8.56173 12.3741 8.10171 11.2977 8.41452 10.3132C8.52186 9.9667 8.6844 9.70909 8.96654 9.42695C9.50016 8.89333 10.2638 8.66946 10.9753 8.84426Z" fill="#757575"/>
</svg>
