<svg width="11" height="12" viewBox="0 0 11 12" fill="none" xmlns="http://www.w3.org/2000/svg">
<path d="M2.44444 6H3.66667V7.2H2.44444V6ZM11 2.4V10.8C11 11.466 10.4561 12 9.77778 12H1.22222C0.543889 12 0 11.46 0 10.8V2.4C0 1.74 0.55 1.2 1.22222 1.2H1.83333V0H3.05556V1.2H7.94444V0H9.16667V1.2H9.77778C10.4561 1.2 11 1.74 11 2.4ZM1.22222 3.6H9.77778V2.4H1.22222V3.6ZM9.77778 10.8V4.8H1.22222V10.8H9.77778ZM7.33333 7.2V6H8.55556V7.2H7.33333ZM4.88889 7.2V6H6.11111V7.2H4.88889ZM2.44444 8.4H3.66667V9.6H2.44444V8.4ZM7.33333 9.6V8.4H8.55556V9.6H7.33333ZM4.88889 9.6V8.4H6.11111V9.6H4.88889Z" fill="#555555"/>
</svg>
