<svg width="17" height="17" viewBox="0 0 17 17" fill="none" xmlns="http://www.w3.org/2000/svg">
<path d="M4.28988 0.049798C2.77582 0.325384 1.54398 1.48417 1.1389 3.01816C1.01273 3.48632 0.99281 4.31972 1.09574 4.81113C1.4809 6.6871 3.09789 8.01523 4.97719 7.99863C5.56488 7.99198 5.56156 7.99531 5.24281 7.72304C4.59203 7.17187 4.07074 6.38163 3.78519 5.51503C3.58929 4.93066 3.53949 4.55878 3.56273 3.8582C3.58265 3.2373 3.62914 2.94843 3.80179 2.4371C4.07074 1.63027 4.64847 0.776947 5.27601 0.249017C5.49515 0.0663996 5.50843 0.0464778 5.43871 0.026556C5.30258 -0.0099678 4.5389 0.00331354 4.28988 0.049798Z" fill="#932F8F"/>
<path d="M7.77621 0.049798C6.26215 0.325384 5.03031 1.48417 4.62523 3.01816C4.49906 3.48632 4.47914 4.31972 4.58207 4.81113C4.96722 6.6871 6.58422 8.01523 8.46351 7.99863C9.05121 7.99198 9.04789 7.99531 8.72914 7.72304C8.07836 7.17187 7.55707 6.38163 7.27152 5.51503C7.07562 4.93066 7.02582 4.55878 7.04906 3.8582C7.06898 3.2373 7.11547 2.94843 7.28812 2.4371C7.55707 1.63027 8.1348 0.776947 8.76234 0.249017C8.98148 0.0663996 8.99476 0.0464778 8.92504 0.026556C8.7889 -0.0099678 8.02523 0.00331354 7.77621 0.049798Z" fill="#932F8F"/>
<path d="M11.04 0.0631347C9.74177 0.405127 8.69255 1.35806 8.23434 2.61978C7.92223 3.46978 7.91891 4.54224 8.22106 5.3856C8.55641 6.31196 9.26032 7.12544 10.1236 7.58364C10.4656 7.75962 11.03 7.95884 11.299 7.98872L11.4883 8.01196V7.20181L11.4849 6.39165L11.3123 6.31196C10.9238 6.12935 10.5718 5.63462 10.5353 5.21294L10.5154 5.01372H11.0035H11.4883V5.10337C11.4883 5.32915 11.714 5.51177 11.9863 5.51177C12.3017 5.51177 12.4843 5.32915 12.4843 5.02036C12.4843 4.67505 12.3283 4.54224 11.8734 4.48579C11.3156 4.41938 10.8773 4.1106 10.6482 3.62915C10.5486 3.41665 10.542 3.38345 10.542 3.02153C10.542 2.65962 10.5486 2.62642 10.6482 2.41392C10.7777 2.13833 11.0666 1.8395 11.3123 1.72329L11.4849 1.6436L11.4883 0.820166V4.86374e-05L11.382 0.00336933C11.3222 0.00336933 11.1662 0.0299315 11.04 0.0631347Z" fill="#932F8F"/>
<path d="M12.4844 0.816845L12.4877 1.6436L12.6604 1.72329C13.0455 1.90591 13.4008 2.40395 13.4373 2.81899L13.4572 3.02153H12.9691H12.4844V2.92856C12.4844 2.7061 12.2586 2.52349 11.9863 2.52349C11.6709 2.52349 11.4883 2.7061 11.4883 3.01821C11.4883 3.22075 11.5646 3.37349 11.7107 3.45981C11.7605 3.4897 11.9365 3.52954 12.0992 3.54946C12.657 3.61587 13.0953 3.92466 13.3244 4.4061C13.424 4.6186 13.4307 4.65181 13.4307 5.01372C13.4307 5.38228 13.4273 5.40552 13.3178 5.62798C13.1783 5.91021 12.9027 6.19907 12.6604 6.31196L12.4877 6.39165L12.4844 7.20181V8.01196L12.667 7.98872C13.1352 7.9356 13.9021 7.60356 14.3604 7.26157C15.0775 6.72368 15.6287 5.90356 15.8611 5.02368C15.9773 4.5854 16.0072 3.75532 15.9209 3.30376C15.6885 2.052 14.9248 1.00278 13.8125 0.401806C13.5104 0.242432 12.9359 0.0432129 12.6736 0.01333L12.4844 -0.00991249V0.816845Z" fill="#932F8F"/>
<path d="M0 12.9824V15.9707H0.996094H1.99219V12.9824V9.99414H0.996094H0V12.9824Z" fill="#932F8F"/>
<path d="M4.48242 10.0439C4.15039 10.117 3.80508 10.2498 3.38008 10.4623L2.98828 10.6582V12.7467C2.98828 14.3869 2.99824 14.8385 3.03145 14.8518C3.05137 14.8584 4.0873 15.2801 5.3291 15.7814C6.5709 16.2828 7.68984 16.7244 7.81602 16.7643C8.3207 16.9203 8.66602 16.9701 9.30352 16.99C10.2199 17.0166 10.8375 16.9203 11.5746 16.6314C11.7672 16.5584 13.0588 15.9242 14.4533 15.2236L16.9834 13.9486V13.59C16.9834 13.2547 16.9768 13.2182 16.8838 13.0555C16.751 12.8131 16.482 12.574 16.243 12.4844C16.0836 12.4246 16.0039 12.4146 15.7383 12.4246L15.4229 12.4379L12.9193 13.693C11.1729 14.5662 10.3959 14.9414 10.3461 14.9281C10.3063 14.9182 9.5293 14.6227 8.61289 14.2707L6.95273 13.6332L7.11875 13.1916C7.21172 12.9492 7.29473 12.75 7.30469 12.75C7.31465 12.75 8.00195 13.0123 8.83203 13.3311C9.94434 13.7594 10.3461 13.8988 10.366 13.8689C10.3793 13.849 10.4391 13.7096 10.4988 13.5635C10.6416 13.2049 10.6648 12.7367 10.5619 12.4379C10.4324 12.0727 10.21 11.7971 9.89121 11.6111C9.69531 11.4982 6.48125 10.2133 6.11602 10.1037C5.86367 10.0273 5.75742 10.0174 5.2627 10.0074C4.8543 9.99746 4.63848 10.0107 4.48242 10.0439Z" fill="#932F8F"/>
<path d="M12.594 10.6582C12.3615 10.7014 12.159 10.7844 11.5448 11.0832L11.0201 11.3389L11.143 11.5049C11.4385 11.91 11.5879 12.3848 11.5879 12.926V13.2812L13.1485 12.501C14.0084 12.0727 14.709 11.7074 14.709 11.6941C14.709 11.5646 14.2408 11.0666 13.9686 10.9105C13.5867 10.6848 13.019 10.5818 12.594 10.6582Z" fill="#932F8F"/>
</svg>
