<svg width="17" height="16" viewBox="0 0 17 16" fill="none" xmlns="http://www.w3.org/2000/svg">
<path d="M0 3.78521V7.57036H0.780273H1.56055L1.56719 9.25044L1.57715 10.9338L3.04805 9.25044L4.51895 7.57036H5.41543H6.30859V5.41216V3.25396H8.5H10.6914V1.627V4.95911e-05H5.3457H0V3.78521ZM5.59805 2.06196C5.80391 2.13833 6.04629 2.38071 6.1127 2.57661C6.18906 2.79575 6.16914 3.1145 6.06621 3.327C5.96992 3.5229 5.84375 3.62915 5.48184 3.81841C5.36563 3.88149 5.23945 3.97446 5.20293 4.02427C5.13652 4.11724 5.12656 4.11724 4.79121 4.11724C4.40938 4.11724 4.41602 4.12388 4.48574 3.87153C4.54219 3.66899 4.63184 3.57271 4.93398 3.40669C5.36895 3.16099 5.51836 2.92857 5.3457 2.75591C5.19961 2.60981 4.99375 2.62974 4.82109 2.81235L4.71152 2.93188L4.47578 2.76919C4.34629 2.67954 4.22676 2.59653 4.20684 2.58657C4.16035 2.55337 4.26328 2.38071 4.41602 2.24458C4.7248 1.96567 5.16309 1.89927 5.59805 2.06196ZM5.17969 4.98052V5.34575H4.83105H4.48242V4.98052V4.61528H4.83105H5.17969V4.98052Z" fill="#757575"/>
<path d="M7.4707 8.16802V11.92H9.97422H12.4811L13.952 13.6L15.4229 15.2834L15.4328 13.6L15.4395 11.92H16.2197H17V8.16802V4.41607H12.2354H7.4707V8.16802ZM12.1523 7.30474V8.26763H11.7207H11.2891V7.30474V6.34185H11.7207H12.1523V7.30474ZM12.1523 9.28032V9.69536H11.7207H11.2891V9.28032V8.86528H11.7207H12.1523V9.28032Z" fill="#757575"/>
</svg>
