<svg width="18" height="18" viewBox="0 0 18 18" fill="none" xmlns="http://www.w3.org/2000/svg">
<path d="M9.14151 0.809492C7.74892 0.926254 6.39621 1.39614 5.25423 2.15936C4.74732 2.49825 4.47108 2.72608 4.00688 3.18742C2.63993 4.54299 1.83969 6.21751 1.61756 8.19105L1.60048 8.35622L0.800238 8.36192L0 8.37046L0.452804 8.91155C0.703412 9.20772 1.3043 9.92537 1.78843 10.5063C2.92756 11.8676 2.91902 11.859 2.94465 11.842C2.95889 11.8334 3.15823 11.6027 3.39176 11.3237C4.22617 10.3269 5.15456 9.21626 5.49629 8.80618C5.68995 8.5755 5.84658 8.379 5.84658 8.37046C5.84658 8.36192 5.46212 8.35622 4.99223 8.35622C4.14073 8.35622 4.13788 8.35622 4.13788 8.29642C4.13788 8.26224 4.16921 8.07429 4.20908 7.88064C4.63056 5.80173 6.18547 4.11012 8.20742 3.52916C8.71718 3.38392 9.0219 3.34121 9.62564 3.32412C10.2294 3.30703 10.5369 3.33266 11.0552 3.44658C12.9263 3.86236 14.5182 5.27203 15.1561 7.08609C16.0332 9.57794 15.1105 12.3175 12.9092 13.7671C12.7611 13.8639 12.4735 14.0262 12.2684 14.1231C10.2749 15.0885 7.9084 14.8122 6.19686 13.414L6.00321 13.2573L5.11469 14.143C4.41127 14.8464 4.23186 15.0401 4.25749 15.0685C4.32869 15.1568 4.96945 15.6523 5.24853 15.8403C7.28188 17.1959 9.82783 17.5689 12.1915 16.8541C14.2135 16.2418 15.9649 14.8179 16.9958 12.9469C18.1235 10.8936 18.3143 8.37046 17.5027 6.16909C17.2236 5.41157 16.711 4.50312 16.1956 3.85666C15.9307 3.52347 15.1988 2.80012 14.8742 2.54666C13.8233 1.73503 12.5788 1.16262 11.3714 0.937645C10.685 0.809492 9.77372 0.758232 9.14151 0.809492Z" fill="#757575"/>
<path d="M9.14172 5.47143C9.13033 5.47997 9.12179 6.07801 9.12179 6.79281V8.09996L8.98794 8.16831C8.80568 8.26229 8.59494 8.47588 8.50096 8.66953C8.43262 8.80907 8.42407 8.85748 8.42407 9.12518C8.42407 9.39857 8.43262 9.43844 8.50666 9.59507C8.61488 9.8115 8.80568 10.0023 9.02211 10.1105C9.1759 10.1846 9.22146 10.1931 9.47777 10.1931C9.72837 10.1931 9.78248 10.1846 9.92772 10.1162L10.0929 10.0393L10.7536 10.4523C11.1181 10.6829 11.7162 11.0589 12.0864 11.2924C12.4566 11.5259 12.7784 11.7224 12.8012 11.7309C12.824 11.7395 12.861 11.7252 12.8866 11.6968C12.9777 11.5914 13.2141 11.1899 13.2027 11.1557C13.1942 11.1357 12.8923 10.9335 12.5306 10.7086C11.0412 9.77448 10.5315 9.44414 10.5372 9.42135C10.634 8.89166 10.4119 8.39329 9.97898 8.17401L9.83374 8.09996V6.77573V5.45149H9.4977C9.31259 5.45149 9.15027 5.46003 9.14172 5.47143Z" fill="#757575"/>
</svg>
