<svg width="18" height="18" viewBox="0 0 18 18" fill="none" xmlns="http://www.w3.org/2000/svg">
<path d="M11.0344 0.801143C10.988 0.921885 10.8208 1.32126 10.6722 1.68348L10.3936 2.33363H10.6722C10.8301 2.33363 10.9694 2.2779 10.9973 2.19431C11.0344 2.10143 11.183 2.055 11.4245 2.055C11.6846 2.055 11.8517 1.98998 12.0189 1.8228C12.149 1.69277 12.279 1.59061 12.3254 1.59061C12.3626 1.59061 12.7991 1.75779 13.2914 1.96212C13.7743 2.16645 14.3223 2.33363 14.4988 2.33363C14.731 2.33363 14.8331 2.38007 14.861 2.49152C14.8889 2.59369 15.2232 2.78873 15.734 3.01164L16.5699 3.35529L16.5328 3.67107C16.5049 3.91256 16.5607 4.05187 16.7743 4.29336L17.0436 4.60914L16.152 6.73605C15.6597 7.90631 15.2046 8.88153 15.1489 8.9094C15.0653 8.93726 15.0282 8.79794 15.0282 8.42643C15.0282 8.1478 14.991 7.88774 14.9353 7.85987C14.8703 7.82272 14.8424 8.34284 14.8424 9.3645C14.8517 10.7298 14.861 10.897 14.9724 10.6927C15.1768 10.3211 18.0003 3.58748 18.0003 3.48532C18.0003 3.40173 11.3688 0.568948 11.183 0.568948C11.1459 0.568948 11.0809 0.671113 11.0344 0.801143Z" fill="#757575"/>
<path d="M7.1333 7.4419C7.1333 10.2561 7.17045 12.3644 7.21689 12.3644C7.26333 12.3644 7.38407 12.2901 7.49553 12.1973C7.66271 12.0579 7.69057 11.9186 7.70914 11.157L7.73701 10.2747L7.95992 10.6926C8.35 11.4449 8.36858 11.4542 8.92585 11.1477C9.66887 10.7484 10.189 10.6462 10.5977 10.8134C11.0713 11.0177 11.2478 11.3242 11.2014 11.9093L11.1735 12.383L11.5729 12.3273C12.4831 12.2065 13.3283 11.6493 13.7462 10.9062C13.8948 10.6369 14.062 10.414 14.1084 10.414C14.1549 10.414 14.192 11.4357 14.192 12.7824C14.192 14.965 14.1827 15.1601 14.0341 15.2065C13.6162 15.3272 13.4026 15.5037 13.319 15.7823L13.2354 16.0796H10.8856C8.61006 16.0796 8.52647 16.0703 8.52647 15.9031C8.52647 15.8009 8.42431 15.5966 8.30356 15.4573L8.07137 15.1972L7.65342 15.6152C7.34692 15.9031 7.22618 16.0981 7.22618 16.2839V16.5439H10.9413H14.6564V9.53165V2.51936H10.8949H7.1333V7.4419ZM13.2633 3.26238C13.2633 3.51315 13.6626 3.91253 13.9134 3.91253C14.0992 3.91253 14.0992 3.95897 14.0992 6.32736C14.0992 7.65551 14.0713 8.74219 14.0341 8.7329C13.9877 8.7329 13.8577 8.51928 13.7276 8.24993C13.254 7.29329 12.2044 6.74531 10.8484 6.7546C9.52027 6.77317 8.43359 7.3583 7.9692 8.32424C7.85775 8.55643 7.72772 8.74219 7.68128 8.74219C7.63484 8.74219 7.59769 7.73911 7.59769 6.38309V4.02398L7.95063 3.84751C8.15496 3.74535 8.35 3.55959 8.43359 3.38312L8.57291 3.07663H10.9227C13.2168 3.07663 13.2633 3.07663 13.2633 3.26238ZM10.0218 9.27159C9.78961 9.42949 9.77104 9.60595 9.97537 9.801C10.2633 10.0982 10.5698 9.93103 10.6534 9.43877C10.7741 8.70504 11.6658 8.44498 12.1487 8.99296C12.2973 9.15085 12.4831 9.29946 12.5852 9.31803C12.7989 9.35518 12.8082 9.70812 12.5945 9.74527C12.5017 9.76385 12.288 9.92174 12.1116 10.0982C11.9351 10.2747 11.7493 10.414 11.6936 10.414C11.5264 10.414 11.5822 9.95889 11.7679 9.77313C12.0001 9.54094 11.9258 9.22515 11.6286 9.15085C11.3314 9.07655 11.1271 9.25302 11.1271 9.58738C11.1271 9.88459 10.8763 10.1911 10.5141 10.3211C10.2354 10.4326 9.73389 10.2468 9.53884 9.96818C9.46454 9.86601 9.32522 9.77313 9.22306 9.75456C8.98157 9.70812 8.97229 9.36447 9.21377 9.31803C9.31594 9.29017 9.48312 9.17871 9.57599 9.04869C9.67816 8.91866 9.84534 8.78863 9.95679 8.74219C10.1147 8.68646 10.1611 8.71432 10.1797 8.90008C10.1983 9.05797 10.1425 9.17871 10.0218 9.27159Z" fill="#757575"/>
<path d="M8.61959 3.48539C8.52672 3.72688 8.09948 4.09839 7.91372 4.09839C7.81155 4.09839 7.78369 4.46061 7.78369 6.04883C7.78369 7.11693 7.81155 7.99927 7.83942 7.99927C7.86728 7.99927 8.07161 7.8228 8.28523 7.59989C9.63196 6.21601 12.149 6.20672 13.4864 7.57203C13.7093 7.80422 13.9229 7.99927 13.9508 7.99927C13.9787 7.99927 14.0065 7.11693 14.0065 6.04883C14.0065 4.46061 13.9787 4.09839 13.8765 4.09839C13.6907 4.09839 13.2635 3.72688 13.1706 3.48539L13.0777 3.26249H10.8951H8.71247L8.61959 3.48539Z" fill="#757575"/>
<path d="M14.8423 3.50389V4.19119L15.2231 4.37695C15.4274 4.4884 15.5853 4.62772 15.5574 4.68344C15.5296 4.74846 15.3624 5.15712 15.1766 5.60294C14.963 6.11377 14.8423 6.55958 14.8423 6.81964C14.8423 7.23759 15.2324 8.28711 15.3253 8.12922C15.3531 8.08278 15.6968 7.27474 16.0961 6.33667L16.802 4.62772L16.5977 4.4141C16.4769 4.29336 16.3655 4.01472 16.3376 3.8011C16.2819 3.42959 16.2726 3.4203 15.5667 3.11381L14.8423 2.8166V3.50389Z" fill="#757575"/>
<path d="M6.15806 9.01156C5.3686 9.24376 4.89492 9.50382 4.40266 9.99607C3.94756 10.4512 3.40887 11.4543 3.2324 12.188C3.16739 12.4295 3.00949 12.7453 2.86089 12.9032L2.60083 13.2004L3.45531 14.7514L4.31907 16.3118L5.08996 16.3396C6.36239 16.3861 6.67818 16.2468 7.93203 15.0858C8.51716 14.5378 9.38093 13.8041 9.83603 13.4511C10.8205 12.6988 11.0342 12.4016 11.0342 11.7793C11.0342 10.5162 9.74315 10.5812 8.08992 11.9372C6.9661 12.8567 6.63174 13.1075 6.511 13.1075C6.30666 13.1075 6.38097 12.9775 6.66889 12.8103L6.94752 12.6524V10.7391C6.94752 9.27162 6.91966 8.8351 6.83607 8.84438C6.77106 8.84438 6.46456 8.91869 6.15806 9.01156Z" fill="#757575"/>
<path d="M13.5052 11.5194C12.9851 12.0395 12.1957 12.4389 11.4991 12.5224C11.174 12.5596 10.9975 12.6339 10.9325 12.7454C10.8861 12.8382 10.4588 13.2005 9.98515 13.5534C9.52076 13.9063 8.92634 14.38 8.66628 14.6122L8.21118 15.0302L8.46195 15.3274C8.60127 15.4945 8.71272 15.6896 8.71272 15.7639C8.71272 15.8753 9.06566 15.8939 10.8954 15.8939H13.078L13.208 15.5688C13.3009 15.3552 13.4588 15.188 13.6724 15.0859L14.0068 14.928V12.9961C14.0068 11.9373 13.9975 11.0643 13.9789 11.0643C13.9696 11.0643 13.7467 11.2686 13.5052 11.5194Z" fill="#757575"/>
<path d="M1.04975 13.479C0.492484 13.7762 0.0188061 14.0642 0.000230448 14.1106C-0.027633 14.1942 2.48007 17.2499 2.71227 17.4171C2.79586 17.4728 3.08378 17.3613 3.58532 17.092L4.33764 16.674L3.30669 14.7979C2.74013 13.7669 2.2293 12.9218 2.17358 12.9218C2.11785 12.931 1.61631 13.1725 1.04975 13.479Z" fill="#757575"/>
</svg>
