<svg width="17" height="22" viewBox="0 0 17 22" fill="none" xmlns="http://www.w3.org/2000/svg">
<path d="M7.89592 0.169223C6.20139 0.340629 4.72382 1.05012 3.55653 2.2543C2.45649 3.39123 1.79039 4.84275 1.6537 6.40277L1.62766 6.70219L1.51918 6.76945C1.28485 6.91265 1.08958 7.17735 1.01798 7.44856C0.970244 7.6395 0.970244 10.0999 1.01798 10.2909C1.16986 10.8702 1.75785 11.2347 2.36536 11.124C2.81449 11.0416 3.17249 10.7075 3.27446 10.2757C3.3222 10.0717 3.3222 7.63516 3.27446 7.4529C3.20503 7.18386 3.04014 6.9517 2.81883 6.80416L2.67563 6.71087L2.68865 6.55899C2.7993 5.36999 3.23975 4.26995 3.97311 3.35868C4.16404 3.11784 4.59147 2.69041 4.8258 2.50382C5.55048 1.92451 6.43572 1.50359 7.3101 1.32133C7.86121 1.20851 8.59674 1.17162 9.1218 1.23021C10.4193 1.37774 11.6104 1.93753 12.5369 2.83795C12.8884 3.18077 13.1097 3.4433 13.3549 3.80998C13.8756 4.59324 14.2336 5.59347 14.2965 6.43965C14.303 6.54163 14.3139 6.6436 14.3182 6.66747C14.3247 6.70219 14.3074 6.72388 14.2466 6.75426C14.0318 6.86925 13.7823 7.20556 13.7237 7.45941C13.6955 7.57657 13.6912 10.1455 13.7194 10.2583C13.7281 10.2995 13.7433 10.356 13.7519 10.382C13.765 10.4254 13.7476 10.4427 13.6196 10.5274C13.4048 10.6662 12.9904 10.868 12.7083 10.9722C12.2765 11.1305 11.6712 11.2694 11.2308 11.3128L11.0702 11.328L10.9704 11.2282C10.914 11.1739 10.825 11.1067 10.7708 11.0806C10.6753 11.0286 10.6623 11.0286 10.0439 11.0286H9.41471L9.29104 11.0893C9.04152 11.2108 8.89182 11.4668 8.91134 11.7381C8.9287 11.9984 9.07841 12.2176 9.31491 12.3282C9.41037 12.3716 9.44726 12.3738 10.0331 12.3738H10.6514L10.7751 12.313C10.8532 12.274 10.94 12.2067 11.0051 12.1329L11.1114 12.0136L11.3154 11.9919C12.3438 11.8813 13.3354 11.5515 14.021 11.0937C14.1208 11.0286 14.2076 10.9743 14.2141 10.9743C14.2206 10.9743 14.2792 11.0004 14.3399 11.0307C14.4029 11.0611 14.5352 11.1002 14.6328 11.1197C15.1926 11.2303 15.7372 10.9309 15.952 10.395L16.0106 10.2475L16.0171 8.93698C16.0236 7.68072 16.0214 7.62214 15.9802 7.45507C15.9542 7.35744 15.9086 7.23376 15.8761 7.17952C15.7958 7.04283 15.5832 6.82369 15.4703 6.76294L15.3749 6.71303L15.3597 6.50691C15.1839 4.10289 13.7151 1.93102 11.5432 0.863526C10.825 0.509866 10.1741 0.310253 9.38217 0.201768C9.08709 0.160544 8.18232 0.141017 7.89592 0.169223Z" fill="#757575"/>
<path d="M8.15644 3.09019C8.12172 3.09453 8.00022 3.10972 7.88739 3.12274C6.92188 3.23556 5.87391 3.77365 5.18395 4.51351C3.93203 5.85873 3.60875 7.72467 4.31607 9.5342C4.8151 10.81 5.75024 11.8775 6.83292 12.4069C7.28856 12.6304 7.69863 12.7497 8.18898 12.7996C8.41897 12.8213 8.86159 12.8126 8.93753 12.7822C8.95922 12.7757 8.92668 12.741 8.84206 12.6781C8.36039 12.3244 8.21502 11.6757 8.49491 11.1224C8.62943 10.8555 8.92668 10.6125 9.24128 10.5127C9.38448 10.4672 9.43222 10.465 10.0441 10.465H10.695L10.8642 10.5257C10.9575 10.5583 11.0877 10.619 11.1528 10.6603C11.2222 10.7058 11.2982 10.7362 11.3372 10.7362C11.4197 10.7362 11.884 10.6429 12.0467 10.5952C12.1769 10.5561 12.1942 10.5344 12.4112 10.1178C12.7388 9.49297 12.9298 8.89197 13.0187 8.21936C13.0665 7.85051 13.0513 7.18224 12.9862 6.83943C12.626 4.92142 11.1615 3.47206 9.25213 3.14226C8.99394 3.09887 8.32567 3.06632 8.15644 3.09019Z" fill="#757575"/>
<path d="M4.7716 12.9186C3.88637 13.1095 3.04886 13.5022 2.31117 14.0707C2.01826 14.2963 1.43678 14.893 1.20462 15.2054C0.436546 16.236 0.0112851 17.4706 0.00043656 18.6878C-0.00173314 19.0002 0.00260626 19.0501 0.0503396 19.1955C0.282497 19.8985 1.20462 20.5407 2.69303 21.0332C6.43359 22.2721 12.4046 22.066 15.4075 20.5928C16.2471 20.1827 16.7765 19.7032 16.948 19.1999C17.0369 18.9395 17.0087 18.2126 16.8872 17.6268C16.4923 15.7262 15.2165 14.1249 13.4526 13.3221C13.1119 13.1681 12.5695 12.9902 12.2137 12.9164L11.9316 12.8578L11.6496 13.0466C10.9769 13.4979 10.211 13.7821 9.37571 13.8928C9.07629 13.9318 8.0153 13.9383 7.7007 13.9036C7.2494 13.8537 6.78292 13.7387 6.3685 13.5782C5.97145 13.4241 5.48544 13.1594 5.2012 12.9468C5.13828 12.9012 5.07102 12.8622 5.04933 12.8643C5.02763 12.8643 4.90396 12.8882 4.7716 12.9186Z" fill="#757575"/>
</svg>
