<svg width="16" height="14" viewBox="0 0 16 14" fill="none" xmlns="http://www.w3.org/2000/svg">
<path d="M2.37757 0.464785C2.31028 0.573196 1.74579 1.46665 1.12523 2.44983C0.0598131 4.13955 0 4.24796 0 4.41245C0.00373832 5.1489 0.586916 5.86292 1.40187 6.1246C2.55701 6.49843 3.75327 5.83675 4.04112 4.66292C4.08972 4.476 4.10841 4.43488 4.10841 4.52086C4.11215 4.58815 4.15327 4.75264 4.20187 4.89095C4.71402 6.29656 6.59813 6.65544 7.60374 5.53768C7.80187 5.31712 8.02617 4.89469 8.05981 4.67039C8.07477 4.59563 8.0972 4.53207 8.11215 4.53207C8.1271 4.53207 8.14953 4.59563 8.16449 4.67039C8.1757 4.7489 8.24673 4.93581 8.31776 5.08908C8.55327 5.5788 9.04299 5.9788 9.58879 6.12834C9.81682 6.18815 10.3477 6.19563 10.5981 6.13955C11.3122 5.9788 11.9402 5.33581 12.0822 4.62553L12.1234 4.40497L12.172 4.64049C12.3178 5.34329 12.871 5.94516 13.5477 6.1246C13.7981 6.19189 14.3589 6.19189 14.6131 6.12086C15.4056 5.91151 16 5.19002 16 4.43488V4.24422L14.5009 2.25544L12.9981 0.270392H7.74953H2.50467L2.37757 0.464785Z" fill="#757575"/>
<path d="M3.94386 6.51356C3.6747 6.73038 3.22237 6.95468 2.88966 7.04067C2.51583 7.1416 1.91396 7.14908 1.58499 7.0631C1.45788 7.02571 1.34199 6.99954 1.33078 6.99954C1.31956 6.99954 1.30835 8.51356 1.30835 10.364V13.7285H8.0747H14.8411V10.3827C14.8411 8.54347 14.8298 7.03693 14.8149 7.03693C14.7962 7.03693 14.6429 7.0631 14.4672 7.09674C13.7682 7.2201 12.9644 7.0145 12.3513 6.54721C12.2168 6.44627 12.1009 6.36403 12.0897 6.36403C12.0822 6.36403 11.9775 6.4388 11.8616 6.52852C11.5775 6.74908 11.17 6.94721 10.8112 7.0444C10.3738 7.16029 9.7719 7.15281 9.32704 7.01824C8.95695 6.90982 8.67284 6.76777 8.3962 6.55842C8.29527 6.48366 8.19433 6.40515 8.16816 6.38646C8.14199 6.36403 8.04106 6.41637 7.88405 6.53225C7.42798 6.8687 7.01676 7.03693 6.46349 7.11169C5.75321 7.20889 4.88592 6.95468 4.33639 6.48366C4.25788 6.4201 4.17938 6.36403 4.16069 6.36777C4.14573 6.36777 4.04854 6.43506 3.94386 6.51356ZM7.21489 9.95281V11.1865H5.12143H3.02798V9.95281V8.71917H5.12143H7.21489V9.95281ZM12.2616 10.7939V12.8687H11.028H9.79433V10.7939V8.71917H11.028H12.2616V10.7939Z" fill="#757575"/>
</svg>
