<svg width="18" height="18" viewBox="0 0 18 18" fill="none" xmlns="http://www.w3.org/2000/svg">
<path d="M6.66123 0.797199C6.52055 0.885127 2.43012 4.78563 2.32812 4.92983C2.22261 5.07403 2.21557 5.38002 2.31405 5.5383C2.41957 5.71064 6.55572 9.64279 6.70344 9.71313C6.97074 9.83975 7.33652 9.70962 7.4561 9.44231C7.51589 9.30866 7.52293 9.18908 7.52293 8.02139V6.74819H10.1713C11.6239 6.74819 12.9991 6.76578 13.2207 6.78336C14.1879 6.86426 15.0285 7.25466 15.7003 7.92643C16.3826 8.60875 16.7624 9.4388 16.8433 10.4377C16.882 10.923 16.9277 11.0391 17.1247 11.1692C17.2091 11.229 17.29 11.2501 17.4377 11.2501C17.6699 11.2501 17.8281 11.1692 17.9372 10.9969C18.004 10.8843 18.0075 10.8421 17.9934 9.79051C17.9794 8.84088 17.9688 8.65799 17.902 8.37311C17.3674 6.00607 15.6053 4.2862 13.2453 3.82193C12.8655 3.74807 12.7635 3.74456 10.1889 3.73049L7.52293 3.71994V2.46432C7.52293 1.22981 7.52293 1.20167 7.44555 1.05043C7.333 0.835887 7.21342 0.758511 6.97074 0.744442C6.81598 0.733891 6.74212 0.744442 6.66123 0.797199Z" fill="#757575"/>
<path d="M0.24937 6.81847C0.186061 6.85716 0.105167 6.93805 0.0629618 7.00136C-0.00386376 7.11391 -0.00738089 7.15611 0.00668764 8.20774C0.0242733 9.41411 0.0453761 9.58294 0.291576 10.318C0.931694 12.2313 2.61288 13.7296 4.57545 14.1341C5.19798 14.2607 5.53562 14.2748 8.03279 14.2748H10.4772V15.5339C10.4772 16.7684 10.4772 16.7966 10.5546 16.9478C10.6003 17.0322 10.6777 17.1342 10.7304 17.1729C10.8606 17.2644 11.1701 17.289 11.3108 17.2186C11.4339 17.1518 15.5559 13.2337 15.6755 13.0684C15.7775 12.9242 15.7846 12.6182 15.6861 12.46C15.5806 12.2876 11.4444 8.35546 11.2967 8.28511C11.0259 8.1585 10.6671 8.28511 10.544 8.55593C10.4842 8.68958 10.4772 8.80917 10.4772 9.97334V11.2501H7.83231C6.37622 11.2501 5.00102 11.2325 4.77944 11.2149C3.81223 11.134 2.97163 10.7436 2.29986 10.0718C1.61754 9.38949 1.23768 8.55945 1.15679 7.56059C1.1181 7.07522 1.07238 6.95916 0.87542 6.82902C0.720666 6.72351 0.414675 6.71647 0.24937 6.81847Z" fill="#757575"/>
</svg>
