<svg width="32" height="33" viewBox="0 0 32 33" fill="none" xmlns="http://www.w3.org/2000/svg">
<circle cx="16" cy="16.5" r="16" fill="white" fill-opacity="0.16"/>
<path d="M18.3333 17.6667C18.3333 17.5341 18.386 17.4069 18.4798 17.3131C18.5735 17.2193 18.7007 17.1667 18.8333 17.1667H20.1667C20.2993 17.1667 20.4265 17.2193 20.5202 17.3131C20.614 17.4069 20.6667 17.5341 20.6667 17.6667C20.6667 17.7993 20.614 17.9265 20.5202 18.0202C20.4265 18.114 20.2993 18.1667 20.1667 18.1667H18.8333C18.7007 18.1667 18.5735 18.114 18.4798 18.0202C18.386 17.9265 18.3333 17.7993 18.3333 17.6667ZM10 11.8333H10.0093C10.0503 11.4667 10.225 11.128 10.5 10.882C10.775 10.636 11.131 10.5 11.5 10.5H19.1667C19.3636 10.5 19.5587 10.5388 19.7407 10.6142C19.9227 10.6896 20.088 10.8001 20.2273 10.9393C20.3666 11.0786 20.4771 11.244 20.5525 11.426C20.6279 11.608 20.6667 11.803 20.6667 12V12.558C21.1412 12.6707 21.5639 12.9401 21.8663 13.3228C22.1688 13.7054 22.3333 14.1789 22.3333 14.6667V20.3333C22.3333 20.908 22.1051 21.4591 21.6987 21.8654C21.2924 22.2717 20.7413 22.5 20.1667 22.5H12.1667C11.592 22.5 11.0409 22.2717 10.6346 21.8654C10.2283 21.4591 10 20.908 10 20.3333V11.8333ZM20.1667 13.5H11V20.3333C11 20.9773 11.5227 21.5 12.1667 21.5H20.1667C20.4761 21.5 20.7728 21.3771 20.9916 21.1583C21.2104 20.9395 21.3333 20.6428 21.3333 20.3333V14.6667C21.3333 14.3572 21.2104 14.0605 20.9916 13.8417C20.7728 13.6229 20.4761 13.5 20.1667 13.5ZM19.6667 12.5V12C19.6667 11.8674 19.614 11.7402 19.5202 11.6464C19.4265 11.5527 19.2993 11.5 19.1667 11.5H11.5C11.3674 11.5 11.2402 11.5527 11.1464 11.6464C11.0527 11.7402 11 11.8674 11 12C11 12.1326 11.0527 12.2598 11.1464 12.3536C11.2402 12.4473 11.3674 12.5 11.5 12.5H19.6667Z" fill="white"/>
</svg>
