<svg width="17" height="22" viewBox="0 0 17 22" fill="none" xmlns="http://www.w3.org/2000/svg">
<path d="M15.1212 8.64311L8.86287 18.2911C8.28554 19.1811 7.37831 19.8054 6.34074 20.0265C5.30317 20.2476 4.22027 20.0475 3.33025 19.4701C2.44023 18.8928 1.816 17.9856 1.59489 16.948C1.37378 15.9104 1.5739 14.8275 2.15122 13.9375L8.95371 3.45057C9.31453 2.8943 9.88156 2.50416 10.53 2.36597C11.1785 2.22777 11.8553 2.35285 12.4116 2.71367C12.9679 3.0745 13.358 3.64152 13.4962 4.29C13.6344 4.93848 13.5093 5.6153 13.1485 6.17156L7.4344 14.9806C7.29007 15.2031 7.06326 15.3592 6.80386 15.4144C6.54447 15.4697 6.27375 15.4197 6.05124 15.2754C5.82874 15.131 5.67268 14.9042 5.6174 14.6448C5.56212 14.3854 5.61215 14.1147 5.75648 13.8922L10.9264 5.92212L9.66794 5.10582L4.49805 13.0759C4.13722 13.6322 4.01215 14.309 4.15034 14.9575C4.28854 15.6059 4.67868 16.173 5.23494 16.5338C5.79121 16.8946 6.46802 17.0197 7.1165 16.8815C7.76498 16.7433 8.332 16.3532 8.69283 15.7969L14.4069 6.98786C14.9842 6.09784 15.1844 5.01493 14.9633 3.97737C14.7421 2.9398 14.1179 2.03256 13.2279 1.45524C12.3379 0.877917 11.255 0.677799 10.2174 0.898909C9.17983 1.12002 8.2726 1.74425 7.69527 2.63427L0.892784 13.1212C0.0989658 14.345 -0.176196 15.834 0.12783 17.2606C0.431857 18.6873 1.29017 19.9348 2.51395 20.7286C3.73772 21.5224 5.22672 21.7976 6.65338 21.4935C8.08003 21.1895 9.32748 20.3312 10.1213 19.1074L16.3796 9.45941L15.1212 8.64311Z" fill="black"/>
</svg>
