<svg width="17" height="16" viewBox="0 0 17 16" fill="none" xmlns="http://www.w3.org/2000/svg">
<path d="M0.544449 2.76624L0.577614 5.54329L1.71628 5.84585C3.03182 6.21325 3.45191 6.39694 3.61774 6.6995C3.81673 7.05609 3.93833 7.95295 4.05994 9.7575C4.15943 11.3351 4.1926 11.5296 4.59058 12.567C4.82273 13.1721 5.23177 14.1446 5.49709 14.7389C6.0609 15.9707 6.27094 16.1328 6.87897 15.8519C7.66387 15.4845 7.7302 14.9118 7.32117 12.4049C7.08901 10.9461 7.17745 10.1897 7.67493 9.60622C8.82465 8.27712 11.5884 8.59049 13.1361 10.2438C13.722 10.8705 13.722 10.8489 13.5672 12.2536C13.4788 13.0964 13.4235 13.2585 13.1361 13.5503C12.506 14.2094 12.2406 14.6957 12.2406 15.2252C12.2406 15.5061 12.2959 15.787 12.3733 15.8627C12.6497 16.1328 13.2024 16.0032 13.9763 15.4845C15.3803 14.5444 15.2808 14.6849 15.8335 13.0424C16.5853 10.8381 16.5853 10.6976 15.8998 9.08755C15.5793 8.35276 15.1039 7.30462 14.8386 6.75353L14.3521 5.75941L11.8316 4.00889C7.7302 1.1562 7.7302 1.1562 5.77347 0.7672C4.11521 0.443031 1.24091 0 0.765549 0H0.522339L0.544449 2.76624Z" fill="#932F8F"/>
<path d="M7.92911 10.4274V10.9137H9.97428H12.0195V10.4274V9.94119H9.97428H7.92911V10.4274Z" fill="#932F8F"/>
<path d="M7.92911 11.616V12.1023H9.97428H12.0195V11.616V11.1298H9.97428H7.92911V11.616Z" fill="#932F8F"/>
<path d="M7.92911 12.8587V13.2909H9.97428H12.0195V12.8587V12.4264H9.97428H7.92911V12.8587Z" fill="#932F8F"/>
<path d="M7.92911 14.1014V14.5876H9.97428H12.0195V14.1014V13.6151H9.97428H7.92911V14.1014Z" fill="#932F8F"/>
<path d="M7.92911 15.29V15.7762H9.97428H12.0195V15.29V14.8037H9.97428H7.92911V15.29Z" fill="#932F8F"/>
</svg>
