<svg width="59" height="59" viewBox="0 0 59 59" fill="none" xmlns="http://www.w3.org/2000/svg">
<circle cx="29.5" cy="29.5" r="29.5" fill="#0257E6" fill-opacity="0.05"/>
<path d="M18.5062 21.6571L18.55 25.3286L20.0554 25.7286C21.7946 26.2143 22.35 26.4571 22.5692 26.8571C22.8323 27.3286 22.9931 28.5143 23.1539 30.9C23.2854 32.9857 23.3292 33.2428 23.8554 34.6143C24.1623 35.4143 24.7031 36.7 25.0539 37.4857C25.7992 39.1143 26.0769 39.3286 26.8808 38.9571C27.9185 38.4714 28.0062 37.7143 27.4654 34.4C27.1585 32.4714 27.2754 31.4714 27.9331 30.7C29.4531 28.9428 33.1069 29.3571 35.1531 31.5428C35.9277 32.3714 35.9277 32.3428 35.7231 34.2C35.6062 35.3143 35.5331 35.5286 35.1531 35.9143C34.32 36.7857 33.9692 37.4286 33.9692 38.1286C33.9692 38.5 34.0423 38.8714 34.1446 38.9714C34.51 39.3286 35.2408 39.1571 36.2639 38.4714C38.12 37.2286 37.9885 37.4143 38.7192 35.2428C39.7131 32.3286 39.7131 32.1428 38.8069 30.0143C38.3831 29.0428 37.7546 27.6571 37.4039 26.9286L36.7608 25.6143L33.4285 23.3C28.0062 19.5286 28.0062 19.5286 25.4192 19.0143C23.2269 18.5857 19.4269 18 18.7985 18H18.4769L18.5062 21.6571Z" fill="#932F8F"/>
<path d="M28.2693 31.7857V32.4285H30.9731H33.677V31.7857V31.1428H30.9731H28.2693V31.7857Z" fill="#932F8F"/>
<path d="M28.2693 33.3571V34H30.9731H33.677V33.3571V32.7143H30.9731H28.2693V33.3571Z" fill="#932F8F"/>
<path d="M28.2693 35V35.5714H30.9731H33.677V35V34.4286H30.9731H28.2693V35Z" fill="#932F8F"/>
<path d="M28.2693 36.6428V37.2857H30.9731H33.677V36.6428V36H30.9731H28.2693V36.6428Z" fill="#932F8F"/>
<path d="M28.2693 38.2143V38.8571H30.9731H33.677V38.2143V37.5714H30.9731H28.2693V38.2143Z" fill="#932F8F"/>
</svg>
