<svg width="37" height="37" viewBox="0 0 37 37" fill="none" xmlns="http://www.w3.org/2000/svg">
<rect width="37" height="37" rx="8" fill="white"/>
<g clip-path="url(#clip0_310_2883)">
<path d="M14.2899 10.0498C12.7758 10.3254 11.544 11.4842 11.1389 13.0182C11.0127 13.4863 10.9928 14.3197 11.0957 14.8111C11.4809 16.6871 13.0979 18.0152 14.9772 17.9986C15.5649 17.992 15.5616 17.9953 15.2428 17.723C14.592 17.1719 14.0707 16.3816 13.7852 15.515C13.5893 14.9307 13.5395 14.5588 13.5627 13.8582C13.5827 13.2373 13.6291 12.9484 13.8018 12.4371C14.0707 11.6303 14.6485 10.7769 15.276 10.249C15.4952 10.0664 15.5084 10.0465 15.4387 10.0266C15.3026 9.99003 14.5389 10.0033 14.2899 10.0498Z" fill="#932F8F"/>
<path d="M17.7762 10.0498C16.2621 10.3254 15.0303 11.4842 14.6252 13.0182C14.4991 13.4863 14.4791 14.3197 14.5821 14.8111C14.9672 16.6871 16.5842 18.0152 18.4635 17.9986C19.0512 17.992 19.0479 17.9953 18.7291 17.723C18.0784 17.1719 17.5571 16.3816 17.2715 15.515C17.0756 14.9307 17.0258 14.5588 17.0491 13.8582C17.069 13.2373 17.1155 12.9484 17.2881 12.4371C17.5571 11.6303 18.1348 10.7769 18.7623 10.249C18.9815 10.0664 18.9948 10.0465 18.925 10.0266C18.7889 9.99003 18.0252 10.0033 17.7762 10.0498Z" fill="#932F8F"/>
<path d="M21.04 10.0631C19.7418 10.4051 18.6925 11.3581 18.2343 12.6198C17.9222 13.4698 17.9189 14.5422 18.2211 15.3856C18.5564 16.312 19.2603 17.1254 20.1236 17.5836C20.4656 17.7596 21.03 17.9588 21.299 17.9887L21.4883 18.012V17.2018L21.4849 16.3917L21.3123 16.312C20.9238 16.1293 20.5718 15.6346 20.5353 15.2129L20.5154 15.0137H21.0035H21.4883V15.1034C21.4883 15.3292 21.714 15.5118 21.9863 15.5118C22.3017 15.5118 22.4843 15.3292 22.4843 15.0204C22.4843 14.675 22.3283 14.5422 21.8734 14.4858C21.3156 14.4194 20.8773 14.1106 20.6482 13.6292C20.5486 13.4167 20.542 13.3834 20.542 13.0215C20.542 12.6596 20.5486 12.6264 20.6482 12.4139C20.7777 12.1383 21.0666 11.8395 21.3123 11.7233L21.4849 11.6436L21.4883 10.8202V10L21.382 10.0034C21.3222 10.0034 21.1662 10.0299 21.04 10.0631Z" fill="#932F8F"/>
<path d="M22.4844 10.8168L22.4877 11.6436L22.6604 11.7233C23.0455 11.9059 23.4008 12.404 23.4373 12.819L23.4572 13.0215H22.9691H22.4844V12.9286C22.4844 12.7061 22.2586 12.5235 21.9863 12.5235C21.6709 12.5235 21.4883 12.7061 21.4883 13.0182C21.4883 13.2208 21.5646 13.3735 21.7107 13.4598C21.7605 13.4897 21.9365 13.5295 22.0992 13.5495C22.657 13.6159 23.0953 13.9247 23.3244 14.4061C23.424 14.6186 23.4307 14.6518 23.4307 15.0137C23.4307 15.3823 23.4273 15.4055 23.3178 15.628C23.1783 15.9102 22.9027 16.1991 22.6604 16.312L22.4877 16.3917L22.4844 17.2018V18.012L22.667 17.9887C23.1352 17.9356 23.9021 17.6036 24.3604 17.2616C25.0775 16.7237 25.6287 15.9036 25.8611 15.0237C25.9773 14.5854 26.0072 13.7553 25.9209 13.3038C25.6885 12.052 24.9248 11.0028 23.8125 10.4018C23.5104 10.2424 22.9359 10.0432 22.6736 10.0133L22.4844 9.99009V10.8168Z" fill="#932F8F"/>
<path d="M10 22.9824V25.9707H10.9961H11.9922V22.9824V19.9941H10.9961H10V22.9824Z" fill="#932F8F"/>
<path d="M14.4824 20.0439C14.1504 20.117 13.8051 20.2498 13.3801 20.4623L12.9883 20.6582V22.7467C12.9883 24.3869 12.9982 24.8385 13.0314 24.8518C13.0514 24.8584 14.0873 25.2801 15.3291 25.7814C16.5709 26.2828 17.6898 26.7244 17.816 26.7643C18.3207 26.9203 18.666 26.9701 19.3035 26.99C20.2199 27.0166 20.8375 26.9203 21.5746 26.6314C21.7672 26.5584 23.0588 25.9242 24.4533 25.2236L26.9834 23.9486V23.59C26.9834 23.2547 26.9768 23.2182 26.8838 23.0555C26.751 22.8131 26.482 22.574 26.243 22.4844C26.0836 22.4246 26.0039 22.4146 25.7383 22.4246L25.4229 22.4379L22.9193 23.693C21.1729 24.5662 20.3959 24.9414 20.3461 24.9281C20.3063 24.9182 19.5293 24.6227 18.6129 24.2707L16.9527 23.6332L17.1188 23.1916C17.2117 22.9492 17.2947 22.75 17.3047 22.75C17.3146 22.75 18.002 23.0123 18.832 23.3311C19.9443 23.7594 20.3461 23.8988 20.366 23.8689C20.3793 23.849 20.4391 23.7096 20.4988 23.5635C20.6416 23.2049 20.6648 22.7367 20.5619 22.4379C20.4324 22.0727 20.21 21.7971 19.8912 21.6111C19.6953 21.4982 16.4813 20.2133 16.116 20.1037C15.8637 20.0273 15.7574 20.0174 15.2627 20.0074C14.8543 19.9975 14.6385 20.0107 14.4824 20.0439Z" fill="#932F8F"/>
<path d="M22.594 20.6582C22.3615 20.7014 22.159 20.7844 21.5448 21.0832L21.0201 21.3389L21.143 21.5049C21.4385 21.91 21.5879 22.3848 21.5879 22.926V23.2812L23.1485 22.501C24.0084 22.0727 24.709 21.7074 24.709 21.6941C24.709 21.5646 24.2408 21.0666 23.9686 20.9105C23.5867 20.6848 23.019 20.5818 22.594 20.6582Z" fill="#932F8F"/>
</g>
<defs>
<clipPath id="clip0_310_2883">
<rect width="17" height="17" fill="white" transform="translate(10 10)"/>
</clipPath>
</defs>
</svg>
