<svg width="19" height="16" viewBox="0 0 19 16" fill="none" xmlns="http://www.w3.org/2000/svg">
<path d="M2.39179 0.162228C2.17291 0.335922 2.16416 0.396715 2.13789 1.23045L2.11163 2.10761L1.71766 2.18577C0.912219 2.3421 0.667084 2.7937 0.667084 4.13984C0.667084 5.12122 0.789651 5.71178 1.12233 6.37182C1.38498 6.88422 2.39179 7.8048 2.99587 8.0914C3.27602 8.23035 3.57369 8.36931 3.64373 8.40405C3.75754 8.46484 3.7838 8.84697 3.81882 10.7229C3.85384 12.5467 3.89762 13.0417 4.01143 13.337C4.3266 14.1273 4.93944 14.77 5.71862 15.1174C6.06006 15.265 6.31395 15.3084 7.01433 15.3084C7.81102 15.3171 7.93359 15.291 8.40635 15.0652C9.07172 14.7439 9.55324 14.2402 9.89467 13.5367L10.1661 12.9722L10.2098 9.15094C10.2449 6.4413 10.2886 5.26017 10.3674 5.08648C10.6388 4.46117 11.1816 3.93141 11.7069 3.7664C12.0133 3.67086 12.7137 3.7056 13.0289 3.83587C13.4579 4.01825 13.8694 4.3917 14.0795 4.79988C14.2546 5.1299 14.2633 5.26886 14.2458 6.84079C14.2371 7.77006 14.2108 8.56037 14.1845 8.59511C14.167 8.62985 14.0182 8.69064 13.8606 8.72538C12.9238 8.92513 11.7857 9.83703 11.383 10.7142C10.7001 12.1819 10.9803 13.8146 12.1096 14.9002C13.633 16.3766 15.953 16.368 17.5201 14.8655C19.5425 12.9201 18.6232 9.5157 15.8655 8.72538L15.5065 8.62117L15.4978 6.8929C15.489 5.83336 15.4452 4.99963 15.3752 4.76514C14.7536 2.48974 11.777 1.72548 10.0785 3.41901C9.6758 3.80982 9.27308 4.5046 9.14176 5.02568C9.09798 5.19069 9.04545 6.98843 9.01919 9.02066C8.97542 12.4685 8.95791 12.7377 8.79156 13.0764C8.3976 13.9189 7.47834 14.3531 6.55033 14.1447C6.14761 14.0578 5.98127 13.9623 5.61356 13.5888C5.02699 13.007 4.98321 12.7725 4.9657 10.4189C4.94819 8.29115 4.90442 8.43879 5.69236 8.06534C6.35772 7.75269 7.26822 6.84079 7.60091 6.16338C7.88982 5.59019 7.88982 5.58151 7.88982 4.22669V2.8545L7.61842 2.58527C7.44332 2.42026 7.17192 2.27262 6.91803 2.20314L6.48905 2.09892L6.44527 1.22177C6.39274 0.231706 6.29644 0.0493259 5.83243 0.0493259C5.36843 0.0493259 5.27212 0.231706 5.21959 1.23045L5.17582 2.11629L4.30909 2.14235C3.66999 2.15972 3.4161 2.13366 3.36357 2.0555C3.32855 1.99471 3.31104 1.7168 3.34606 1.4302C3.4161 0.657258 3.32855 0.266444 3.03089 0.118804C2.70696 -0.0462055 2.66318 -0.0462055 2.39179 0.162228ZM16.0055 9.75018C16.6797 10.0715 17.0561 10.4102 17.345 10.9834C17.5814 11.4437 17.6077 11.574 17.5989 12.2774C17.5989 13.2328 17.4238 13.6583 16.8197 14.2402C16.2069 14.8308 15.7254 15.0479 14.9375 15.0826C13.738 15.1434 12.8013 14.5963 12.2235 13.5194C11.9696 13.0417 11.9258 12.8941 11.9258 12.3209C11.917 11.8172 11.9696 11.5653 12.1184 11.2353C12.3373 10.7576 12.9939 10.0368 13.4054 9.82835C14.202 9.41148 15.2176 9.37674 16.0055 9.75018Z" fill="#932F8F"/>
<path d="M14.0271 10.3929C13.9483 10.5232 13.7644 12.6336 13.8257 12.7812C13.8607 12.8854 13.9833 12.9288 14.1934 12.9288C14.3598 12.9288 14.4998 12.9636 14.4998 13.007C14.4998 13.0504 14.386 13.4065 14.246 13.7973C14.0358 14.3879 14.0183 14.5095 14.1234 14.5529C14.1934 14.5789 14.3072 14.5181 14.3948 14.3966C14.4736 14.2837 14.7012 13.9971 14.8938 13.7539C15.6817 12.7899 16.0757 12.2427 16.0757 12.1125C16.0757 12.0083 15.9794 11.9735 15.638 11.9735C15.1302 11.9735 15.1214 11.9648 15.3753 11.1745C15.6555 10.2974 15.6642 10.3234 14.815 10.3234C14.4035 10.3234 14.0534 10.3582 14.0271 10.3929Z" fill="#932F8F"/>
</svg>
