<svg width="59" height="59" viewBox="0 0 59 59" fill="none" xmlns="http://www.w3.org/2000/svg">
<circle cx="29.5" cy="29.5" r="29.5" fill="#0257E6" fill-opacity="0.05"/>
<path d="M19.9761 16.9929C19.7541 17.0469 19.5801 17.1489 19.3851 17.3319C19.2201 17.4939 19.0581 17.7609 19.0191 17.9469C18.9921 18.0609 18.9951 22.1649 19.0191 22.2879C19.0881 22.6269 19.3881 22.9929 19.7361 23.1639L19.9461 23.2659L27.3261 23.2749C34.0101 23.2809 34.7181 23.2779 34.8711 23.2329C35.3121 23.1069 35.5881 22.8369 35.7741 22.3509C35.8071 22.2669 35.8161 21.8349 35.8161 20.1159C35.8161 17.8509 35.8221 17.9589 35.6721 17.6409C35.5881 17.4669 35.3481 17.2299 35.1531 17.1249C34.8081 16.9389 35.3451 16.9509 27.3861 16.9539C21.7221 16.9569 20.0931 16.9629 19.9761 16.9929ZM22.2861 18.4089C22.3611 18.4899 22.3611 18.4959 22.3611 19.0539C22.3611 19.3659 22.3701 19.6209 22.3851 19.6209C22.3971 19.6209 22.4571 19.5879 22.5171 19.5459C22.5771 19.5039 22.6371 19.4709 22.6461 19.4709C22.6551 19.4709 22.7601 19.4109 22.8801 19.3389C22.9971 19.2669 23.1651 19.1709 23.2521 19.1289C23.3991 19.0509 23.4111 19.0479 23.5011 19.0959C23.6601 19.1769 23.6811 19.3539 23.5431 19.4739C23.5101 19.5039 23.4321 19.5549 23.3661 19.5909C22.9791 19.8039 22.6011 20.0259 22.6011 20.0409C22.6011 20.0559 22.6401 20.0769 23.0061 20.2809C23.1051 20.3349 23.2221 20.4039 23.2671 20.4369C23.3091 20.4669 23.3541 20.4909 23.3631 20.4909C23.3751 20.4909 23.4351 20.5239 23.5011 20.5659C23.6121 20.6349 23.6211 20.6529 23.6211 20.7759C23.6211 20.8779 23.6061 20.9169 23.5551 20.9529C23.4531 21.0249 23.3481 21.0099 23.1531 20.8929C23.0571 20.8329 22.9101 20.7489 22.8261 20.7039C22.7451 20.6559 22.6041 20.5779 22.5201 20.5269L22.3611 20.4339V21.0129V21.5919L22.2831 21.6729C22.1871 21.7659 22.0971 21.7719 21.9891 21.6879L21.9111 21.6279V21.0429C21.9111 20.6739 21.8991 20.4609 21.8811 20.4609C21.8631 20.4609 21.6381 20.5809 21.3771 20.7309C21.1011 20.8899 20.8701 21.0009 20.8221 21.0009C20.7081 21.0009 20.6211 20.9049 20.6211 20.7759C20.6211 20.6619 20.6751 20.5989 20.8521 20.5029C20.9841 20.4309 21.1191 20.3529 21.3111 20.2389C21.3861 20.1969 21.4911 20.1369 21.5451 20.1099C21.5961 20.0829 21.6411 20.0529 21.6411 20.0409C21.6411 20.0259 21.4341 19.8969 21.1761 19.7529C21.1431 19.7349 21.0621 19.6899 20.9961 19.6509C20.9301 19.6149 20.8371 19.5609 20.7861 19.5309C20.7381 19.5039 20.6721 19.4379 20.6421 19.3869C20.5911 19.3029 20.5911 19.2879 20.6331 19.2069C20.6601 19.1559 20.7201 19.1019 20.7681 19.0869C20.8461 19.0599 20.8821 19.0659 21.0321 19.1469C21.1281 19.1979 21.2421 19.2639 21.2871 19.2939C21.3291 19.3269 21.3741 19.3509 21.3831 19.3509C21.3951 19.3509 21.5031 19.4109 21.6231 19.4859C21.7461 19.5609 21.8601 19.6209 21.8781 19.6209C21.9021 19.6209 21.9111 19.4289 21.9111 19.0239C21.9111 18.4389 21.9141 18.4239 21.9771 18.3789C22.0791 18.3069 22.2021 18.3189 22.2861 18.4089ZM25.7961 18.4059C25.8711 18.4779 25.8711 18.4839 25.8711 19.0509C25.8711 19.3629 25.8771 19.6209 25.8861 19.6209C25.8951 19.6209 26.1261 19.4919 26.4021 19.3359C26.7531 19.1349 26.9211 19.0569 26.9661 19.0689C27.0561 19.0929 27.1611 19.2249 27.1611 19.3089C27.1611 19.4169 27.0741 19.4829 26.5791 19.7649C26.3361 19.9029 26.1411 20.0289 26.1471 20.0469C26.1531 20.0619 26.2251 20.1129 26.3061 20.1579C26.4561 20.2419 26.5881 20.3169 26.7951 20.4369C26.8551 20.4729 26.9421 20.5209 26.9871 20.5419C27.0921 20.5959 27.1611 20.6919 27.1611 20.7849C27.1611 20.8779 27.0321 21.0009 26.9361 21.0009C26.8941 21.0009 26.6601 20.8869 26.4171 20.7489C26.1741 20.6079 25.9521 20.4849 25.9251 20.4759C25.8741 20.4549 25.8711 20.4939 25.8711 21.0279C25.8711 21.5979 25.8711 21.6039 25.7961 21.6759C25.7061 21.7659 25.6041 21.7719 25.4991 21.6879L25.4211 21.6279V21.0429C25.4211 20.7159 25.4091 20.4609 25.3941 20.4609C25.3671 20.4609 25.2591 20.5209 24.7251 20.8329C24.5631 20.9259 24.3981 21.0009 24.3531 21.0009C24.1881 21.0009 24.0831 20.8179 24.1611 20.6709C24.1881 20.6229 24.5091 20.4189 24.8841 20.2119C25.0851 20.1009 25.1511 20.0589 25.1511 20.0349C25.1511 20.0259 24.9531 19.9029 24.7131 19.7649C24.2211 19.4859 24.1311 19.4139 24.1311 19.3119C24.1311 19.2249 24.2301 19.0929 24.3141 19.0659C24.3741 19.0449 24.5631 19.1379 25.0971 19.4559C25.2501 19.5459 25.3851 19.6209 25.3971 19.6209C25.4091 19.6209 25.4211 19.3629 25.4211 19.0449C25.4211 18.4959 25.4241 18.4659 25.4871 18.3999C25.5741 18.3069 25.7031 18.3099 25.7961 18.4059ZM29.3121 18.3969C29.3811 18.4599 29.3811 18.4749 29.3811 19.0449C29.3811 19.5849 29.3841 19.6269 29.4321 19.6089C29.4621 19.5969 29.6991 19.4649 29.9571 19.3179C30.4581 19.0329 30.4941 19.0209 30.6111 19.1499C30.7251 19.2699 30.6801 19.4229 30.5001 19.5309C30.3261 19.6359 30.0321 19.8039 29.8311 19.9149C29.7561 19.9539 29.6841 20.0019 29.6661 20.0169C29.6331 20.0469 29.6421 20.0529 29.9211 20.2089C30.0111 20.2599 30.1581 20.3439 30.2451 20.3949C30.3321 20.4489 30.4131 20.4909 30.4251 20.4909C30.4371 20.4909 30.4971 20.5329 30.5601 20.5839C30.6951 20.6949 30.7131 20.8329 30.6051 20.9319C30.4671 21.0549 30.4791 21.0579 29.8311 20.6859C29.6181 20.5629 29.4291 20.4609 29.4111 20.4609C29.3931 20.4609 29.3811 20.6619 29.3811 21.0429V21.6279L29.3001 21.6909C29.2011 21.7689 29.0631 21.7539 28.9851 21.6579C28.9371 21.6009 28.9311 21.5229 28.9311 21.0279C28.9311 20.7159 28.9191 20.4609 28.9041 20.4609C28.8891 20.4609 28.6701 20.5809 28.4181 20.7309C28.1361 20.8959 27.9231 21.0009 27.8721 21.0009C27.7701 21.0009 27.6411 20.8809 27.6411 20.7849C27.6441 20.6529 27.7611 20.5659 28.4811 20.1699C28.6911 20.0529 28.7061 20.0289 28.6101 19.9779C28.5651 19.9569 28.4601 19.8969 28.3761 19.8489C28.0971 19.6899 28.0161 19.6419 27.8991 19.5789C27.6021 19.4169 27.5571 19.2159 27.7941 19.0959C27.8991 19.0389 27.8601 19.0239 28.4721 19.3749C28.7061 19.5099 28.9071 19.6209 28.9161 19.6209C28.9251 19.6209 28.9311 19.3629 28.9311 19.0509C28.9311 18.4839 28.9311 18.4779 29.0061 18.4059C29.0961 18.3129 29.2191 18.3099 29.3121 18.3969ZM32.8461 18.4089C32.9211 18.4899 32.9211 18.4959 32.9211 19.0539C32.9211 19.3659 32.9331 19.6209 32.9451 19.6209C32.9571 19.6209 32.9811 19.6089 32.9991 19.5939C33.0141 19.5789 33.0861 19.5339 33.1611 19.4949C33.2361 19.4529 33.4431 19.3359 33.6231 19.2309L33.9501 19.0449L34.0521 19.0929C34.2741 19.1979 34.2411 19.4079 33.9741 19.5579C33.4731 19.8399 33.1611 20.0259 33.1611 20.0409C33.1611 20.0499 33.2061 20.0829 33.2601 20.1099C33.3111 20.1369 33.4251 20.1999 33.5061 20.2509C33.5901 20.2989 33.7281 20.3769 33.8181 20.4219C34.0761 20.5569 34.1901 20.6709 34.1871 20.7909C34.1841 20.9139 34.0941 21.0009 33.9741 21.0009C33.9051 21.0009 33.6051 20.8419 33.0801 20.5269L32.9211 20.4339V21.0099C32.9211 21.5499 32.9181 21.5949 32.8611 21.6549C32.7681 21.7539 32.6601 21.7689 32.5671 21.6999L32.4861 21.6399L32.4771 21.0489C32.4741 20.6889 32.4591 20.4609 32.4411 20.4609C32.4231 20.4609 32.1981 20.5809 31.9371 20.7309C31.3791 21.0489 31.2921 21.0669 31.1931 20.8749C31.1571 20.8029 31.1541 20.7669 31.1811 20.7039C31.2111 20.6259 31.2441 20.5989 31.4391 20.4879C31.5921 20.4009 31.7211 20.3289 31.8861 20.2329C31.9701 20.1849 32.0721 20.1249 32.1201 20.1039C32.1651 20.0799 32.2011 20.0529 32.2011 20.0409C32.2011 20.0229 32.0091 19.9059 31.6911 19.7319C31.6011 19.6839 31.4901 19.6179 31.4451 19.5849C31.4031 19.5549 31.3521 19.5309 31.3341 19.5309C31.3191 19.5309 31.2681 19.4829 31.2231 19.4259C31.1511 19.3299 31.1481 19.3119 31.1811 19.2309C31.2261 19.1259 31.3611 19.0419 31.4421 19.0719C31.4721 19.0809 31.6911 19.2039 31.9311 19.3389C32.1711 19.4769 32.3901 19.5969 32.4201 19.6059C32.4681 19.6269 32.4711 19.5879 32.4711 19.0389C32.4711 18.4899 32.4741 18.4479 32.5311 18.3909C32.6181 18.3039 32.7591 18.3129 32.8461 18.4089Z" fill="#932F8F"/>
<path d="M20.6122 24.3729C20.4682 24.4269 20.4202 24.4689 20.3152 24.6279L20.2312 24.7629V26.1789C20.2312 27.7179 20.2312 27.7149 20.4022 27.8769C20.5852 28.0509 20.5852 28.0509 22.0912 28.0509C23.2702 28.0509 23.4892 28.0449 23.5852 28.0059C23.7262 27.9459 23.8222 27.8559 23.8942 27.7149C23.9482 27.6099 23.9512 27.5199 23.9512 26.1999C23.9512 24.8019 23.9512 24.7929 23.8852 24.6609C23.8462 24.5889 23.7652 24.4869 23.7022 24.4389L23.5852 24.3459L22.1572 24.3399C21.0082 24.3339 20.7052 24.3399 20.6122 24.3729Z" fill="#932F8F"/>
<path d="M26.0361 24.3459C26.0211 24.3519 25.9701 24.3639 25.9251 24.3729C25.8141 24.3969 25.6701 24.5259 25.6011 24.6639C25.5441 24.7719 25.5411 24.8469 25.5411 26.1909C25.5411 27.5199 25.5441 27.6099 25.5981 27.7149C25.6701 27.8559 25.7661 27.9459 25.9071 28.0059C26.0031 28.0449 26.2221 28.0509 27.4071 28.0509C28.6941 28.0509 28.8051 28.0449 28.9191 27.9939C29.0811 27.9189 29.2221 27.7449 29.2611 27.5649C29.3061 27.3519 29.3031 24.9699 29.2551 24.7869C29.2071 24.5979 28.9911 24.3789 28.8261 24.3519C28.7061 24.3309 26.0931 24.3279 26.0361 24.3459Z" fill="#932F8F"/>
<path d="M31.3012 24.3579C31.1512 24.3939 31.0252 24.4869 30.9382 24.6249L30.8512 24.7629V26.1939V27.6249L30.9502 27.7689C31.0132 27.8649 31.0942 27.9399 31.1812 27.9819C31.3132 28.0509 31.3222 28.0509 32.6842 28.0509C33.4372 28.0509 34.0972 28.0419 34.1482 28.0329C34.1992 28.0209 34.3012 27.9609 34.3732 27.8979C34.6012 27.6969 34.6012 27.6879 34.6012 26.1969C34.6012 25.2579 34.5922 24.8589 34.5652 24.7689C34.5112 24.5949 34.2892 24.3759 34.1362 24.3519C33.9832 24.3249 31.4032 24.3309 31.3012 24.3579Z" fill="#932F8F"/>
<path d="M20.7052 29.6679C20.5432 29.7009 20.3752 29.8239 20.3002 29.9709C20.2312 30.0969 20.2312 30.1029 20.2312 31.5159C20.2312 32.9229 20.2312 32.9349 20.2972 33.0579C20.3842 33.2229 20.5822 33.3519 20.7802 33.3759C20.8672 33.3849 21.5182 33.3909 22.2292 33.3849L23.5222 33.3759L23.6662 33.2859C23.7622 33.2259 23.8342 33.1509 23.8822 33.0639L23.9512 32.9319V31.5159V30.0999L23.8822 29.9679C23.8342 29.8809 23.7622 29.8059 23.6662 29.7459L23.5222 29.6559L22.1692 29.6499C21.4252 29.6499 20.7652 29.6559 20.7052 29.6679Z" fill="#932F8F"/>
<path d="M26.0181 29.6679C25.8831 29.6949 25.7211 29.7969 25.6611 29.8869C25.5381 30.0789 25.5411 30.0519 25.5411 31.5159C25.5411 32.9169 25.5411 32.9379 25.6071 33.0579C25.6821 33.1989 25.8471 33.3249 26.0121 33.3639C26.0751 33.3789 26.3181 33.3909 26.5551 33.3909C26.9031 33.3909 26.9811 33.3819 26.9811 33.3489C26.9811 33.3249 26.9721 33.3009 26.9601 33.2949C26.9181 33.2799 26.6631 32.9319 26.5851 32.7909C26.3421 32.3469 26.3811 31.7619 26.6811 31.3209C26.8221 31.1169 26.9211 31.0239 27.1221 30.9069C27.4581 30.7089 27.8571 30.6459 28.1961 30.7359C28.5771 30.8349 28.8291 31.0179 29.1201 31.4049C29.2191 31.5399 29.2671 31.5819 29.2791 31.5519C29.2881 31.5279 29.2911 31.1979 29.2851 30.8199C29.2761 30.1509 29.2731 30.1299 29.1981 29.9859C29.1441 29.8809 29.0811 29.8089 28.9761 29.7459L28.8321 29.6559L27.4791 29.6499C26.7351 29.6499 26.0781 29.6559 26.0181 29.6679Z" fill="#932F8F"/>
<path d="M31.3762 29.6589C31.3432 29.6679 31.2862 29.6799 31.2472 29.6889C31.1482 29.7099 30.9442 29.9049 30.8932 30.0249C30.8602 30.1089 30.8512 30.3789 30.8512 31.5489C30.8512 32.3319 30.8602 32.9709 30.8692 32.9709C30.8782 32.9709 30.9592 32.9049 31.0462 32.8269C31.2982 32.5959 31.6942 32.4339 32.0062 32.4339C32.1322 32.4339 32.3932 32.4909 32.5462 32.5479C32.6212 32.5779 32.6392 32.5779 32.6722 32.5329C32.6932 32.5029 32.7112 32.4639 32.7112 32.4489C32.7082 32.3649 32.8942 32.0709 33.0412 31.9239C33.2812 31.6809 33.5872 31.5369 33.9142 31.5129C34.1422 31.4949 34.3372 31.5159 34.5352 31.5759L34.6012 31.5969V30.8829L34.5982 30.1659L34.5172 30.0009C34.4542 29.8749 34.4002 29.8149 34.2892 29.7459L34.1422 29.6559L32.7892 29.6499C32.0452 29.6499 31.4092 29.6529 31.3762 29.6589Z" fill="#932F8F"/>
<path d="M35.8371 31.2699C35.5611 31.3749 35.3781 31.6509 35.3781 31.9659C35.3781 32.2059 35.4231 32.3049 35.7471 32.7369C35.8881 32.9229 36.1461 33.2709 36.3261 33.5079C36.5031 33.7479 36.6681 33.9879 36.6921 34.0449C36.7491 34.1799 36.7011 34.3239 36.5691 34.4259C36.3771 34.5729 36.2211 34.5129 35.9901 34.2099C35.9031 34.0989 35.7291 33.8709 35.6001 33.7059C35.4741 33.5409 35.2221 33.2109 35.0421 32.9709C34.6461 32.4459 34.5621 32.3529 34.4091 32.2749C34.2561 32.1969 34.0071 32.1729 33.8361 32.2209C33.6741 32.2659 33.4521 32.4519 33.3801 32.6049C33.3081 32.7519 33.3081 33.1299 33.3771 33.2559C33.4041 33.3069 33.5751 33.5409 33.7581 33.7809C33.9411 34.0209 34.1631 34.3089 34.2501 34.4229C34.3341 34.5339 34.4211 34.6419 34.4361 34.6629C34.5201 34.7529 34.9431 35.3349 34.9701 35.3919C35.0151 35.4909 34.9701 35.6499 34.8681 35.7489C34.7571 35.8569 34.5861 35.8659 34.4601 35.7729C34.4151 35.7369 34.0761 35.3199 33.7101 34.8429C32.4531 33.2109 32.5251 33.3009 32.3871 33.2289C32.2101 33.1389 32.0481 33.1149 31.8711 33.1509C31.3281 33.2679 31.0971 33.8619 31.4211 34.3269C31.5111 34.4589 31.7841 34.8129 32.1681 35.2959C32.3241 35.4939 32.5131 35.7339 32.5881 35.8329C32.6631 35.9289 32.7801 36.0759 32.8491 36.1629C33.2091 36.6129 33.2811 36.7269 33.2811 36.8439C33.2811 36.9369 33.2601 36.9819 33.1761 37.0659C33.0861 37.1529 33.0471 37.1709 32.9421 37.1709C32.7831 37.1709 32.7261 37.1229 32.4351 36.7509C32.3121 36.5949 32.1051 36.3279 31.9731 36.1629C31.8441 35.9949 31.7001 35.8119 31.6581 35.7579C31.6131 35.7009 31.4931 35.5479 31.3881 35.4129C31.2831 35.2779 31.1631 35.1249 31.1211 35.0709C31.0791 35.0169 30.9171 34.8069 30.7581 34.6089C30.2211 33.9279 29.9961 33.6399 29.9211 33.5409C29.8791 33.4869 29.7861 33.3639 29.7111 33.2709C29.6361 33.1749 29.5401 33.0519 29.4981 32.9979C28.3701 31.5549 28.3731 31.5549 28.1961 31.4619C28.0281 31.3749 27.7041 31.3749 27.5331 31.4649C27.3891 31.5399 27.2301 31.7079 27.1701 31.8579C27.1041 32.0139 27.1101 32.2689 27.1821 32.4309C27.2151 32.5059 27.3321 32.6799 27.4431 32.8209C27.6231 33.0549 27.8001 33.2769 28.5801 34.2699C28.7241 34.4559 28.9011 34.6809 28.9701 34.7709C29.0421 34.8609 29.2551 35.1309 29.4411 35.3709C29.6301 35.6109 29.8311 35.8689 29.8881 35.9439C29.9481 36.0189 30.1791 36.3159 30.4071 36.6039C30.6321 36.8919 31.0221 37.3899 31.2771 37.7139C31.5291 38.0379 31.8771 38.4819 32.0511 38.7009C32.4291 39.1839 32.4381 39.1989 32.4411 39.3309C32.4411 39.4599 32.3211 39.6099 32.1801 39.6549C32.1051 39.6789 32.0631 39.6759 31.9671 39.6249C31.8981 39.5949 31.8261 39.5349 31.7991 39.4989C31.7751 39.4599 31.6161 39.2529 31.4451 39.0369C31.2741 38.8209 31.0071 38.4819 30.8511 38.2809C30.6951 38.0799 30.4521 37.7709 30.3111 37.5909C30.1701 37.4139 30.0261 37.2309 29.9931 37.1829L29.9271 37.0959L29.8521 37.1769C29.7381 37.2969 29.6091 37.4949 29.5281 37.6659C29.4651 37.7949 29.4561 37.8609 29.4561 38.1459C29.4561 38.4579 29.4621 38.4849 29.5551 38.6709C29.7561 39.0759 30.0891 39.4419 30.7131 39.9369C31.5381 40.5969 32.6811 41.2299 33.5811 41.5209C33.7251 41.5659 34.0401 41.6859 34.2261 41.7609C34.2591 41.7759 34.4811 41.8629 34.7181 41.9559C34.9581 42.0489 35.2131 42.1599 35.2881 42.2019C35.4531 42.2919 35.6661 42.4929 35.8521 42.7299C36.0111 42.9339 36.1281 43.0029 36.3141 42.9999C36.4701 42.9969 36.5121 42.9729 36.9861 42.6009C37.1361 42.4839 37.3821 42.2919 37.5351 42.1719C38.0181 41.7999 38.1411 41.7039 38.9691 41.0559C39.7851 40.4169 40.0971 40.1739 40.4121 39.9309C40.8981 39.5559 41.1831 39.3159 41.2341 39.2289C41.3001 39.1209 41.3091 38.9529 41.2551 38.8299C41.2341 38.7849 41.1261 38.6259 41.0151 38.4789C40.7571 38.1339 40.6911 37.9329 40.6911 37.5069C40.6911 37.3389 40.6761 37.1379 40.6581 37.0599C40.5381 36.5589 40.3581 36.1569 40.1091 35.8419C39.4671 35.0259 37.9701 33.1119 37.6041 32.6469C36.7911 31.6029 36.5931 31.3689 36.4761 31.3089C36.3321 31.2339 35.9871 31.2129 35.8371 31.2699Z" fill="#932F8F"/>
<path d="M20.5762 35.0319C20.4442 35.1009 20.3542 35.1909 20.2882 35.3169C20.2342 35.4219 20.2312 35.5119 20.2312 36.8409C20.2312 38.1849 20.2342 38.2599 20.2912 38.3679C20.3632 38.5119 20.5012 38.6289 20.6452 38.6709C20.7142 38.6889 21.2722 38.7009 22.1212 38.7009C23.3842 38.7009 23.4952 38.6949 23.6062 38.6439C23.7652 38.5719 23.8582 38.4639 23.9182 38.2899C23.9602 38.1639 23.9632 37.9779 23.9512 36.7449L23.9362 35.3469L23.8432 35.2299C23.7922 35.1669 23.6992 35.0859 23.6332 35.0499C23.5162 34.9809 23.5102 34.9809 22.0912 34.9839C20.8522 34.9839 20.6542 34.9899 20.5762 35.0319Z" fill="#932F8F"/>
<path d="M25.8861 35.0319C25.8381 35.0559 25.7571 35.1129 25.7121 35.1579C25.5411 35.3139 25.5411 35.3139 25.5411 36.8529C25.5411 38.2599 25.5411 38.2659 25.6101 38.3859C25.6461 38.4489 25.7361 38.5449 25.8051 38.5959L25.9371 38.6859H27.3651C28.7781 38.6859 28.7961 38.6859 28.7901 38.6259C28.7841 38.5929 28.7661 38.4699 28.7481 38.3529C28.6791 37.9029 28.8681 37.2849 29.1951 36.8979C29.2641 36.8139 29.2761 36.7689 29.2881 36.5679C29.2941 36.4269 29.2821 36.3129 29.2611 36.2709C29.2281 36.2109 28.7811 35.6289 28.4121 35.1669L28.2621 34.9809H27.1191C26.1381 34.9839 25.9641 34.9899 25.8861 35.0319Z" fill="#932F8F"/>
</svg>
