<svg width="23" height="24" viewBox="0 0 23 24" fill="none" xmlns="http://www.w3.org/2000/svg">
<path d="M13.163 11.9123V23.3154L13.0492 23.297C12.9847 23.2878 12.4619 23.1893 11.8868 23.0786C9.40196 22.5989 8.07959 22.3436 7.71979 22.276C6.64652 22.0699 5.77006 21.9039 4.92129 21.7378C4.40464 21.6363 3.47284 21.458 2.84548 21.338C1.46776 21.0736 1.04337 20.9936 0.462144 20.8798C0.216122 20.8337 0.0100789 20.7999 0.000853116 20.806C-0.00529743 20.8122 0.02238 20.8491 0.0654338 20.889C0.117713 20.9382 0.219197 20.9751 0.400639 21.009C0.545176 21.0367 0.843478 21.092 1.06182 21.1351C1.28324 21.1781 2.07666 21.3319 2.8301 21.4764C3.58355 21.621 4.55841 21.8085 4.99817 21.8947C5.43794 21.9777 6.01301 22.0884 6.27441 22.1407C6.53581 22.1899 6.92329 22.2637 7.13549 22.3067C8.07037 22.4851 9.20207 22.7035 10.2415 22.9033C11.447 23.134 12.2712 23.2939 12.8893 23.4138C13.1015 23.4569 13.283 23.4907 13.2953 23.4907C13.3076 23.4907 13.3168 18.3519 13.3168 12.0722V0.650675L13.2399 0.579945L13.163 0.509212V11.9123Z" fill="#932F8F"/>
<path d="M12.7941 0.632267C12.6834 0.650719 12.4159 0.702997 12.1945 0.746052C11.9761 0.789106 11.5794 0.865988 11.318 0.915192C11.0566 0.964396 10.4754 1.07818 10.0264 1.16429C9.5774 1.2504 9.03922 1.35496 8.82703 1.39493C8.61484 1.43491 8.22735 1.50872 7.96595 1.561C7.07413 1.73321 3.15623 2.48666 2.10756 2.68962C1.53248 2.80033 0.840548 2.93257 0.569924 2.98792L0.0778809 3.08633V11.8785V20.6738L0.569924 20.7692C0.840548 20.8214 1.17883 20.8891 1.32337 20.9168C1.4679 20.9414 1.9784 21.0398 2.46122 21.1351C3.94657 21.4211 4.93681 21.6118 5.69025 21.7563C6.08696 21.8301 6.47445 21.907 6.55133 21.9224C6.62821 21.9378 6.98802 22.0085 7.3509 22.0761C7.71378 22.1469 8.21198 22.2422 8.458 22.2883C10.6291 22.7127 13.0094 23.1617 13.0156 23.1494C13.0217 23.1433 13.0186 18.066 13.0094 11.8662L12.994 0.595364L12.7941 0.632267ZM10.6906 7.36404C10.746 7.43477 10.7183 7.49627 10.4016 8.016C9.10996 10.1441 8.08897 11.8386 8.08897 11.8539C8.08897 11.8662 8.59331 12.6935 9.10381 13.5269C10.1709 15.2552 10.7952 16.2946 10.7952 16.3346C10.7952 16.3623 10.7645 16.4053 10.7275 16.4299C10.6691 16.473 10.4938 16.4791 9.43901 16.4791H8.21813L7.90752 15.8856C7.73838 15.5627 7.52004 15.1506 7.42471 14.9723C7.09873 14.3603 6.62514 13.45 6.59131 13.3731L6.55748 13.2962L6.52058 13.3946C6.4806 13.5054 6.49905 13.4715 6.01931 14.3634C5.82249 14.7324 5.49959 15.3351 5.30277 15.7011C5.10595 16.0701 4.92451 16.3961 4.89991 16.4238C4.85378 16.4761 4.75229 16.4791 3.61444 16.4791C2.69801 16.4791 2.37203 16.4699 2.34436 16.4422C2.2767 16.3746 2.30438 16.2823 2.46429 16.0332C2.5504 15.8979 3.05782 15.1014 3.59292 14.2649C4.12494 13.4285 4.68464 12.552 4.83533 12.3183L5.10903 11.8939L4.71232 11.2112C4.49397 10.836 4.19567 10.3194 4.04806 10.0672C3.64827 9.38449 3.47913 9.09542 3.23004 8.66795C3.10702 8.45576 2.96864 8.22204 2.92251 8.14516C2.56578 7.5547 2.49504 7.37326 2.60268 7.33329C2.63036 7.32406 3.21158 7.31483 3.90044 7.31483C5.01677 7.31483 5.15208 7.32098 5.20436 7.36711C5.23511 7.39479 5.25971 7.42862 5.25971 7.44399C5.25971 7.4563 5.49651 7.96372 5.78559 8.56954C6.32991 9.70432 6.58823 10.2609 6.62821 10.387C6.65589 10.4762 6.68049 10.4485 6.75122 10.2517C6.7789 10.1656 6.88346 9.94419 6.98187 9.75968C7.36013 9.02776 8.19352 7.4809 8.24888 7.40094C8.27963 7.35481 8.34114 7.31483 8.39034 7.30868C8.43647 7.30253 8.96542 7.30253 9.5651 7.30868C10.4908 7.31791 10.663 7.32406 10.6906 7.36404Z" fill="#932F8F"/>
<path d="M2.73155 7.5362C2.76538 7.59155 2.86379 7.76069 2.95297 7.91446C3.04216 8.06514 3.18669 8.31424 3.27588 8.46801C3.36506 8.61869 3.56803 8.9662 3.72487 9.23682C3.8817 9.50745 4.11543 9.90723 4.24459 10.1287C4.37375 10.347 4.58902 10.716 4.71818 10.9436C4.85042 11.1712 4.99495 11.4203 5.04108 11.4971C5.08721 11.574 5.15794 11.694 5.19485 11.7616L5.26558 11.8877L4.80429 12.6073C3.89093 14.0342 2.43018 16.3315 2.43018 16.3438C2.43018 16.3499 2.49168 16.3561 2.56549 16.3561H2.7008L3.21745 15.5411C3.50345 15.0921 3.81405 14.6062 3.90631 14.4556C4.00164 14.3079 4.37375 13.7267 4.73048 13.1639C5.09029 12.6012 5.39166 12.1214 5.40089 12.0999C5.41011 12.0753 4.93345 11.2296 4.343 10.2178C2.80228 7.57618 2.83304 7.62846 2.85149 7.61C2.86379 7.60078 3.38659 7.59155 4.02009 7.59155C4.65052 7.59155 5.16717 7.58233 5.16717 7.5731C5.16717 7.56388 5.15179 7.53005 5.13642 7.49622C5.10566 7.44086 5.05953 7.43779 3.88785 7.43779H2.67005L2.73155 7.5362Z" fill="#932F8F"/>
<path d="M8.08572 7.96676C7.92888 8.25891 7.75974 8.57566 7.71054 8.66792C7.66133 8.76018 7.5168 9.0308 7.39071 9.2676C7.26155 9.50439 7.11086 9.78424 7.05243 9.8888C6.994 9.99336 6.88636 10.2517 6.81256 10.4608L6.67725 10.8421L6.76335 10.9252L6.84639 11.0051L6.9694 10.6607C7.0432 10.4454 7.22772 10.0579 7.45221 9.63663C7.65211 9.26452 7.90428 8.79401 8.01191 8.59104C8.11955 8.38807 8.28254 8.08362 8.3748 7.91448L8.54394 7.60695L9.5188 7.59773C10.4045 7.59157 10.4998 7.58542 10.5367 7.53622C10.5582 7.50854 10.5798 7.47471 10.5798 7.45934C10.5798 7.44704 10.0816 7.43781 9.47574 7.43781H8.37172L8.08572 7.96676Z" fill="#932F8F"/>
<path d="M6.62197 12.9887C6.63119 13.0225 6.65579 13.1117 6.67425 13.1885C6.69577 13.2654 6.78188 13.4653 6.87414 13.6345C6.96332 13.8036 7.17859 14.2126 7.35081 14.5417C8.23648 16.23 8.30722 16.3561 8.33797 16.3561C8.35334 16.3561 8.36565 16.353 8.36565 16.3469C8.36565 16.3376 7.87053 15.3997 7.54455 14.7877C7.10786 13.9697 6.85876 13.4592 6.80956 13.2808C6.77881 13.167 6.72345 13.0471 6.6804 13.004C6.61274 12.9364 6.60659 12.9333 6.62197 12.9887Z" fill="#932F8F"/>
<path d="M14.1685 3.21545C14.1562 3.22467 14.147 3.75977 14.147 4.39943V5.56188H15.4171C16.5149 5.56188 16.6964 5.56803 16.7548 5.61108C16.8225 5.65721 16.8225 5.66029 16.8225 6.5921C16.8225 7.5239 16.8225 7.52698 16.7548 7.57311C16.6964 7.61616 16.5149 7.62231 15.4171 7.62231H14.147V8.36038V9.09844H15.4324C16.3919 9.09844 16.7271 9.10767 16.7548 9.13535C16.8102 9.1907 16.8071 11.0512 16.7548 11.0881C16.7333 11.1004 16.1397 11.1189 15.4386 11.1281L14.1623 11.1435V11.8816V12.6196L15.4693 12.635C16.189 12.6442 16.7794 12.6565 16.7856 12.6596C16.7886 12.6627 16.7886 13.1055 16.7856 13.6406L16.7763 14.6186L15.4693 14.6339L14.1623 14.6493L14.1531 15.3935L14.147 16.1408H15.3894C16.2689 16.1408 16.6595 16.15 16.7148 16.1777L16.7917 16.2115V17.1587C16.7917 17.8814 16.7825 18.1121 16.7548 18.1305C16.7333 18.1428 16.1397 18.1613 15.4386 18.1705L14.1623 18.1859V19.3699V20.5538H18.2063C21.9397 20.5538 22.2565 20.5508 22.3456 20.5016C22.4871 20.4247 22.6593 20.2186 22.6809 20.1018C22.6901 20.0464 22.6932 16.31 22.6901 11.7985L22.6809 3.59986L22.5855 3.46762C22.5332 3.39381 22.4348 3.30771 22.3702 3.2708C22.2503 3.2093 22.2042 3.2093 18.2186 3.20007C16.0014 3.197 14.1808 3.20315 14.1685 3.21545ZM21.1586 5.64184C21.2139 5.70334 21.2078 7.48393 21.1555 7.54851C21.1063 7.60694 17.5328 7.61309 17.4744 7.55466C17.4467 7.52698 17.4375 7.27173 17.4375 6.5921C17.4375 5.91246 17.4467 5.65721 17.4744 5.62954C17.5021 5.60186 17.9542 5.59263 19.3165 5.59263C20.9095 5.59263 21.1248 5.59878 21.1586 5.64184ZM21.1186 9.12305C21.2016 9.17533 21.2109 9.32601 21.2016 10.1748C21.1893 10.9498 21.1832 11.0543 21.1371 11.0881C21.0633 11.1435 17.5298 11.1466 17.4744 11.0912C17.4221 11.0389 17.4221 9.18763 17.4744 9.13535C17.5021 9.10767 17.948 9.09844 19.2981 9.09844C20.2791 9.09844 21.0971 9.11074 21.1186 9.12305ZM21.1617 12.6842C21.1955 12.7242 21.2016 12.9149 21.1955 13.6437C21.1893 14.2434 21.174 14.5663 21.1524 14.594C21.1278 14.6278 20.768 14.6339 19.2858 14.6278L17.4529 14.6186L17.4437 13.6529C17.4375 12.8995 17.4467 12.6811 17.4744 12.6596C17.4959 12.6473 18.3263 12.635 19.3165 12.635C20.9495 12.635 21.1248 12.6412 21.1617 12.6842ZM21.0879 16.1593C21.1248 16.1685 21.1647 16.1992 21.174 16.2269C21.1863 16.2577 21.1924 16.6882 21.1924 17.1864C21.1893 17.9952 21.1832 18.0967 21.1371 18.1305C21.0694 18.1828 17.5913 18.1889 17.4959 18.1397C17.4406 18.109 17.4375 18.0659 17.4375 17.1526V16.1992L17.5082 16.1716C17.5821 16.1408 20.9772 16.1316 21.0879 16.1593Z" fill="#932F8F"/>
<path d="M17.5667 6.58293L17.5759 7.45323L17.6467 7.46245L17.7143 7.47168V6.68749V5.90022L17.8312 5.89714C17.8927 5.89407 17.988 5.89099 18.0372 5.88791C18.0895 5.88176 18.7907 5.87561 19.5995 5.87561L21.0664 5.86946V5.79258V5.7157H19.3135H17.5605L17.5667 6.58293Z" fill="#932F8F"/>
<path d="M17.5605 10.1133V10.9744H17.6374C17.7143 10.9744 17.7143 10.9744 17.7143 10.673C17.7174 10.51 17.7205 10.1594 17.7235 9.89802L17.7297 9.42135L19.3996 9.41213L21.0664 9.40598V9.32909V9.25221H19.3135H17.5605V10.1133Z" fill="#932F8F"/>
<path d="M17.5605 13.6344V14.5109H17.6374H17.7143L17.7174 13.8712C17.7174 13.5206 17.7174 13.17 17.7143 13.0901L17.7112 12.9425L19.3811 12.9363L21.051 12.9271L21.0602 12.841L21.0694 12.758H19.3165H17.5605V13.6344Z" fill="#932F8F"/>
<path d="M18.3847 16.2854L17.5605 16.2946V17.171V18.0475H17.6374H17.7143L17.7205 17.2541L17.7297 16.4637L19.3996 16.4545L21.0664 16.4483V16.3715V16.2946H20.2699C19.8332 16.2946 19.4149 16.2915 19.3411 16.2854C19.2673 16.2792 18.8368 16.2792 18.3847 16.2854Z" fill="#932F8F"/>
<path d="M22.8071 3.6152C22.844 3.74128 22.8502 4.97139 22.844 11.9277C22.8348 19.7142 22.8317 20.0987 22.7794 20.2155C22.7087 20.3693 22.5642 20.523 22.4043 20.6092L22.2812 20.6768L18.1788 20.686L14.0764 20.6922L14.1471 20.7691L14.2179 20.8459H18.3264H22.435L22.5949 20.7721C22.7702 20.6891 22.9209 20.5138 22.9763 20.3262C22.9978 20.2493 23.0039 17.6015 22.9978 12.0045L22.9886 3.79356L22.9209 3.66748C22.884 3.59982 22.8348 3.52601 22.8102 3.50449C22.7702 3.47374 22.7702 3.48604 22.8071 3.6152Z" fill="#932F8F"/>
<path d="M14.673 5.7064L14.0764 5.71562L14.1471 5.7925L14.2179 5.86938H15.4603H16.6996V5.7925V5.71562H16.0477C15.6879 5.71562 15.365 5.70947 15.3311 5.7064C15.2973 5.70024 15.0021 5.70332 14.673 5.7064Z" fill="#932F8F"/>
<path d="M14.1471 9.32912L14.2179 9.40601H15.4449H16.6689V9.32912V9.25224H15.3711H14.0764L14.1471 9.32912Z" fill="#932F8F"/>
<path d="M14.1624 12.8502L14.2516 12.9425L15.451 12.9364L16.6534 12.9271L16.6626 12.841L16.6718 12.758H15.3741H14.0732L14.1624 12.8502Z" fill="#932F8F"/>
<path d="M14.1471 16.3715L14.2179 16.4484H15.4449H16.6689V16.3715V16.2946H15.3711H14.0764L14.1471 16.3715Z" fill="#932F8F"/>
</svg>
