<svg width="125" height="125" viewBox="0 0 125 125" fill="none" xmlns="http://www.w3.org/2000/svg">
<circle cx="62.5" cy="62.5" r="62.5" fill="#0257E6" fill-opacity="0.05"/>
<path d="M60.4112 36.3166C60.0612 36.7022 57.9792 38.98 55.7963 41.3764C53.6075 43.7728 50.7247 46.9344 49.3842 48.4055C48.0377 49.8706 46.9462 51.0807 46.9581 51.0925C46.964 51.0985 48.4588 50.2206 50.2858 49.141C52.1068 48.0555 54.3431 46.7327 55.2566 46.1929L56.9056 45.2083L58.0623 43.9448L59.2189 42.6814L59.4918 42.883C59.646 42.9898 59.8596 43.1262 59.9663 43.1796L60.168 43.2805L62.1907 42.0823C63.3059 41.4179 64.5575 40.6764 64.9727 40.4273L65.726 39.9706L64.2372 38.5826C63.4127 37.8174 62.3628 36.8386 61.9001 36.4056L61.0578 35.6226L60.4112 36.3166Z" fill="#932F8F"/>
<path d="M69.8565 38.2562C69.2396 38.6239 67.7151 39.5256 66.4754 40.2611C65.2357 40.9966 62.6316 42.5389 60.692 43.6896C58.7523 44.8404 55.0687 47.0232 52.5062 48.5418C49.9437 50.0544 47.8261 51.3178 47.7905 51.3475C47.7608 51.3771 49.1607 51.4008 51.0529 51.4008H54.3747L55.8576 50.523C56.6762 50.0366 58.3311 49.0519 59.5353 48.3342C60.7454 47.6164 62.9816 46.2877 64.512 45.3802C66.2085 44.3718 67.3058 43.7549 67.3236 43.7964C67.3829 43.9862 67.9049 44.5319 68.2252 44.7455C68.9133 45.2081 69.6963 45.392 70.4911 45.2793C70.8886 45.2259 71.4402 45.048 71.5826 44.9294C71.63 44.8938 72.2351 45.8962 73.5341 48.1384L75.4204 51.4008H77.2533C78.7422 51.4008 79.0862 51.3831 79.0625 51.3237C79.0447 51.2822 77.5617 48.7138 75.7585 45.6115C73.9612 42.5151 72.1758 39.4425 71.7961 38.7841C71.4106 38.1257 71.0784 37.5859 71.0428 37.58C71.0131 37.58 70.4793 37.8825 69.8565 38.2562Z" fill="#932F8F"/>
<path d="M41.7686 52.089C40.4992 52.3618 39.4078 53.4355 39.0934 54.7226C38.9689 55.209 38.9689 85.7929 39.0934 86.2793C39.4078 87.5606 40.4755 88.6283 41.733 88.9189C42.0711 88.996 44.5743 89.0079 62.1856 88.996L82.2525 88.9783L82.644 88.8478C83.4982 88.5571 84.2634 87.8868 84.6608 87.0801C85.076 86.2378 85.0701 86.3802 85.0701 80.573V75.3709L79.9866 75.3472C74.2685 75.3294 74.6125 75.3531 73.5922 74.8667C72.3822 74.2913 71.5043 73.2948 71.0653 71.9839C70.8281 71.2721 70.7628 70.2696 70.917 69.5578C71.3501 67.5292 72.9635 65.987 74.9565 65.6963C75.2116 65.6607 77.2818 65.637 80.2239 65.637H85.0701V60.4289C85.0701 56.081 85.0523 55.1557 84.9811 54.8116C84.6964 53.4651 83.599 52.3678 82.2525 52.083C81.6416 51.9525 42.3677 51.9585 41.7686 52.089ZM44.8116 57.0004C45.1082 57.1072 45.2624 57.2495 45.3929 57.5402C45.4997 57.7656 45.5056 58.2817 45.5056 70.5188C45.5056 84.5235 45.5353 83.4736 45.1319 83.8295C44.6336 84.2625 43.8862 84.0846 43.6015 83.4618C43.4948 83.2364 43.4888 82.7203 43.4888 70.501C43.4888 58.2817 43.4948 57.7656 43.6015 57.5402C43.6608 57.4097 43.7676 57.2555 43.8329 57.1962C43.9634 57.0775 44.343 56.9233 44.4972 56.9233C44.5447 56.9233 44.687 56.9589 44.8116 57.0004Z" fill="#932F8F"/>
<path d="M74.7792 66.3489C73.3497 66.6336 72.104 67.7725 71.6176 69.2435C71.4871 69.641 71.4634 69.8011 71.4693 70.5011C71.4693 71.2069 71.4871 71.3552 71.6236 71.7764C71.849 72.4585 72.1633 72.9509 72.7031 73.4966C73.2548 74.0482 73.8717 74.4101 74.6072 74.5939C75.0462 74.7066 75.2894 74.7126 80.5745 74.7126C86.702 74.7126 86.2986 74.7422 86.4706 74.3151C86.5952 74.0304 86.5893 66.9717 86.4706 66.681C86.2927 66.2599 86.7257 66.2895 80.5626 66.2955C77.5137 66.3014 74.9097 66.3251 74.7792 66.3489ZM76.5469 68.2767C77.2705 68.4665 77.7747 68.8758 78.0891 69.5401C78.2611 69.902 78.2789 69.9909 78.2789 70.5011C78.2789 70.9875 78.2552 71.112 78.1188 71.4086C77.9112 71.8416 77.4248 72.3577 77.0392 72.5475C75.9122 73.0991 74.5657 72.6246 74.0022 71.4798C73.8479 71.1535 73.8302 71.0705 73.8302 70.5011C73.8302 69.9494 73.8479 69.8367 73.9903 69.5401C74.3521 68.7631 75.1648 68.2233 76.0249 68.1936C76.1257 68.1877 76.363 68.2292 76.5469 68.2767Z" fill="#932F8F"/>
</svg>
