<svg width="59" height="59" viewBox="0 0 59 59" fill="none" xmlns="http://www.w3.org/2000/svg">
<circle cx="29.5" cy="29.5" r="29.5" fill="#0257E6" fill-opacity="0.05"/>
<path d="M37.0389 16.9847C36.7919 16.7993 36.4301 16.6291 36.0841 16.5354C35.6972 16.4332 23.804 16.313 23.4156 16.4074C22.4389 16.646 21.7042 17.3567 21.4455 18.3153C21.3921 18.5086 21.3524 21.4627 21.2787 31.1527C21.1691 44.6979 21.1584 43.9769 21.4434 44.5368C21.5214 44.6932 21.6591 44.883 21.8513 45.0952C22.2059 45.4947 22.5074 45.6971 22.9784 45.863C23.3106 45.981 23.3461 45.9786 29.3855 46.0451C33.9068 46.0963 35.5451 46.0965 35.7912 46.0498C35.9826 46.0135 36.2536 45.9262 36.4263 45.8433C36.6922 45.7121 36.7664 45.6556 37.0966 45.3312C37.446 44.9934 37.4819 44.9474 37.6207 44.6539C37.7067 44.4827 37.8044 44.2188 37.8328 44.0717C37.8752 43.8892 37.9231 39.903 37.9912 31.2697C38.0983 17.6835 38.111 18.5001 37.8044 17.9017C37.6431 17.5834 37.3158 17.195 37.0389 16.9847ZM29.5633 40.1216L22.9696 40.0577L23.0465 30.3104L23.1234 20.5631L29.7143 20.6297L36.3107 20.6964L36.2338 30.4437L36.1569 40.191L29.5633 40.1216ZM30.8874 42.2239C31.1244 42.6413 31.1643 43.1114 30.9969 43.5684C30.9076 43.8133 30.8772 43.8594 30.624 44.108C30.3709 44.3567 30.3242 44.3863 30.0778 44.4711C29.7246 44.5959 29.3314 44.5919 28.9802 44.4601C28.7352 44.3702 28.689 44.3397 28.4398 44.086C28.1933 43.835 28.1609 43.7855 28.0782 43.5471C27.9474 43.1663 27.9444 42.8495 28.0645 42.5039C28.2936 41.8454 28.8675 41.4389 29.5528 41.4486C30.118 41.4516 30.6127 41.7405 30.8874 42.2239Z" fill="#932F8F"/>
<path d="M32.6508 27.0435C31.5599 26.1805 30.132 25.822 28.773 26.0677C28.3874 26.1375 27.7275 26.3684 27.4039 26.5453C26.3316 27.138 25.5628 28.0285 25.169 29.1468C24.6524 30.6025 24.8743 32.2376 25.7627 33.489C26.0301 33.8657 26.5448 34.3897 26.8977 34.6445C29.0074 36.154 31.8944 35.7026 33.47 33.6133C34.8524 31.7841 34.7248 29.2598 33.1629 27.5429C33.0032 27.3638 32.7729 27.1403 32.6508 27.0435ZM29.8725 27.9083L29.8591 28.2249L30.1207 28.2931C30.6002 28.4181 30.8743 28.6311 31.095 29.0429C31.2107 29.2598 31.2109 29.5793 31.0953 29.6928C30.8311 29.9522 30.4772 29.8285 30.3547 29.4286C30.3174 29.3081 30.2554 29.2064 30.1498 29.0989C29.8626 28.812 29.8516 28.8283 29.8292 29.5926L29.8101 30.2778L30.0361 30.3538C30.6734 30.5677 30.9937 30.8113 31.1734 31.2145C31.3022 31.5052 31.3098 31.9258 31.1952 32.2605C31.1087 32.5026 31.0755 32.5515 30.8526 32.7758C30.6269 32.9975 30.5748 33.0324 30.3311 33.1146C30.1778 33.1677 29.9835 33.2176 29.8933 33.2303L29.7266 33.2532L29.707 33.6517C29.6902 34.0529 29.6428 34.1753 29.5009 34.1739C29.348 34.1723 29.2971 34.038 29.3002 33.6449L29.3033 33.2517L29.0445 33.1863C28.682 33.0925 28.4591 32.9701 28.2207 32.7329C27.9606 32.4736 27.8343 32.2183 27.8175 31.9205C27.7983 31.5872 27.9526 31.4086 28.264 31.4008C28.4633 31.3946 28.5799 31.5077 28.6677 31.7899C28.7877 32.1542 28.893 32.3164 29.0941 32.4386C29.1864 32.4941 29.2817 32.5306 29.2982 32.5198C29.3201 32.5091 29.3419 32.168 29.3561 31.7586L29.3783 31.0161L29.1033 30.9178C28.7439 30.7885 28.5156 30.6497 28.3125 30.4428C27.9983 30.1229 27.9098 29.5705 28.0967 29.0672C28.2613 28.6292 28.7171 28.3062 29.2581 28.2516L29.4467 28.2344L29.4573 27.9205C29.4681 27.5902 29.5292 27.4706 29.6902 27.475C29.8459 27.4738 29.8887 27.578 29.8725 27.9083Z" fill="#932F8F"/>
<path d="M29.25 28.9369C29.0116 29.0409 28.8739 29.1925 28.8341 29.3941C28.7771 29.6884 28.8875 29.8889 29.2029 30.0614C29.279 30.1058 29.358 30.1257 29.3745 30.1095C29.3993 30.0852 29.4442 28.8979 29.4198 28.873C29.4171 28.8703 29.3404 28.8968 29.25 28.9369Z" fill="#932F8F"/>
<path d="M30.0537 31.2687C29.9449 31.2185 29.8442 31.1765 29.8251 31.1736C29.7895 31.1759 29.7437 31.8008 29.748 32.2896C29.7484 32.5817 29.7538 32.5927 29.844 32.58C30.0818 32.5469 30.3486 32.3066 30.4353 32.048C30.4884 31.882 30.4441 31.6167 30.3387 31.4818C30.2874 31.4131 30.1679 31.3245 30.0537 31.2687Z" fill="#932F8F"/>
</svg>
