<svg width="59" height="59" viewBox="0 0 59 59" fill="none" xmlns="http://www.w3.org/2000/svg">
<circle cx="29.5" cy="29.5" r="29.5" fill="#0257E6" fill-opacity="0.05"/>
<path d="M25.6773 17.7358C23.9676 17.8564 22.3566 18.1303 20.8003 18.5687C19.7811 18.8537 19.8085 18.8043 20.4716 19.1605C21.6607 19.7907 22.5648 20.4538 23.3813 21.2922C24.4115 22.3607 25.0362 23.5443 25.2389 24.8321C25.3047 25.2485 25.2883 26.4321 25.2061 26.75C25.1732 26.8979 25.1787 26.9034 25.3924 26.9034C25.9732 26.9034 27.513 27.2706 27.7432 27.4623C27.8144 27.5171 27.8637 27.4897 28.0391 27.287C28.1542 27.15 28.2528 27.0075 28.2528 26.9746C28.2528 26.8048 27.376 26.5034 26.4116 26.339L25.9787 26.2678L25.9677 25.6376C25.9513 24.8814 25.891 24.4485 25.7047 23.8019C25.3869 22.7114 24.7732 21.6867 23.9019 20.7771C23.3539 20.2126 22.4717 19.5003 22.0607 19.2866C21.9401 19.2263 21.8415 19.1605 21.8415 19.1386C21.8415 19.0619 23.7978 19.1715 24.3074 19.2811C25.6664 19.5606 26.6856 20.1414 27.3486 21.0127C27.7761 21.5771 28.061 22.2182 28.1651 22.8539C28.198 23.0511 28.209 23.0566 28.598 23.1498C30.4995 23.6101 32.0174 24.6458 33.0531 26.1965C33.5791 26.9856 33.9901 27.9391 34.1709 28.7994L34.2312 29.0789L34.697 29.1939C35.6121 29.4186 36.445 29.9392 36.9765 30.6187C37.8862 31.7749 38.3465 33.5668 38.2588 35.6052C38.2424 36.0327 38.2369 36.3834 38.2478 36.3834C38.2862 36.3834 38.6698 35.4354 38.8945 34.7942C39.1575 34.0216 39.3986 33.0517 39.5246 32.2462C39.6452 31.4845 39.6561 29.4789 39.5465 28.7117C39.3657 27.4404 38.9602 26.1253 38.3684 24.9033C37.8369 23.8074 37.4314 23.1662 36.5053 21.9881L36.4012 21.8511L37.5958 20.6565C38.7575 19.4893 38.7903 19.451 38.752 19.2756C38.7355 19.177 38.6588 19.04 38.5766 18.9687C38.2972 18.7222 38.2424 18.755 36.9656 20.0263L35.782 21.2045L35.5409 20.9524C34.3956 19.7633 32.7571 18.7989 30.9927 18.2728C29.5351 17.8344 27.3706 17.6152 25.6773 17.7358Z" fill="#932F8F"/>
<path d="M31.2941 25.6979C31.2338 25.7198 28.8282 28.109 25.9458 30.9968C20.9702 35.9834 20.7017 36.2628 20.5538 36.6026C20.2031 37.4081 20.3675 38.4821 20.9374 39.1178C21.3374 39.5561 22.0881 39.8137 22.8498 39.7644C23.2005 39.7425 23.3539 39.6986 23.6827 39.5397C24.1704 39.2986 24.3622 39.0849 24.3622 38.7945C24.3622 38.6301 24.3293 38.5588 24.2197 38.4712C24.017 38.3122 23.8909 38.3287 23.6608 38.526C23.3265 38.8219 23.0306 38.9205 22.5758 38.8931C21.4963 38.8219 20.9483 37.8519 21.4525 36.893C21.5127 36.7724 23.7813 34.46 26.7678 31.479C31.7927 26.4596 31.979 26.2678 31.979 26.0705C31.979 25.7417 31.6338 25.5499 31.2941 25.6979Z" fill="#932F8F"/>
<path d="M30.6749 28.9364C30.3187 29.046 29.9515 29.5556 29.9515 29.9501C29.9515 30.3392 30.22 30.7447 30.5817 30.9091C31.4913 31.3255 32.4174 30.3666 31.9681 29.4789C31.7379 29.0241 31.168 28.7829 30.6749 28.9364Z" fill="#932F8F"/>
<path d="M34.96 30.5693C34.2367 30.8981 34.2257 31.9009 34.9381 32.2571C35.2395 32.416 35.4915 32.416 35.7984 32.2681C36.2313 32.0598 36.445 31.4351 36.2313 31.0242C35.9738 30.531 35.4532 30.3447 34.96 30.5693Z" fill="#932F8F"/>
<path d="M29.7378 31.7037C29.409 31.8681 29.1624 32.1694 29.0693 32.5147C29.0254 32.6845 29.0309 33.0736 29.0967 34.1093C29.146 34.86 29.2008 35.6326 29.2172 35.819L29.2501 36.1532L29.4309 36.1258L29.6118 36.0984L29.6447 36.608C29.6611 36.893 29.694 37.7643 29.7214 38.5479L29.7597 39.9726L31.0365 39.989L32.3078 40L32.3133 39.6603C32.3188 39.4685 32.3407 38.5972 32.3571 37.7259L32.39 36.1368L32.5982 36.1203C32.7462 36.1094 32.801 36.0765 32.801 36.0107C32.801 35.9614 32.8503 35.1943 32.9161 34.312C33.0531 32.4818 33.0476 32.4215 32.675 32.016C32.2804 31.5886 32.1818 31.5612 31.031 31.5612C30.0556 31.5612 30.0173 31.5667 29.7378 31.7037Z" fill="#932F8F"/>
<path d="M26.8062 32.8928C26.5212 33.0572 26.3788 33.3257 26.4062 33.649C26.4336 33.9832 26.6034 34.2134 26.9103 34.3285C27.2226 34.449 27.4802 34.4052 27.7323 34.186C28.072 33.8846 28.1158 33.4298 27.8309 33.0955C27.5459 32.7503 27.1788 32.679 26.8062 32.8928Z" fill="#932F8F"/>
<path d="M34.2531 32.9695C33.9956 33.101 33.7819 33.3202 33.6723 33.5613C33.5791 33.7585 33.5682 33.9339 33.5682 35.2107C33.5682 36.7998 33.5462 36.7121 33.9298 36.7121C34.1161 36.7121 34.1216 36.7176 34.0887 36.8875C33.8915 37.9396 33.5901 39.9287 33.6175 39.9561C33.6394 39.9835 34.412 39.9835 35.3381 39.9616C36.9163 39.9287 37.0204 39.9232 37.0204 39.8301C37.0204 39.7315 36.6642 37.1012 36.6094 36.8053C36.5875 36.6573 36.5875 36.6573 36.8834 36.6573H37.1848V35.26C37.1848 33.5503 37.1629 33.4736 36.5601 33.0352L36.3464 32.8763H35.382C34.6148 32.8818 34.3846 32.8982 34.2531 32.9695Z" fill="#932F8F"/>
<path d="M26.2363 34.9093C25.9568 35.0518 25.7321 35.3532 25.6938 35.6546C25.6828 35.7696 25.7212 36.3286 25.7814 36.8985C25.8472 37.4684 25.8965 37.9561 25.8965 37.978C25.8965 38.0054 25.9568 38.0273 26.0335 38.0273H26.1705L26.1815 38.9972L26.1979 39.9726L27.1349 39.989L28.072 40L28.1103 39.2767C28.1651 38.2191 28.187 38.093 28.324 38.0711C28.4336 38.0547 28.4501 37.978 28.5925 36.8765C28.7569 35.5943 28.7515 35.4902 28.4884 35.1723C28.2199 34.8545 28.0117 34.7942 27.2007 34.7942C26.565 34.7942 26.439 34.8107 26.2363 34.9093Z" fill="#932F8F"/>
</svg>
