<svg width="59" height="59" viewBox="0 0 59 59" fill="none" xmlns="http://www.w3.org/2000/svg">
<circle cx="29.5" cy="29.5" r="29.5" fill="#0257E6" fill-opacity="0.05"/>
<path d="M27.3245 18.492C26.7197 18.6167 26.2787 19.0854 26.1821 19.7003C26.1611 19.8293 26.1443 21.7428 26.1401 23.953V27.9735L26.4089 28.2745L26.6819 28.5712V24.6281V20.685H30.6089H34.5359V22.749C34.5359 24.6625 34.5485 24.9205 34.6409 24.77C34.6577 24.7442 34.7627 24.6754 34.8761 24.6195L35.0819 24.512V22.1771C35.0819 19.6057 35.0735 19.5283 34.8215 19.1284C34.6661 18.8747 34.4351 18.6855 34.1453 18.5608C33.9311 18.4705 33.8933 18.4705 30.7139 18.4619C28.9457 18.4619 27.4211 18.4748 27.3245 18.492Z" fill="#932F8F"/>
<path d="M30.378 23.2478C30.189 23.2822 29.7732 23.4456 29.622 23.5445C28.9878 23.953 28.6224 24.7614 28.7316 25.5139C28.7946 25.9396 28.8534 26.0643 29.5548 27.221C29.874 27.7542 30.252 28.3777 30.3906 28.6056C30.5292 28.8378 30.6552 29.027 30.672 29.027C30.6888 29.027 30.8148 28.8378 30.9534 28.6056C31.092 28.3777 31.47 27.7542 31.7934 27.221C32.4864 26.0729 32.5494 25.9439 32.6124 25.5139C32.6964 24.9119 32.5032 24.3013 32.0874 23.867C31.8312 23.6004 31.659 23.48 31.3314 23.3553C31.092 23.265 30.588 23.2091 30.378 23.2478Z" fill="#932F8F"/>
<path d="M35.0736 24.77C34.935 24.813 34.6368 25.0237 34.4856 25.1871C34.2 25.4967 34.0572 26.1288 34.158 26.6448C34.221 26.9544 34.5612 27.952 34.9812 29.0442L35.292 29.8526V32.5917C35.2878 34.2429 35.271 35.3996 35.2458 35.5157C35.1366 36.0102 34.8132 36.4316 34.3554 36.6896L34.095 36.8315L32.1084 36.8444L30.126 36.8573L30.1554 36.9734C30.2016 37.1411 30.1848 37.5109 30.126 37.7001C30.0042 38.0785 29.7648 38.6676 29.5338 39.1406C29.3532 39.5147 29.3028 39.6523 29.3406 39.6824C29.4918 39.8071 30.3402 40.0436 31.092 40.1683C31.5414 40.2457 32.7048 40.2328 33.192 40.1511C35.1618 39.8114 36.7494 38.6289 37.5852 36.8745C38.0682 35.8554 38.274 34.832 38.253 33.5635C38.2362 32.7035 38.1018 32.1101 37.5726 30.575C37.182 29.457 35.376 24.9764 35.2374 24.8044C35.1996 24.7571 35.1534 24.7485 35.0736 24.77Z" fill="#932F8F"/>
<path d="M25.0524 24.9463C24.603 25.0323 24.33 25.329 24.33 25.7418C24.33 26.2707 24.5526 26.4943 25.6446 27.0361L25.926 27.1737L25.9176 26.1159L25.905 25.0538L25.737 25.0022C25.4808 24.9291 25.254 24.9119 25.0524 24.9463Z" fill="#932F8F"/>
<path d="M24.9642 27.7886C24.582 27.8918 24.3384 28.2057 24.3132 28.6271C24.2838 29.0442 24.3468 29.1603 24.9264 29.7322C25.674 30.4675 25.9974 30.7255 26.262 30.79C26.6736 30.8889 27.018 30.7685 27.2196 30.4546C27.3414 30.2654 27.312 29.8311 27.165 29.5516C27.018 29.2721 26.0478 28.1498 25.7958 27.9692C25.5186 27.7671 25.254 27.7112 24.9642 27.7886Z" fill="#932F8F"/>
<path d="M34.536 31.4694V34.402L31.9446 34.4106L29.3532 34.4235L28.9206 35.4555C28.383 36.7369 28.4124 36.6552 28.5342 36.6251C28.5888 36.6122 28.7442 36.5649 28.8744 36.5133C29.2146 36.3843 29.5548 36.3929 29.811 36.5305L30.0084 36.6423L32.0118 36.6294L34.011 36.6165L34.2336 36.5133C34.5066 36.3886 34.8762 35.9887 34.9812 35.7049C35.0526 35.5157 35.061 35.2964 35.0736 32.6906L35.0862 29.887L34.8258 29.2291C34.6872 28.8722 34.5612 28.5669 34.5528 28.5583C34.5444 28.5497 34.536 29.8569 34.536 31.4694Z" fill="#932F8F"/>
<path d="M29.454 29.6247C29.2692 29.6849 29.1012 29.7881 28.9626 29.9386C28.7904 30.1192 28.5636 30.6137 27.5724 32.9615C26.4594 35.606 26.3418 35.8683 26.2872 35.8511C26.2158 35.8253 26.2368 35.7651 26.7324 34.5439C27.1566 33.499 27.1944 33.3829 27.1776 33.1894C27.1608 33.0174 27.1272 32.9486 26.997 32.811C26.8248 32.6304 26.556 32.4928 26.2242 32.4197C26.0352 32.381 25.989 32.3853 25.821 32.467C25.59 32.5788 25.5522 32.6476 25.149 33.585C24.6282 34.8019 24.5022 35.0685 24.4518 35.0169C24.4056 34.9696 24.4728 34.7804 24.9432 33.628C25.254 32.8626 25.2414 32.5702 24.8802 32.3036C24.792 32.2348 24.5862 32.1359 24.4224 32.08C24.1578 31.9897 24.1116 31.9811 23.952 32.0327C23.6496 32.123 23.5236 32.295 23.2254 33.0045C22.797 34.0236 22.7004 34.23 22.65 34.23C22.566 34.23 22.608 34.0666 22.839 33.5119C23.1246 32.8196 23.154 32.6433 23.0196 32.3853C22.944 32.2348 22.8684 32.1617 22.671 32.0542C22.1502 31.7618 21.831 31.7575 21.558 32.0284C21.4194 32.166 21.2514 32.5315 20.34 34.703C18.7902 38.3838 18.7524 38.487 18.6432 39.1234C18.4374 40.3661 19.1514 41.7722 20.277 42.3484C20.6172 42.5204 22.1586 43.2127 22.6458 43.4105C23.7294 43.8491 24.708 43.8319 25.7916 43.3546C26.3712 43.0966 26.8584 42.7483 27.354 42.2323C27.9 41.6647 28.1184 41.3336 28.509 40.4736C28.677 40.1038 28.95 39.5061 29.118 39.1535C29.6262 38.0742 29.8572 37.4206 29.8152 37.1755C29.7648 36.9046 29.643 36.81 29.3322 36.81C29.0424 36.81 28.7148 36.9433 28.3536 37.2099C27.9672 37.4937 27.6648 37.9366 27.333 38.6891C27.2028 38.9944 27.0684 39.2653 27.0348 39.2997C26.9382 39.4072 26.9172 39.3126 26.997 39.1019C27.0852 38.8611 28.7106 34.9782 29.6136 32.854C29.958 32.037 30.2898 31.2329 30.3486 31.0609C30.5922 30.3772 30.4872 29.8612 30.0672 29.6677C29.8908 29.586 29.6388 29.5688 29.454 29.6247Z" fill="#932F8F"/>
<path d="M24.7206 30.7169C24.6492 30.79 24.5694 30.9018 24.5358 30.962C24.477 31.0781 24.4644 31.5554 24.5148 31.6457C24.5358 31.6758 24.6912 31.7704 24.8634 31.8521C25.1448 31.994 25.3044 32.1273 25.3506 32.2649C25.3632 32.3036 25.3884 32.295 25.4472 32.2477C25.6152 32.0972 25.7958 32.037 26.0646 32.037C26.451 32.037 26.9508 32.2262 27.1986 32.4627L27.3204 32.5745L27.2868 32.4455C27.2406 32.2391 27.06 31.9252 26.871 31.7231C26.7156 31.5554 26.6652 31.5296 26.3544 31.4651C25.9092 31.3748 25.6362 31.2372 25.2792 30.9319C24.8256 30.5406 24.8676 30.5578 24.7206 30.7169Z" fill="#932F8F"/>
</svg>
