<svg width="54" height="48" viewBox="0 0 54 48" fill="none" xmlns="http://www.w3.org/2000/svg">
<path d="M5.87417 1.29422C5.22724 1.80101 5.20137 1.97839 5.12374 4.41096L5.0461 6.97024L3.88163 7.1983C1.50093 7.6544 0.776367 8.97205 0.776367 12.8997C0.776367 15.763 1.13865 17.4861 2.12198 19.4119C2.8983 20.9069 5.87417 23.5929 7.6597 24.4291C8.48777 24.8345 9.3676 25.2399 9.57461 25.3413C9.91102 25.5187 9.98865 26.6336 10.0922 32.1069C10.1957 37.4282 10.3251 38.8725 10.6615 39.734C11.593 42.0399 13.4044 43.915 15.7075 44.9286C16.7167 45.3594 17.4672 45.4861 19.5373 45.4861C21.8922 45.5114 22.2544 45.4354 23.6518 44.7766C25.6185 43.839 27.0417 42.3693 28.0509 40.3169L28.8531 38.6698L28.9825 27.5205C29.086 19.6146 29.2154 16.1684 29.4483 15.6616C30.2505 13.8372 31.8549 12.2915 33.4075 11.8101C34.3132 11.5313 36.3834 11.6327 37.315 12.0128C38.5829 12.5449 39.7992 13.6345 40.4202 14.8254C40.9378 15.7883 40.9636 16.1938 40.9119 20.7802C40.886 23.4915 40.8084 25.7974 40.7308 25.8988C40.679 26.0001 40.2391 26.1775 39.7733 26.2788C37.0044 26.8616 33.6404 29.5223 32.4501 32.0816C30.4316 36.3639 31.2597 41.1277 34.5979 44.2951C39.1005 48.6028 45.958 48.5775 50.59 44.1938C56.5676 38.5178 53.8505 28.5847 45.6992 26.2788L44.6382 25.9748L44.6123 20.9322C44.5865 17.8408 44.4571 15.4083 44.2501 14.7241C42.4128 8.08517 33.6145 5.85531 28.5944 10.7965C27.404 11.9368 26.2136 13.9639 25.8255 15.4843C25.6961 15.9657 25.5408 21.211 25.4632 27.1404C25.3338 37.2001 25.2821 37.9856 24.7904 38.9739C23.6259 41.4318 20.9088 42.6988 18.1658 42.0906C16.9755 41.8372 16.4838 41.5585 15.397 40.4689C13.6632 38.7712 13.5338 38.087 13.4821 31.22C13.4303 25.0119 13.3009 25.4426 15.6299 24.3531C17.5965 23.4408 20.2878 20.7802 21.2711 18.8037C22.1251 17.1313 22.1251 17.106 22.1251 13.153V9.14943L21.3229 8.36391C20.8053 7.88246 20.0031 7.45169 19.2527 7.24897L17.9847 6.9449L17.8553 4.38563C17.7001 1.49694 17.4154 0.964813 16.0439 0.964813C14.6724 0.964813 14.3878 1.49694 14.2325 4.41096L14.1031 6.99558L11.5413 7.0716C9.65224 7.12228 8.90181 7.04626 8.74654 6.81821C8.64303 6.64083 8.59128 5.82997 8.69479 4.99377C8.90181 2.73857 8.64303 1.5983 7.76321 1.16753C6.80575 0.686077 6.67637 0.686077 5.87417 1.29422ZM46.1132 29.2689C48.1058 30.2064 49.2185 31.1947 50.0724 32.8671C50.7711 34.2101 50.8487 34.5902 50.8229 36.6426C50.8229 39.43 50.3053 40.6716 48.5198 42.3693C46.7084 44.0924 45.2851 44.7259 42.9562 44.8273C39.411 45.0046 36.6422 43.4083 34.9343 40.2662C34.1838 38.8725 34.0544 38.4417 34.0544 36.7693C34.0286 35.2997 34.1838 34.5648 34.6237 33.6019C35.2707 32.2083 37.2115 30.1051 38.4277 29.4969C40.7825 28.2807 43.7843 28.1793 46.1132 29.2689Z" fill="#932F8F"/>
<path d="M40.2649 31.1439C40.032 31.524 39.4886 37.6815 39.6697 38.1122C39.7732 38.4163 40.1355 38.543 40.7566 38.543C41.2482 38.543 41.6623 38.6444 41.6623 38.7711C41.6623 38.8977 41.3259 39.9367 40.9118 41.0769C40.2908 42.8 40.239 43.1548 40.5496 43.2815C40.7566 43.3575 41.093 43.1801 41.3518 42.8253C41.5847 42.4959 42.2575 41.6597 42.8268 40.9502C45.1557 38.1376 46.3202 36.5412 46.3202 36.1611C46.3202 35.857 46.0355 35.7557 45.0263 35.7557C43.5254 35.7557 43.4996 35.7303 44.25 33.4244C45.0781 30.8652 45.104 30.9412 42.5939 30.9412C41.3776 30.9412 40.3425 31.0425 40.2649 31.1439Z" fill="#932F8F"/>
</svg>
