<svg width="125" height="125" viewBox="0 0 125 125" fill="none" xmlns="http://www.w3.org/2000/svg">
<circle cx="62.5" cy="62.5" r="62.5" fill="#0257E6" fill-opacity="0.05"/>
<path d="M38.8742 38.2942C38.2272 38.801 38.2014 38.9784 38.1237 41.411L38.0461 43.9702L36.8816 44.1983C34.5009 44.6544 33.7764 45.9721 33.7764 49.8997C33.7764 52.763 34.1386 54.4861 35.122 56.4119C35.8983 57.9069 38.8742 60.5929 40.6597 61.4291C41.4878 61.8345 42.3676 62.2399 42.5746 62.3413C42.911 62.5187 42.9886 63.6336 43.0922 69.1069C43.1957 74.4282 43.3251 75.8725 43.6615 76.734C44.593 79.0399 46.4044 80.915 48.7075 81.9286C49.7167 82.3594 50.4672 82.4861 52.5373 82.4861C54.8922 82.5114 55.2544 82.4354 56.6518 81.7766C58.6185 80.839 60.0417 79.3693 61.0509 77.3169L61.8531 75.6698L61.9825 64.5205C62.086 56.6146 62.2154 53.1684 62.4483 52.6616C63.2505 50.8372 64.8549 49.2915 66.4075 48.8101C67.3132 48.5313 69.3834 48.6327 70.315 49.0128C71.5829 49.5449 72.7992 50.6345 73.4202 51.8254C73.9378 52.7883 73.9636 53.1938 73.9119 57.7802C73.886 60.4915 73.8084 62.7974 73.7308 62.8988C73.679 63.0001 73.2391 63.1775 72.7733 63.2788C70.0044 63.8616 66.6404 66.5223 65.4501 69.0816C63.4316 73.3639 64.2597 78.1277 67.5979 81.2951C72.1005 85.6028 78.958 85.5775 83.59 81.1938C89.5676 75.5178 86.8505 65.5847 78.6992 63.2788L77.6382 62.9748L77.6123 57.9322C77.5865 54.8408 77.4571 52.4083 77.2501 51.7241C75.4128 45.0852 66.6145 42.8553 61.5944 47.7965C60.404 48.9368 59.2136 50.9639 58.8255 52.4843C58.6961 52.9657 58.5408 58.211 58.4632 64.1404C58.3338 74.2001 58.2821 74.9856 57.7904 75.9739C56.6259 78.4318 53.9088 79.6988 51.1658 79.0906C49.9755 78.8372 49.4838 78.5585 48.397 77.4689C46.6632 75.7712 46.5338 75.087 46.4821 68.22C46.4303 62.0119 46.3009 62.4426 48.6299 61.3531C50.5965 60.4408 53.2878 57.7802 54.2711 55.8037C55.1251 54.1313 55.1251 54.106 55.1251 50.153V46.1494L54.3229 45.3639C53.8053 44.8825 53.0031 44.4517 52.2527 44.249L50.9847 43.9449L50.8553 41.3856C50.7001 38.4969 50.4154 37.9648 49.0439 37.9648C47.6724 37.9648 47.3878 38.4969 47.2325 41.411L47.1031 43.9956L44.5413 44.0716C42.6522 44.1223 41.9018 44.0463 41.7465 43.8182C41.643 43.6408 41.5913 42.83 41.6948 41.9938C41.9018 39.7386 41.643 38.5983 40.7632 38.1675C39.8058 37.6861 39.6764 37.6861 38.8742 38.2942ZM79.1132 66.2689C81.1058 67.2064 82.2185 68.1947 83.0724 69.8671C83.7711 71.2101 83.8487 71.5902 83.8229 73.6426C83.8229 76.43 83.3053 77.6716 81.5198 79.3693C79.7084 81.0924 78.2851 81.7259 75.9562 81.8273C72.411 82.0046 69.6422 80.4083 67.9343 77.2662C67.1838 75.8725 67.0544 75.4417 67.0544 73.7693C67.0286 72.2997 67.1838 71.5648 67.6237 70.6019C68.2707 69.2083 70.2115 67.1051 71.4277 66.4969C73.7825 65.2807 76.7843 65.1793 79.1132 66.2689Z" fill="#932F8F"/>
<path d="M73.2649 68.1439C73.032 68.524 72.4886 74.6815 72.6697 75.1122C72.7732 75.4163 73.1355 75.543 73.7566 75.543C74.2482 75.543 74.6623 75.6444 74.6623 75.7711C74.6623 75.8977 74.3259 76.9367 73.9118 78.0769C73.2908 79.8 73.239 80.1548 73.5496 80.2815C73.7566 80.3575 74.093 80.1801 74.3518 79.8253C74.5847 79.4959 75.2575 78.6597 75.8268 77.9502C78.1557 75.1376 79.3202 73.5412 79.3202 73.1611C79.3202 72.857 79.0355 72.7557 78.0263 72.7557C76.5254 72.7557 76.4996 72.7303 77.25 70.4244C78.0781 67.8652 78.104 67.9412 75.5939 67.9412C74.3776 67.9412 73.3425 68.0425 73.2649 68.1439Z" fill="#932F8F"/>
</svg>
