<svg width="49" height="51" viewBox="0 0 49 51" fill="none" xmlns="http://www.w3.org/2000/svg">
<path d="M7.85276 0.763916C5.70414 2.1903 2.9597 5.72919 1.73192 8.6903C-0.0194669 12.8792 -0.4528 18.4222 0.576366 23.3875C1.4972 27.7931 3.89859 32.1806 7.00414 35.1597C8.28609 36.3695 8.50276 36.5139 9.1347 36.5139C9.71248 36.5139 9.92914 36.4056 10.3083 35.9542C11.0847 35.0334 10.9583 34.6903 9.09859 32.7584C7.25692 30.8264 6.44442 29.6709 5.37914 27.5584C2.81526 22.3945 2.49026 15.6959 4.54859 10.225C5.52359 7.64308 7.40137 5.04308 9.31526 3.65281C10.4889 2.80419 10.868 2.17225 10.6694 1.41391C10.525 0.800026 9.7847 0.222248 9.15275 0.222248C8.89998 0.222248 8.30414 0.475025 7.85276 0.763916Z" fill="#932F8F"/>
<path d="M38.8903 0.583412C38.3667 0.998692 38.1139 1.8473 38.3847 2.3348C38.475 2.53341 39.2333 3.36397 40.0639 4.19452C41.725 5.87369 42.5375 7.01119 43.6208 9.17786C46.4194 14.8292 46.5458 22.3765 43.9097 27.757C42.9528 29.707 41.5805 31.5487 40.3347 32.5959C38.0236 34.5098 37.825 34.9251 38.6917 35.9542C39.6305 37.0737 40.9305 36.5501 43.3319 34.1126C48.2792 29.039 50.175 20.8237 48.243 12.7348C47.2861 8.76258 45.3542 5.11536 42.6639 2.22647C40.8403 0.27647 39.8292 -0.156864 38.8903 0.583412Z" fill="#932F8F"/>
<path d="M12.8902 7.46248C11.843 8.14859 10.5972 9.53887 9.78467 10.9111C7.18467 15.2805 7.31106 21.3653 10.0736 25.9694C10.8861 27.3055 12.7819 29.3458 13.5583 29.725C14.118 29.9958 14.2624 29.9958 14.8222 29.7611C15.1652 29.6166 15.5263 29.3458 15.6347 29.1472C16.068 28.3347 15.8694 27.8833 14.4069 26.3125C12.0958 23.875 11.1388 21.4555 11.1388 18.0972C11.1388 16.075 11.4819 14.5222 12.2041 13.0597C12.7819 11.9222 14.2624 10.2069 14.9847 9.8097C15.9236 9.30415 16.0499 8.00415 15.2555 7.26387C14.6958 6.74026 13.8652 6.81248 12.8902 7.46248Z" fill="#932F8F"/>
<path d="M33.636 7.46252C32.8235 8.41947 32.9499 8.76252 34.7374 10.6222C36.868 12.807 37.861 15.3709 37.861 18.7111C37.861 22.0514 37.0847 23.9472 34.7555 26.2584C33.5638 27.432 33.1666 27.9556 33.1666 28.2986C33.1666 29.0028 33.4916 29.4722 34.1777 29.7611C35.0624 30.1403 35.8388 29.7611 37.3916 28.1542C38.8722 26.6375 39.7027 25.3195 40.2985 23.55C41.9235 18.7472 40.9485 13.1139 37.8069 9.25002C35.911 6.92086 34.5749 6.34308 33.636 7.46252Z" fill="#932F8F"/>
<path d="M22.6944 11.525C20.6361 12.0848 19.0472 13.4209 18.1264 15.3528C17.5847 16.4723 17.5486 16.707 17.5486 18.4584C17.5486 20.1917 17.6028 20.4445 18.0722 21.4375C18.7764 22.8459 20.1486 24.2181 21.4666 24.7778L22.5139 25.2292V37.2542V49.2792L22.9291 49.8931C23.7055 51.0306 25.2944 51.0306 26.0708 49.8931L26.4861 49.2792V37.2542V25.2292L27.5333 24.7778C28.8514 24.2181 30.2236 22.8459 30.9278 21.4375C31.4153 20.4445 31.4514 20.1917 31.4514 18.3681C31.4514 16.4723 31.4153 16.3278 30.8555 15.2445C29.8444 13.2945 28.2916 12.0486 26.2153 11.525C24.9153 11.182 23.9944 11.182 22.6944 11.525Z" fill="#932F8F"/>
</svg>
