<svg width="125" height="125" viewBox="0 0 125 125" fill="none" xmlns="http://www.w3.org/2000/svg">
<circle cx="62.5" cy="62.5" r="62.5" fill="#0257E6" fill-opacity="0.05"/>
<path d="M45.8528 37.7639C43.7041 39.1903 40.9597 42.7292 39.7319 45.6903C37.9805 49.8792 37.5472 55.4222 38.5764 60.3875C39.4972 64.7931 41.8986 69.1806 45.0041 72.1597C46.2861 73.3695 46.5028 73.5139 47.1347 73.5139C47.7125 73.5139 47.9291 73.4056 48.3083 72.9542C49.0847 72.0334 48.9583 71.6903 47.0986 69.7584C45.2569 67.8264 44.4444 66.6709 43.3791 64.5584C40.8153 59.3945 40.4903 52.6959 42.5486 47.225C43.5236 44.6431 45.4014 42.0431 47.3153 40.6528C48.4889 39.8042 48.868 39.1722 48.6694 38.4139C48.525 37.8 47.7847 37.2222 47.1528 37.2222C46.9 37.2222 46.3041 37.475 45.8528 37.7639Z" fill="#932F8F"/>
<path d="M76.8903 37.5834C76.3667 37.9987 76.1139 38.8473 76.3847 39.3348C76.475 39.5334 77.2333 40.364 78.0639 41.1945C79.725 42.8737 80.5375 44.0112 81.6208 46.1779C84.4194 51.8292 84.5458 59.3765 81.9097 64.757C80.9528 66.707 79.5805 68.5487 78.3347 69.5959C76.0236 71.5098 75.825 71.9251 76.6917 72.9542C77.6305 74.0737 78.9305 73.5501 81.3319 71.1126C86.2792 66.039 88.175 57.8237 86.243 49.7348C85.2861 45.7626 83.3542 42.1154 80.6639 39.2265C78.8403 37.2765 77.8292 36.8431 76.8903 37.5834Z" fill="#932F8F"/>
<path d="M50.8902 44.4625C49.843 45.1486 48.5972 46.5389 47.7847 47.9111C45.1847 52.2805 45.3111 58.3653 48.0736 62.9694C48.8861 64.3055 50.7819 66.3458 51.5583 66.725C52.118 66.9958 52.2624 66.9958 52.8222 66.7611C53.1652 66.6166 53.5263 66.3458 53.6347 66.1472C54.068 65.3347 53.8694 64.8833 52.4069 63.3125C50.0958 60.875 49.1388 58.4555 49.1388 55.0972C49.1388 53.075 49.4819 51.5222 50.2041 50.0597C50.7819 48.9222 52.2624 47.2069 52.9847 46.8097C53.9236 46.3041 54.0499 45.0041 53.2555 44.2639C52.6958 43.7403 51.8652 43.8125 50.8902 44.4625Z" fill="#932F8F"/>
<path d="M71.636 44.4625C70.8235 45.4195 70.9499 45.7625 72.7374 47.6222C74.868 49.807 75.861 52.3709 75.861 55.7111C75.861 59.0514 75.0847 60.9472 72.7555 63.2584C71.5638 64.432 71.1666 64.9556 71.1666 65.2986C71.1666 66.0028 71.4916 66.4722 72.1777 66.7611C73.0624 67.1403 73.8388 66.7611 75.3916 65.1542C76.8722 63.6375 77.7027 62.3195 78.2985 60.55C79.9235 55.7472 78.9485 50.1139 75.8069 46.25C73.911 43.9209 72.5749 43.3431 71.636 44.4625Z" fill="#932F8F"/>
<path d="M60.6944 48.525C58.6361 49.0848 57.0472 50.4209 56.1264 52.3528C55.5847 53.4723 55.5486 53.707 55.5486 55.4584C55.5486 57.1917 55.6028 57.4445 56.0722 58.4375C56.7764 59.8459 58.1486 61.2181 59.4666 61.7778L60.5139 62.2292V74.2542V86.2792L60.9291 86.8931C61.7055 88.0306 63.2944 88.0306 64.0708 86.8931L64.4861 86.2792V74.2542V62.2292L65.5333 61.7778C66.8514 61.2181 68.2236 59.8459 68.9278 58.4375C69.4153 57.4445 69.4514 57.1917 69.4514 55.3681C69.4514 53.4723 69.4153 53.3278 68.8555 52.2445C67.8444 50.2945 66.2916 49.0486 64.2153 48.525C62.9153 48.182 61.9944 48.182 60.6944 48.525Z" fill="#932F8F"/>
</svg>
