<svg width="52" height="57" viewBox="0 0 52 57" fill="none" xmlns="http://www.w3.org/2000/svg">
<path d="M25.0132 14.1253C18.3635 21.8377 12.8979 28.2749 12.8979 28.457C12.8979 28.6089 15.4789 29.6109 18.6367 30.704C21.7642 31.7667 24.3755 32.6776 24.4362 32.708C24.4666 32.7384 22.3108 38.2039 19.6084 44.8232C16.9363 51.4729 14.7805 56.9688 14.8412 56.9991C14.9931 57.1813 39.2235 28.9429 39.1324 28.7C39.0716 28.5785 36.764 27.6676 33.9705 26.6959C31.177 25.7547 28.5961 24.8437 28.2317 24.6616C27.5637 24.3883 27.6548 24.1454 32.4219 12.3338C35.094 5.71447 37.2498 0.279335 37.1891 0.218605C37.1284 0.157879 31.6628 6.41285 25.0132 14.1253Z" fill="#932F8F"/>
<path d="M21.7026 2.80003C11.8343 4.47005 3.57535 11.9396 0.751507 21.8078C-0.250502 25.2693 -0.250502 31.9494 0.751507 35.4109C2.39116 41.1497 6.06519 46.433 10.6805 49.7123C12.5023 51.0179 14.81 52.2932 15.3262 52.2932C15.6906 52.2932 16.6926 49.7426 16.3586 49.6212C14.9922 49.1657 11.7432 46.8277 9.76959 44.8541C5.18464 40.2691 2.93771 34.8947 2.93771 28.6094C2.93771 22.2329 5.18464 16.9496 9.92141 12.2128C12.7149 9.389 15.478 7.71899 19.486 6.41334C21.3079 5.83642 22.3099 5.71497 26.2572 5.6846L30.9029 5.65424L31.8745 4.68259C32.4514 4.07531 32.7247 3.61986 32.5425 3.43767C31.6923 2.64821 24.9819 2.25348 21.7026 2.80003Z" fill="#932F8F"/>
<path d="M35.9134 6.20049C35.6401 6.92922 35.5186 7.5365 35.6705 7.59723C37.0368 8.05268 40.2858 10.3907 42.2594 12.3644C45.7209 15.8562 47.6642 19.4088 48.6966 24.1456C49.3646 27.3338 49.0913 32.2831 48.0589 35.4409C45.6298 42.8801 40.1643 48.3152 32.543 50.8051C30.7211 51.382 29.7191 51.5034 25.7718 51.5338L21.1261 51.5642L20.1849 52.5055C19.6687 53.0216 19.3347 53.5682 19.4561 53.7504C19.7901 54.2969 24.4965 54.8131 27.6544 54.6309C38.9194 53.9629 48.3019 46.2201 51.399 34.9855C52.2492 31.9187 52.1884 24.9957 51.2775 21.8075C49.6379 16.0688 45.9638 10.7854 41.3485 7.50613C39.5267 6.20049 37.219 4.9252 36.7028 4.9252C36.551 4.9252 36.217 5.50212 35.9134 6.20049Z" fill="#932F8F"/>
</svg>
