<svg width="125" height="125" viewBox="0 0 125 125" fill="none" xmlns="http://www.w3.org/2000/svg">
<path d="M61.0132 48.1253C54.3635 55.8377 48.8979 62.2749 48.8979 62.457C48.8979 62.6089 51.4789 63.6109 54.6367 64.704C57.7642 65.7667 60.3755 66.6776 60.4362 66.708C60.4666 66.7384 58.3108 72.2039 55.6084 78.8232C52.9363 85.4729 50.7805 90.9688 50.8412 90.9991C50.9931 91.1813 75.2235 62.9429 75.1324 62.7C75.0716 62.5785 72.764 61.6676 69.9705 60.6959C67.177 59.7547 64.5961 58.8437 64.2317 58.6616C63.5637 58.3883 63.6548 58.1454 68.4219 46.3338C71.094 39.7145 73.2498 34.2793 73.1891 34.2186C73.1284 34.1579 67.6628 40.4128 61.0132 48.1253Z" fill="#932F8F"/>
<path d="M57.7026 36.8C47.8343 38.47 39.5754 45.9396 36.7515 55.8078C35.7495 59.2693 35.7495 65.9494 36.7515 69.4109C38.3912 75.1497 42.0652 80.433 46.6805 83.7123C48.5023 85.0179 50.81 86.2932 51.3262 86.2932C51.6906 86.2932 52.6926 83.7426 52.3586 83.6212C50.9922 83.1657 47.7432 80.8277 45.7696 78.8541C41.1846 74.2691 38.9377 68.8947 38.9377 62.6094C38.9377 56.2329 41.1846 50.9496 45.9214 46.2128C48.7149 43.389 51.478 41.719 55.486 40.4133C57.3079 39.8364 58.3099 39.715 62.2572 39.6846L66.9029 39.6542L67.8745 38.6826C68.4514 38.0753 68.7247 37.6199 68.5425 37.4377C67.6923 36.6482 60.9819 36.2535 57.7026 36.8Z" fill="#932F8F"/>
<path d="M71.9134 40.2005C71.6401 40.9292 71.5186 41.5365 71.6705 41.5972C73.0368 42.0527 76.2858 44.3907 78.2594 46.3644C81.7209 49.8562 83.6642 53.4088 84.6966 58.1456C85.3646 61.3338 85.0913 66.2831 84.0589 69.4409C81.6298 76.8801 76.1643 82.3152 68.543 84.8051C66.7211 85.382 65.7191 85.5034 61.7718 85.5338L57.1261 85.5642L56.1849 86.5055C55.6687 87.0216 55.3347 87.5682 55.4561 87.7504C55.7901 88.2969 60.4965 88.8131 63.6544 88.6309C74.9194 87.9629 84.3019 80.2201 87.399 68.9855C88.2492 65.9187 88.1884 58.9957 87.2775 55.8075C85.6379 50.0688 81.9638 44.7854 77.3485 41.5061C75.5267 40.2005 73.219 38.9252 72.7028 38.9252C72.551 38.9252 72.217 39.5021 71.9134 40.2005Z" fill="#932F8F"/>
<circle cx="62.5" cy="62.5" r="62.5" fill="#0257E6" fill-opacity="0.05"/>
</svg>
