<svg width="125" height="125" viewBox="0 0 125 125" fill="none" xmlns="http://www.w3.org/2000/svg">
<circle cx="62.5" cy="62.5" r="62.5" fill="#0257E6" fill-opacity="0.05"/>
<path d="M59.9791 36.1782C58.0541 36.8121 56.8166 37.5676 55.2125 39.0915C52.8553 41.3324 51.0809 44.1817 49.4767 48.2987C49.0708 49.3295 49.025 49.56 49.1886 49.6369C49.2541 49.6689 51.9845 49.7009 55.3172 49.7137L61.3345 49.7329L61.3017 42.9908C61.2821 39.2836 61.2494 36.1718 61.2232 36.0693C61.1577 35.826 61.0005 35.8388 59.9791 36.1782Z" fill="#932F8F"/>
<path d="M63.7768 36.0629C63.7506 36.1653 63.7113 39.2835 63.6982 42.9843L63.672 49.7264L69.4208 49.72C74.7899 49.72 75.7785 49.6944 75.9029 49.5728C76.0077 49.4703 74.9928 46.8708 74.2137 45.2573C73.5589 43.8935 72.3345 41.9983 71.3 40.7305C69.866 38.989 67.8232 37.2922 66.4089 36.6711C65.8916 36.4406 64.4577 35.9796 64.091 35.922C63.8422 35.8836 63.8226 35.89 63.7768 36.0629Z" fill="#932F8F"/>
<path d="M52.7113 37.5612C48.4815 39.2131 44.9196 41.6269 42.1565 44.6939C40.6506 46.365 38.6666 49.131 38.6666 49.5536C38.6666 49.6176 38.7779 49.656 39.0136 49.6881C39.4589 49.7393 44.3958 49.7393 45.5809 49.6817L46.4976 49.6432L46.7529 48.9005C48.3178 44.3481 50.341 40.7626 52.7964 38.1694C53.2809 37.6572 53.5625 37.3115 53.5232 37.2794C53.5101 37.2602 53.1434 37.3883 52.7113 37.5612Z" fill="#932F8F"/>
<path d="M71.5292 37.4139C71.5685 37.4779 71.9089 37.8621 72.2952 38.2655C73.9714 40.0454 75.4381 42.28 76.6429 44.9244C77.0292 45.7695 77.9589 48.0489 78.2863 48.9709C78.45 49.4319 78.5417 49.5984 78.6399 49.6304C79.1702 49.7713 84.0286 49.8161 85.6851 49.688C86.3333 49.6368 86.3792 49.6048 86.2679 49.3423C86.1369 49.0286 84.9583 47.3062 84.225 46.3458C81.2589 42.4849 77.1994 39.4692 72.4458 37.606C71.6143 37.273 71.4244 37.2346 71.5292 37.4139Z" fill="#932F8F"/>
<path d="M37.5012 52.0827C37.3244 52.1083 37.1869 52.3964 36.722 53.6322C36.1327 55.2328 35.6089 57.5827 35.3536 59.8429C35.2095 61.0914 35.1899 63.9663 35.3143 64.9971C35.5435 66.8411 36.0411 69.2358 36.5321 70.8044C36.7744 71.5728 37.2262 72.6741 37.3571 72.8021C37.4357 72.8789 45.2667 72.8789 45.6268 72.8021C45.7905 72.7701 45.8101 72.7381 45.7839 72.5908C45.7708 72.5012 45.6464 71.8609 45.5155 71.1758C44.9 67.9616 44.8542 67.3277 44.8542 62.436C44.8542 57.5891 44.9 56.9808 45.5155 53.7602C45.6464 53.0751 45.7708 52.4348 45.7839 52.3388C45.8167 52.1851 45.797 52.1659 45.6006 52.1339C45.3452 52.0891 37.7238 52.0443 37.5012 52.0827Z" fill="#932F8F"/>
<path d="M48.2589 52.0955C48.2262 52.1467 47.853 54.0932 47.6434 55.2969C47.2178 57.7427 47.0803 60.3551 47.1785 63.9535C47.2702 67.3533 47.4535 68.9796 48.0821 72.0082L48.2655 72.8725L53.5952 72.8789C56.5285 72.8854 59.4684 72.8725 60.1297 72.8533L61.3214 72.8213V62.4616V52.0955L60.6208 52.0891C58.4797 52.0571 48.2785 52.0635 48.2589 52.0955Z" fill="#932F8F"/>
<path d="M63.8292 52.0827L63.6786 52.1019V62.4681V72.8278L63.8947 72.8598C64.0714 72.8854 75.0649 72.879 76.3155 72.847L76.7476 72.8406L76.9637 71.7009C77.6512 68.0705 77.6774 67.8144 77.7691 64.9139C77.828 63.0379 77.828 61.8982 77.7691 60.0158C77.6774 57.1345 77.6381 56.808 76.9637 53.2288L76.7476 52.0955L76.322 52.0891C75.3988 52.0699 63.9667 52.0635 63.8292 52.0827Z" fill="#932F8F"/>
<path d="M80.8858 52.0955C80.0018 52.1147 79.2489 52.1467 79.2227 52.1723C79.1965 52.2043 79.2554 52.5885 79.3471 53.0367C79.5566 54.0483 79.8774 56.0524 80.0084 57.2497C80.3358 60.1438 80.3227 64.9267 79.9822 67.9104C79.8447 69.0757 79.4518 71.496 79.2947 72.1683C79.1572 72.7253 79.1637 72.7637 79.4126 72.8085C79.7203 72.8598 85.6066 72.8982 86.7655 72.8598L87.7608 72.8213L87.8917 72.3988C87.9637 72.1683 88.1864 71.4704 88.3959 70.8557C90.0197 65.9319 90.2358 61.1234 89.0441 56.3213C88.7887 55.2905 88.7298 55.092 88.1536 53.3248L87.7477 52.0955L87.0929 52.0827C85.4887 52.0635 82.3721 52.0635 80.8858 52.0955Z" fill="#932F8F"/>
<path d="M40.0351 75.2095C38.8892 75.2608 38.6666 75.2928 38.6666 75.4272C38.6666 75.5489 39.4196 76.7462 40.094 77.7002C42.3137 80.8568 45.45 83.6612 48.9202 85.6013C50.4 86.4272 53.4577 87.7846 53.5756 87.6694C53.5887 87.6566 53.3398 87.3684 53.0256 87.0227C51.1267 84.9738 49.9416 83.245 48.7107 80.748C47.9773 79.2433 46.9101 76.6694 46.5892 75.6129C46.5434 75.4657 46.4583 75.3248 46.3994 75.3056C46.0654 75.1775 42.1892 75.1199 40.0351 75.2095Z" fill="#932F8F"/>
<path d="M79.8839 75.2032C79.2684 75.2352 78.7119 75.2736 78.6399 75.2992C78.5482 75.3248 78.4565 75.4785 78.3518 75.7666C76.9309 79.7299 75.5887 82.4639 73.9845 84.6409C73.4738 85.3324 73.094 85.7806 72.197 86.7538C71.3851 87.6374 71.3262 87.727 71.5422 87.663C72.0595 87.5093 73.5262 86.8755 74.7113 86.2864C77.5137 84.9034 79.6285 83.418 81.7893 81.3242C83.2494 79.9092 84.0482 78.9424 85.2791 77.1432C86.0256 76.0483 86.3857 75.4337 86.3137 75.3632C86.2875 75.3376 86.0845 75.2928 85.8553 75.2672C85.2399 75.1904 81.141 75.1519 79.8839 75.2032Z" fill="#932F8F"/>
<path d="M49.4245 75.2672C49.2673 75.2928 49.1233 75.3312 49.1036 75.3568C48.953 75.4977 50.1251 78.411 51.0417 80.1717C52.3643 82.7136 54.0536 84.897 55.9459 86.5041C57.4584 87.7846 58.4798 88.3353 60.3721 88.8859C61.0661 89.0844 61.1643 89.0844 61.2233 88.8667C61.2495 88.7643 61.2822 85.6525 61.3018 81.9453L61.3346 75.2096L55.5203 75.216C52.3185 75.2224 49.575 75.248 49.4245 75.2672Z" fill="#932F8F"/>
<path d="M63.6982 81.9453C63.7113 85.6525 63.7506 88.7707 63.7768 88.8731C63.8226 89.046 63.8422 89.0524 64.091 89.014C64.497 88.95 65.9506 88.4698 66.4678 88.2329C68.6809 87.2148 71.2149 84.7049 73.0809 81.702C73.9452 80.3062 75.2678 77.4826 75.7851 75.9203C75.9488 75.4209 75.9553 75.3633 75.8113 75.2992C75.7458 75.2672 72.9893 75.2352 69.6827 75.2224L63.672 75.2032L63.6982 81.9453Z" fill="#932F8F"/>
</svg>
