<svg width="55" height="55" viewBox="0 0 55 55" fill="none" xmlns="http://www.w3.org/2000/svg">
<path d="M24.9791 1.1782C23.0541 1.81207 21.8166 2.5676 20.2125 4.09147C17.8553 6.33245 16.0809 9.18169 14.4767 13.2987C14.0708 14.3295 14.025 14.56 14.1886 14.6369C14.2541 14.6689 16.9845 14.7009 20.3172 14.7137L26.3345 14.7329L26.3017 7.99077C26.2821 4.28355 26.2494 1.17179 26.2232 1.06935C26.1577 0.826043 26.0005 0.838849 24.9791 1.1782Z" fill="#932F8F"/>
<path d="M28.7768 1.06288C28.7506 1.16532 28.7113 4.28348 28.6982 7.9843L28.672 14.7264L34.4208 14.72C39.7899 14.72 40.7785 14.6944 40.9029 14.5728C41.0077 14.4703 39.9928 11.8708 39.2137 10.2573C38.5589 8.8935 37.3345 6.99827 36.3 5.73052C34.866 3.98896 32.8232 2.29222 31.4089 1.67114C30.8916 1.44064 29.4577 0.979643 29.091 0.922018C28.8422 0.883601 28.8226 0.890004 28.7768 1.06288Z" fill="#932F8F"/>
<path d="M17.7113 2.56117C13.4815 4.21309 9.9196 6.62694 7.15651 9.69388C5.65055 11.365 3.66663 14.131 3.66663 14.5536C3.66663 14.6176 3.77794 14.656 4.01365 14.6881C4.45889 14.7393 9.39579 14.7393 10.5809 14.6817L11.4976 14.6432L11.7529 13.9005C13.3178 9.34813 15.341 5.76256 17.7964 3.16943C18.2809 2.65721 18.5625 2.31146 18.5232 2.27944C18.5101 2.26023 18.1434 2.38829 17.7113 2.56117Z" fill="#932F8F"/>
<path d="M36.5292 2.41389C36.5685 2.47792 36.9089 2.86209 37.2952 3.26546C38.9714 5.04544 40.4381 7.28001 41.6429 9.92437C42.0292 10.7695 42.9589 13.0489 43.2863 13.9709C43.45 14.4319 43.5417 14.5984 43.6399 14.6304C44.1702 14.7713 49.0286 14.8161 50.6851 14.688C51.3333 14.6368 51.3792 14.6048 51.2679 14.3423C51.1369 14.0286 49.9583 12.3062 49.225 11.3458C46.2589 7.4849 42.1994 4.46919 37.4458 2.60597C36.6143 2.27303 36.4244 2.23461 36.5292 2.41389Z" fill="#932F8F"/>
<path d="M2.5012 17.0827C2.32441 17.1083 2.18691 17.3964 1.72203 18.6322C1.13274 20.2328 0.608935 22.5827 0.353578 24.8429C0.20953 26.0914 0.189887 28.9663 0.314292 29.9971C0.543459 31.8411 1.04108 34.2358 1.53215 35.8044C1.77441 36.5728 2.2262 37.6741 2.35715 37.8021C2.43572 37.8789 10.2667 37.8789 10.6268 37.8021C10.7905 37.7701 10.8101 37.7381 10.7839 37.5908C10.7708 37.5012 10.6464 36.8609 10.5155 36.1758C9.90001 32.9616 9.85417 32.3277 9.85417 27.436C9.85417 22.5891 9.90001 21.9808 10.5155 18.7602C10.6464 18.0751 10.7708 17.4348 10.7839 17.3388C10.8167 17.1851 10.797 17.1659 10.6006 17.1339C10.3452 17.0891 2.72382 17.0443 2.5012 17.0827Z" fill="#932F8F"/>
<path d="M13.2589 17.0955C13.2262 17.1467 12.853 19.0932 12.6434 20.2969C12.2178 22.7427 12.0803 25.3551 12.1785 28.9535C12.2702 32.3533 12.4535 33.9796 13.0821 37.0082L13.2655 37.8725L18.5952 37.8789C21.5285 37.8854 24.4684 37.8725 25.1297 37.8533L26.3214 37.8213V27.4616V17.0955L25.6208 17.0891C23.4797 17.0571 13.2785 17.0635 13.2589 17.0955Z" fill="#932F8F"/>
<path d="M28.8292 17.0827L28.6786 17.1019V27.4681V37.8278L28.8947 37.8598C29.0714 37.8854 40.0649 37.879 41.3155 37.847L41.7476 37.8406L41.9637 36.7009C42.6512 33.0705 42.6774 32.8144 42.7691 29.9139C42.828 28.0379 42.828 26.8982 42.7691 25.0158C42.6774 22.1345 42.6381 21.808 41.9637 18.2288L41.7476 17.0955L41.322 17.0891C40.3988 17.0699 28.9667 17.0635 28.8292 17.0827Z" fill="#932F8F"/>
<path d="M45.8858 17.0955C45.0018 17.1147 44.2489 17.1467 44.2227 17.1723C44.1965 17.2043 44.2554 17.5885 44.3471 18.0367C44.5566 19.0483 44.8774 21.0524 45.0084 22.2497C45.3358 25.1438 45.3227 29.9267 44.9822 32.9104C44.8447 34.0757 44.4518 36.496 44.2947 37.1683C44.1572 37.7253 44.1637 37.7637 44.4126 37.8085C44.7203 37.8598 50.6066 37.8982 51.7655 37.8598L52.7608 37.8213L52.8917 37.3988C52.9637 37.1683 53.1864 36.4704 53.3959 35.8557C55.0197 30.9319 55.2358 26.1234 54.0441 21.3213C53.7887 20.2905 53.7298 20.092 53.1536 18.3248L52.7477 17.0955L52.0929 17.0827C50.4887 17.0635 47.3721 17.0635 45.8858 17.0955Z" fill="#932F8F"/>
<path d="M5.03508 40.2095C3.88925 40.2608 3.66663 40.2928 3.66663 40.4272C3.66663 40.5489 4.4196 41.7462 5.09401 42.7002C7.31365 45.8568 10.45 48.6612 13.9202 50.6013C15.4 51.4272 18.4577 52.7846 18.5756 52.6694C18.5887 52.6566 18.3398 52.3684 18.0256 52.0227C16.1267 49.9738 14.9416 48.245 13.7107 45.748C12.9773 44.2433 11.9101 41.6694 11.5892 40.6129C11.5434 40.4657 11.4583 40.3248 11.3994 40.3056C11.0654 40.1775 7.18925 40.1199 5.03508 40.2095Z" fill="#932F8F"/>
<path d="M44.8839 40.2032C44.2684 40.2352 43.7119 40.2736 43.6399 40.2992C43.5482 40.3248 43.4565 40.4785 43.3518 40.7666C41.9309 44.7299 40.5887 47.4639 38.9845 49.6409C38.4738 50.3324 38.094 50.7806 37.197 51.7538C36.3851 52.6374 36.3262 52.727 36.5422 52.663C37.0595 52.5093 38.5262 51.8755 39.7113 51.2864C42.5137 49.9034 44.6285 48.418 46.7893 46.3242C48.2494 44.9092 49.0482 43.9424 50.2791 42.1432C51.0256 41.0483 51.3857 40.4337 51.3137 40.3632C51.2875 40.3376 51.0845 40.2928 50.8553 40.2672C50.2399 40.1904 46.141 40.1519 44.8839 40.2032Z" fill="#932F8F"/>
<path d="M14.4245 40.2672C14.2673 40.2928 14.1233 40.3312 14.1036 40.3568C13.953 40.4977 15.1251 43.411 16.0417 45.1717C17.3643 47.7136 19.0536 49.897 20.9459 51.5041C22.4584 52.7846 23.4798 53.3353 25.3721 53.8859C26.0661 54.0844 26.1643 54.0844 26.2233 53.8667C26.2495 53.7643 26.2822 50.6525 26.3018 46.9453L26.3346 40.2096L20.5203 40.216C17.3185 40.2224 14.575 40.248 14.4245 40.2672Z" fill="#932F8F"/>
<path d="M28.6982 46.9453C28.7113 50.6525 28.7506 53.7707 28.7768 53.8731C28.8226 54.046 28.8422 54.0524 29.091 54.014C29.497 53.95 30.9506 53.4698 31.4678 53.2329C33.6809 52.2148 36.2149 49.7049 38.0809 46.702C38.9452 45.3062 40.2678 42.4826 40.7851 40.9203C40.9488 40.4209 40.9553 40.3633 40.8113 40.2992C40.7458 40.2672 37.9893 40.2352 34.6827 40.2224L28.672 40.2032L28.6982 46.9453Z" fill="#932F8F"/>
</svg>
