<svg width="92" height="92" viewBox="0 0 92 92" fill="none" xmlns="http://www.w3.org/2000/svg">
<path d="M61.7957 15.9846C61.2723 15.5917 60.5058 15.2311 59.7726 15.0327C58.9529 14.8162 33.7556 14.5615 32.9325 14.7615C30.8633 15.267 29.3069 16.7727 28.7586 18.8035C28.6455 19.2131 28.5614 25.4717 28.4052 46.0014C28.1731 74.6989 28.1504 73.1714 28.7543 74.3576C28.9194 74.689 29.2113 75.0912 29.6185 75.5407C30.3696 76.3872 31.0084 76.8159 32.0064 77.1673C32.7102 77.4174 32.7854 77.4124 45.5807 77.5533C55.1597 77.6617 58.6307 77.662 59.1521 77.5632C59.5577 77.4863 60.1319 77.3012 60.4977 77.1255C61.061 76.8478 61.2182 76.7279 61.9178 76.0407C62.6581 75.3251 62.7341 75.2275 63.0282 74.6057C63.2104 74.2431 63.4173 73.684 63.4776 73.3722C63.5675 72.9855 63.6688 64.5403 63.8131 46.2494C64.0401 17.4651 64.067 19.1951 63.4175 17.9274C63.0757 17.2529 62.3822 16.4302 61.7957 15.9846ZM45.9573 65.0035L31.9877 64.8681L32.1506 44.217L32.3135 23.5659L46.2773 23.707L60.2527 23.8483L60.0898 44.4994L59.9269 65.1504L45.9573 65.0035ZM48.7626 69.4574C49.2647 70.3418 49.3494 71.3377 48.9947 72.306C48.8055 72.8248 48.7411 72.9225 48.2047 73.4493C47.6683 73.9761 47.5695 74.0387 47.0474 74.2185C46.2991 74.4829 45.4661 74.4745 44.7221 74.195C44.2029 74.0047 44.1051 73.9401 43.5771 73.4025C43.0549 72.8708 42.9863 72.7659 42.8109 72.2609C42.5338 71.4539 42.5276 70.7828 42.7821 70.0507C43.2675 68.6556 44.4833 67.7943 45.9352 67.8148C47.1326 67.8211 48.1806 68.4334 48.7626 69.4574Z" fill="#932F8F"/>
<path d="M52.4988 37.2954C50.1877 35.4671 47.1623 34.7076 44.2831 35.228C43.4663 35.376 42.0682 35.8652 41.3826 36.24C39.1108 37.4956 37.4819 39.3824 36.6476 41.7516C35.553 44.8356 36.0232 48.2998 37.9055 50.9511C38.472 51.7493 39.5623 52.8595 40.3101 53.3993C44.7798 56.5974 50.8963 55.641 54.2344 51.2145C57.1633 47.3391 56.893 41.991 53.5838 38.3534C53.2455 37.974 52.7575 37.5005 52.4988 37.2954ZM46.6126 39.1276L46.5842 39.7984L47.1384 39.9428C48.1545 40.2076 48.7352 40.659 49.2027 41.5314C49.4478 41.9909 49.4482 42.6678 49.2034 42.9083C48.6437 43.458 47.8937 43.1959 47.6343 42.3486C47.5553 42.0933 47.424 41.8779 47.2001 41.65C46.5917 41.0422 46.5683 41.0767 46.5208 42.6961L46.4805 44.1477L46.9593 44.3087C48.3094 44.7621 48.988 45.278 49.3689 46.1323C49.6417 46.7482 49.6578 47.6393 49.415 48.3484C49.2316 48.8614 49.1614 48.9649 48.6891 49.4402C48.211 49.9098 48.1005 49.9839 47.5843 50.158C47.2594 50.2704 46.8478 50.3762 46.6567 50.4032L46.3035 50.4517L46.2621 51.2959C46.2265 52.1459 46.1261 52.4052 45.8253 52.4022C45.5013 52.3989 45.3937 52.1143 45.4002 51.2814L45.4068 50.4484L44.8583 50.3098C44.0905 50.1111 43.6182 49.8518 43.1131 49.3492C42.562 48.7998 42.2944 48.2591 42.2589 47.6281C42.2182 46.922 42.5451 46.5434 43.2048 46.527C43.6272 46.5139 43.874 46.7536 44.0602 47.3513C44.3144 48.1233 44.5373 48.4669 44.9634 48.7257C45.1592 48.8434 45.361 48.9207 45.3959 48.8979C45.4424 48.8752 45.4886 48.1525 45.5185 47.2851L45.5657 45.712L44.983 45.5036C44.2216 45.2298 43.738 44.9357 43.3075 44.4975C42.6418 43.8197 42.4544 42.6492 42.8504 41.5829C43.199 40.6551 44.1647 39.9706 45.311 39.8549L45.7105 39.8185L45.7331 39.1534C45.756 38.4536 45.8852 38.2004 46.2265 38.2096C46.5562 38.2072 46.6471 38.4279 46.6126 39.1276Z" fill="#932F8F"/>
<path d="M45.2936 41.3068C44.7886 41.5273 44.4968 41.8483 44.4124 42.2755C44.2918 42.8991 44.5257 43.3238 45.1938 43.6892C45.3551 43.7834 45.5225 43.8256 45.5575 43.7912C45.6099 43.7397 45.705 41.2241 45.6533 41.1716C45.6476 41.1657 45.4852 41.2219 45.2936 41.3068Z" fill="#932F8F"/>
<path d="M46.9965 46.2472C46.7659 46.1407 46.5526 46.0518 46.5122 46.0456C46.4369 46.0506 46.3397 47.3744 46.3489 48.4101C46.3498 49.0291 46.3612 49.0523 46.5523 49.0253C47.0561 48.9552 47.6213 48.4461 47.8049 47.8983C47.9176 47.5466 47.8237 46.9845 47.6004 46.6988C47.4916 46.553 47.2385 46.3654 46.9965 46.2472Z" fill="#932F8F"/>
</svg>
