<svg width="125" height="125" viewBox="0 0 125 125" fill="none" xmlns="http://www.w3.org/2000/svg">
<circle cx="62.5" cy="62.5" r="62.5" fill="#0257E6" fill-opacity="0.05"/>
<path d="M77.7957 35.9846C77.2723 35.5917 76.5058 35.2311 75.7726 35.0327C74.9529 34.8162 49.7556 34.5615 48.9325 34.7615C46.8633 35.267 45.3069 36.7727 44.7586 38.8035C44.6455 39.2131 44.5614 45.4717 44.4052 66.0014C44.1731 94.6989 44.1504 93.1714 44.7543 94.3576C44.9194 94.689 45.2113 95.0912 45.6185 95.5407C46.3696 96.3872 47.0084 96.8159 48.0064 97.1673C48.7102 97.4174 48.7854 97.4124 61.5807 97.5533C71.1597 97.6617 74.6307 97.662 75.1521 97.5632C75.5577 97.4863 76.1319 97.3012 76.4977 97.1255C77.061 96.8478 77.2182 96.7279 77.9178 96.0407C78.6581 95.3251 78.7341 95.2275 79.0282 94.6057C79.2104 94.2431 79.4173 93.684 79.4776 93.3722C79.5675 92.9855 79.6688 84.5403 79.8131 66.2494C80.0401 37.4651 80.067 39.1951 79.4175 37.9274C79.0757 37.2529 78.3822 36.4302 77.7957 35.9846ZM61.9573 85.0035L47.9877 84.8681L48.1506 64.217L48.3135 43.5659L62.2773 43.707L76.2527 43.8483L76.0898 64.4994L75.9269 85.1504L61.9573 85.0035ZM64.7626 89.4574C65.2647 90.3418 65.3494 91.3377 64.9947 92.306C64.8055 92.8248 64.7411 92.9225 64.2047 93.4493C63.6683 93.9761 63.5695 94.0387 63.0474 94.2185C62.2991 94.4829 61.4661 94.4745 60.7221 94.195C60.2029 94.0047 60.1051 93.9401 59.5771 93.4025C59.0549 92.8708 58.9863 92.7659 58.8109 92.2609C58.5338 91.4539 58.5276 90.7828 58.7821 90.0507C59.2675 88.6556 60.4833 87.7943 61.9352 87.8148C63.1326 87.8211 64.1806 88.4334 64.7626 89.4574Z" fill="#932F8F"/>
<path d="M68.4988 57.2954C66.1877 55.4671 63.1623 54.7076 60.2831 55.228C59.4663 55.376 58.0682 55.8652 57.3826 56.24C55.1108 57.4956 53.4819 59.3824 52.6476 61.7516C51.553 64.8356 52.0232 68.2998 53.9055 70.9511C54.472 71.7493 55.5623 72.8595 56.3101 73.3993C60.7798 76.5974 66.8963 75.641 70.2344 71.2145C73.1633 67.3391 72.893 61.991 69.5838 58.3534C69.2455 57.974 68.7575 57.5005 68.4988 57.2954ZM62.6126 59.1276L62.5842 59.7984L63.1384 59.9428C64.1545 60.2076 64.7352 60.659 65.2027 61.5314C65.4478 61.9909 65.4482 62.6678 65.2034 62.9083C64.6437 63.458 63.8937 63.1959 63.6343 62.3486C63.5553 62.0933 63.424 61.8779 63.2001 61.65C62.5917 61.0422 62.5683 61.0767 62.5208 62.6961L62.4805 64.1477L62.9593 64.3087C64.3094 64.7621 64.988 65.278 65.3689 66.1323C65.6417 66.7482 65.6578 67.6393 65.415 68.3484C65.2316 68.8614 65.1614 68.9649 64.6891 69.4402C64.211 69.9098 64.1005 69.9839 63.5843 70.158C63.2594 70.2704 62.8478 70.3762 62.6567 70.4032L62.3035 70.4517L62.2621 71.2959C62.2265 72.1459 62.1261 72.4052 61.8253 72.4022C61.5013 72.3989 61.3937 72.1143 61.4002 71.2814L61.4068 70.4484L60.8583 70.3098C60.0905 70.1111 59.6182 69.8518 59.1131 69.3492C58.562 68.7998 58.2944 68.2591 58.2589 67.6281C58.2182 66.922 58.5451 66.5434 59.2048 66.527C59.6272 66.5139 59.874 66.7536 60.0602 67.3513C60.3144 68.1233 60.5373 68.4669 60.9634 68.7257C61.1592 68.8434 61.361 68.9207 61.3959 68.8979C61.4424 68.8752 61.4886 68.1525 61.5185 67.2851L61.5657 65.712L60.983 65.5036C60.2216 65.2298 59.738 64.9357 59.3075 64.4975C58.6418 63.8197 58.4544 62.6492 58.8504 61.5829C59.199 60.6551 60.1647 59.9706 61.311 59.8549L61.7105 59.8185L61.7331 59.1534C61.756 58.4536 61.8852 58.2004 62.2265 58.2096C62.5562 58.2072 62.6471 58.4279 62.6126 59.1276Z" fill="#932F8F"/>
<path d="M61.2936 61.3068C60.7886 61.5273 60.4968 61.8483 60.4124 62.2755C60.2918 62.8991 60.5257 63.3238 61.1938 63.6892C61.3551 63.7834 61.5225 63.8256 61.5575 63.7912C61.6099 63.7397 61.705 61.2241 61.6533 61.1716C61.6476 61.1657 61.4852 61.2219 61.2936 61.3068Z" fill="#932F8F"/>
<path d="M62.9965 66.2472C62.7659 66.1407 62.5526 66.0518 62.5122 66.0456C62.4369 66.0506 62.3397 67.3744 62.3489 68.4101C62.3498 69.0291 62.3612 69.0523 62.5523 69.0253C63.0561 68.9552 63.6213 68.4461 63.8049 67.8983C63.9176 67.5466 63.8237 66.9845 63.6004 66.6988C63.4916 66.553 63.2385 66.3654 62.9965 66.2472Z" fill="#932F8F"/>
</svg>
