<svg width="125" height="125" viewBox="0 0 125 125" fill="none" xmlns="http://www.w3.org/2000/svg">
<circle cx="62.5" cy="62.5" r="62.5" fill="#0257E6" fill-opacity="0.05"/>
<path d="M48.8894 35.2174C48.6799 35.3455 48.4121 35.6132 48.2841 35.8228C48.0629 36.1953 48.0513 36.4398 48.0513 46.8587V57.5104L49.0757 57.4289C49.6345 57.394 50.4726 57.3474 50.9383 57.3474L51.7765 57.3358V46.7655C51.7765 36.4398 51.7648 36.1953 51.5436 35.8228C51.1944 35.264 50.6705 34.9846 49.9139 34.9846C49.4831 34.9846 49.1455 35.0545 48.8894 35.2174Z" fill="#932F8F"/>
<path d="M66.9084 35.2175C66.6755 35.4503 66.6755 35.6017 66.6755 42.4351C66.6755 49.2685 66.6755 49.4198 66.9084 49.6526C67.1412 49.8855 67.2925 49.8855 73.4274 49.8855H79.7137V53.145V56.4045H79.9814C80.2026 56.4045 80.6799 55.8108 82.5774 53.145L84.894 49.8855H86.7334C88.398 49.8855 88.5843 49.8622 88.7938 49.6526C89.0267 49.4198 89.0267 49.2685 89.0267 42.4351C89.0267 35.6017 89.0267 35.4503 88.7938 35.2175C88.561 34.9847 88.4097 34.9847 77.8511 34.9847C67.2925 34.9847 67.1412 34.9847 66.9084 35.2175ZM76.0816 37.15C77.8627 37.8834 78.3051 40.2582 76.9082 41.5853C75.1969 43.2034 72.3797 42.0044 72.3797 39.6412C72.3797 38.5935 72.9734 37.6738 73.9513 37.1616C74.4053 36.9171 75.5229 36.9171 76.0816 37.15ZM78.4681 43.0404L73.8349 47.6736L73.2295 47.0683L72.6126 46.4513L77.2341 41.8297L81.8673 37.1965L82.4727 37.8019L83.0897 38.4189L78.4681 43.0404ZM81.6694 42.7378C83.4505 43.4711 83.8929 45.846 82.496 47.1731C80.7847 48.7912 77.9675 47.5921 77.9675 45.229C77.9675 44.1813 78.5612 43.2616 79.5391 42.7494C79.9931 42.5049 81.1106 42.5049 81.6694 42.7378Z" fill="#932F8F"/>
<path d="M74.3599 38.9439C74.2086 39.0951 74.1272 39.3278 74.1272 39.6419C74.1272 39.956 74.2086 40.1886 74.3599 40.3398C74.5111 40.4911 74.7438 40.5725 75.0579 40.5725C75.3719 40.5725 75.6046 40.4911 75.7558 40.3398C75.9071 40.1886 75.9885 39.956 75.9885 39.6419C75.9885 39.3278 75.9071 39.0951 75.7558 38.9439C75.6046 38.7926 75.3719 38.7112 75.0579 38.7112C74.7438 38.7112 74.5111 38.7926 74.3599 38.9439Z" fill="#932F8F"/>
<path d="M79.9475 44.5318C79.7963 44.683 79.7148 44.9157 79.7148 45.2297C79.7148 45.5438 79.7963 45.7765 79.9475 45.9277C80.0987 46.079 80.3314 46.1604 80.6455 46.1604C80.9596 46.1604 81.1923 46.079 81.3435 45.9277C81.4947 45.7765 81.5762 45.5438 81.5762 45.2297C81.5762 44.9157 81.4947 44.683 81.3435 44.5318C81.1923 44.3805 80.9596 44.2991 80.6455 44.2991C80.3314 44.2991 80.0987 44.3805 79.9475 44.5318Z" fill="#932F8F"/>
<path d="M43.2993 38.9429C43.0898 39.0709 42.8221 39.3387 42.694 39.5482C42.4728 39.9207 42.4612 40.1535 42.4612 49.6761V59.4314L43.3692 58.9774C43.8581 58.7213 44.6963 58.372 45.2202 58.1858L46.1864 57.8598V48.8961C46.1864 40.1535 46.1747 39.9207 45.9535 39.5482C45.6043 38.9894 45.0805 38.71 44.3238 38.71C43.8931 38.71 43.5555 38.7799 43.2993 38.9429Z" fill="#932F8F"/>
<path d="M54.4746 38.9427C54.2651 39.0707 53.9974 39.3385 53.8693 39.548C53.6481 39.9206 53.6365 40.1534 53.6365 48.6282V57.3358H55.4991H57.3617V48.6282C57.3617 40.1534 57.35 39.9206 57.1288 39.548C56.7796 38.9893 56.2557 38.7099 55.4991 38.7099C55.0683 38.7099 54.7307 38.7797 54.4746 38.9427Z" fill="#932F8F"/>
<path d="M60.0645 46.3931C59.8549 46.5212 59.5872 46.7889 59.4591 46.9985C59.238 47.371 59.2263 47.6038 59.2263 52.237C59.2263 54.9145 59.2496 57.103 59.2729 57.103C59.2962 57.103 59.657 56.9517 60.0645 56.7771C60.8212 56.4278 61.6011 56.1601 62.4626 55.9389L62.9515 55.8109V51.5967C62.9515 47.5922 62.9399 47.3593 62.7187 46.9985C62.3694 46.4397 61.8456 46.1603 61.0889 46.1603C60.6582 46.1603 60.3206 46.2301 60.0645 46.3931Z" fill="#932F8F"/>
<path d="M35.2561 53.8318L35 54.0879L35.0466 62.2601L35.0815 70.4322L35.3958 71.8408C36.1292 75.1935 37.3748 77.9873 39.3073 80.6415L39.9592 81.5379L49.4468 81.5496H58.9227L58.0147 80.9442C54.1847 78.4064 51.8914 74.1108 51.8914 69.466C51.8914 65.8456 53.1137 62.7024 55.57 60.0366L56.35 59.1868L51.9962 59.2217C47.98 59.2683 47.5725 59.2916 46.746 59.5127C45.512 59.862 44.2198 60.3975 43.2653 60.9446L42.462 61.4219V62.4696V63.5173L43.079 64.2391C43.9754 65.2984 44.4061 65.9503 44.9649 67.1494C45.6052 68.4998 45.9544 69.7919 46.0359 71.154L46.1057 72.2366H45.2093H44.3246V71.4915C44.3246 69.466 43.0092 66.4742 41.4725 65.019C40.6576 64.2507 40.6693 64.2856 40.5994 60.4208L40.5412 56.9284L40.2036 56.2299C39.4586 54.7166 38.0151 53.7271 36.4086 53.6339C35.5937 53.5874 35.4773 53.6106 35.2561 53.8318Z" fill="#932F8F"/>
<path d="M63.2405 57.5338C62.0531 57.7782 60.5281 58.3836 59.4338 59.0355C58.1067 59.8154 56.1161 61.8061 55.3361 63.1332C54.1487 65.1238 53.6365 67.0446 53.6365 69.4427C53.6365 72.7605 54.6958 75.4263 56.9426 77.7895C58.5258 79.4542 60.1672 80.467 62.4489 81.1654C63.4151 81.4565 63.613 81.4797 65.7433 81.4797C67.8737 81.4797 68.0716 81.4565 69.0378 81.1654C71.3195 80.467 72.9609 79.4542 74.5441 77.7895C76.7909 75.4263 77.8502 72.7605 77.8502 69.4427C77.8502 67.0446 77.338 65.1238 76.1506 63.1332C75.3706 61.8061 73.38 59.8154 72.0529 59.0355C70.9237 58.3603 69.4103 57.7782 68.1647 57.5221C67.0122 57.2893 64.3697 57.2893 63.2405 57.5338ZM66.6746 60.2462C66.6746 61.1891 66.6979 61.2939 66.8842 61.2939C67.3382 61.2939 68.5372 62.0156 69.0727 62.6093C70.0855 63.7269 70.3882 64.8212 70.3998 67.2542V68.5114H69.4685H68.5372V66.7303C68.5372 64.7397 68.4208 64.3322 67.7107 63.657C67.0355 63.0168 66.6514 62.9236 64.6956 62.9236H62.9494V64.6698C62.9494 66.6255 63.0426 67.0097 63.6828 67.6733C64.23 68.2553 64.6141 68.4066 65.9063 68.5929C67.3731 68.7908 68.1298 69.1284 68.9563 69.9549C70.1437 71.154 70.3882 72.1202 70.3998 75.6358V77.8244H68.5372H66.6746V78.7557V79.687H65.7433H64.812V78.6393C64.812 77.7196 64.7888 77.5916 64.6141 77.5916C64.1718 77.5916 63.1473 76.9862 62.5304 76.3692C61.4361 75.275 61.0985 74.1574 61.0869 71.6196V70.374H62.0182H62.9494V72.1435C62.9494 74.1458 63.0659 74.5532 63.776 75.2284C64.4512 75.8687 64.8353 75.9618 66.791 75.9618H68.5372V74.2156C68.5372 72.2599 68.4441 71.8757 67.8038 71.2122C67.2567 70.6301 66.8725 70.4788 65.5804 70.2925C64.1136 70.0946 63.3569 69.757 62.5304 68.9305C61.343 67.7315 61.0985 66.7652 61.0869 63.2379V61.061H62.9494H64.812V60.1297V59.1984H65.7433H66.6746V60.2462Z" fill="#932F8F"/>
<path d="M40.5996 86.2061V89H49.9126H59.2256V86.2061V83.4122H49.9126H40.5996V86.2061Z" fill="#932F8F"/>
</svg>
