<svg width="37" height="37" viewBox="0 0 37 37" fill="none" xmlns="http://www.w3.org/2000/svg">
<rect width="37" height="37" rx="8" fill="white"/>
<path d="M13.6339 11.2695C13.0059 11.6864 12.2036 12.7209 11.8448 13.5864C11.3328 14.8109 11.2061 16.4311 11.507 17.8825C11.7761 19.1703 12.4781 20.4528 13.3859 21.3236C13.7606 21.6773 13.8239 21.7195 14.0086 21.7195C14.1775 21.7195 14.2409 21.6878 14.3517 21.5559C14.5786 21.2867 14.5417 21.1864 13.9981 20.6217C13.4598 20.057 13.2223 19.7192 12.9109 19.1017C12.1614 17.5923 12.0664 15.6342 12.6681 14.035C12.9531 13.2803 13.502 12.5203 14.0614 12.1139C14.4045 11.8659 14.5153 11.6811 14.4573 11.4595C14.415 11.28 14.1986 11.1111 14.0139 11.1111C13.94 11.1111 13.7659 11.185 13.6339 11.2695Z" fill="#932F8F"/>
<path d="M22.7064 11.2166C22.5533 11.338 22.4794 11.586 22.5586 11.7285C22.585 11.7866 22.8067 12.0294 23.0494 12.2722C23.535 12.763 23.7725 13.0955 24.0892 13.7288C24.9072 15.3808 24.9442 17.5869 24.1736 19.1597C23.8939 19.7297 23.4928 20.268 23.1286 20.5741C22.4531 21.1335 22.395 21.2549 22.6483 21.5558C22.9228 21.883 23.3028 21.7299 24.0047 21.0174C25.4508 19.5344 26.005 17.133 25.4403 14.7685C25.1606 13.6074 24.5958 12.5413 23.8094 11.6969C23.2764 11.1269 22.9808 11.0002 22.7064 11.2166Z" fill="#932F8F"/>
<path d="M15.1065 13.2275C14.8004 13.4281 14.4362 13.8345 14.1987 14.2356C13.4387 15.5128 13.4756 17.2914 14.2831 18.6372C14.5206 19.0278 15.0748 19.6242 15.3017 19.735C15.4654 19.8142 15.5076 19.8142 15.6712 19.7456C15.7715 19.7033 15.877 19.6242 15.9087 19.5661C16.0354 19.3286 15.9773 19.1967 15.5498 18.7375C14.8742 18.025 14.5945 17.3178 14.5945 16.3361C14.5945 15.745 14.6948 15.2911 14.9059 14.8636C15.0748 14.5311 15.5076 14.0297 15.7187 13.9136C15.9931 13.7658 16.0301 13.3858 15.7979 13.1695C15.6342 13.0164 15.3915 13.0375 15.1065 13.2275Z" fill="#932F8F"/>
<path d="M21.1706 13.2275C20.9331 13.5072 20.97 13.6075 21.4925 14.1511C22.1153 14.7897 22.4056 15.5391 22.4056 16.5155C22.4056 17.4919 22.1786 18.0461 21.4978 18.7216C21.1494 19.0647 21.0333 19.2177 21.0333 19.318C21.0333 19.5239 21.1283 19.6611 21.3289 19.7455C21.5875 19.8564 21.8144 19.7455 22.2683 19.2758C22.7011 18.8325 22.9439 18.4472 23.1181 17.93C23.5931 16.5261 23.3081 14.8794 22.3897 13.75C21.8356 13.0691 21.445 12.9002 21.1706 13.2275Z" fill="#932F8F"/>
<path d="M17.9723 14.415C17.3706 14.5786 16.9062 14.9692 16.637 15.5339C16.4787 15.8611 16.4681 15.9297 16.4681 16.4417C16.4681 16.9483 16.484 17.0222 16.6212 17.3125C16.827 17.7242 17.2281 18.1253 17.6134 18.2889L17.9195 18.4208V21.9358V25.4508L18.0409 25.6303C18.2679 25.9628 18.7323 25.9628 18.9593 25.6303L19.0806 25.4508V21.9358V18.4208L19.3868 18.2889C19.772 18.1253 20.1731 17.7242 20.379 17.3125C20.5215 17.0222 20.532 16.9483 20.532 16.4153C20.532 15.8611 20.5215 15.8189 20.3579 15.5022C20.0623 14.9322 19.6084 14.568 19.0015 14.415C18.6215 14.3147 18.3523 14.3147 17.9723 14.415Z" fill="#932F8F"/>
</svg>
