<svg width="37" height="37" viewBox="0 0 37 37" fill="none" xmlns="http://www.w3.org/2000/svg">
<rect y="-0.00012207" width="37" height="37" rx="8" fill="white"/>
<path d="M23.0691 8.17999C22.8878 8.04383 22.6221 7.91885 22.368 7.85012C22.0839 7.77507 13.3515 7.68681 13.0663 7.7561C12.3492 7.9313 11.8098 8.45313 11.6198 9.15693C11.5806 9.29888 11.5514 11.4679 11.4973 18.5827C11.4168 28.5281 11.409 27.9987 11.6183 28.4098C11.6755 28.5247 11.7766 28.6641 11.9178 28.8199C12.1781 29.1132 12.3994 29.2618 12.7453 29.3836C12.9892 29.4703 13.0153 29.4685 17.4496 29.5173C20.7694 29.5549 21.9723 29.555 22.153 29.5208C22.2935 29.4941 22.4925 29.43 22.6193 29.3691C22.8145 29.2728 22.869 29.2313 23.1115 28.9931C23.368 28.7451 23.3944 28.7113 23.4963 28.4958C23.5594 28.3701 23.6311 28.1764 23.652 28.0683C23.6832 27.9343 23.7183 25.0076 23.7683 18.6686C23.847 8.69309 23.8563 9.29264 23.6312 8.8533C23.5127 8.61954 23.2724 8.33442 23.0691 8.17999ZM17.5802 25.1681L12.7389 25.1211L12.7953 17.9643L12.8518 10.8074L17.6911 10.8563L22.5344 10.9052L22.4779 18.0621L22.4215 25.219L17.5802 25.1681ZM18.5524 26.7116C18.7264 27.0181 18.7558 27.3633 18.6328 27.6988C18.5672 27.8786 18.5449 27.9125 18.359 28.095C18.1732 28.2776 18.1389 28.2993 17.958 28.3616C17.6986 28.4533 17.4099 28.4503 17.1521 28.3535C16.9722 28.2875 16.9383 28.2651 16.7553 28.0788C16.5743 27.8946 16.5505 27.8582 16.4898 27.6832C16.3937 27.4035 16.3916 27.171 16.4798 26.9172C16.648 26.4337 17.0693 26.1353 17.5725 26.1424C17.9875 26.1445 18.3507 26.3567 18.5524 26.7116Z" fill="#932F8F"/>
<path d="M19.8473 15.5655C19.0464 14.9319 17.9979 14.6687 17.0001 14.8491C16.717 14.9003 16.2325 15.0699 15.9949 15.1998C15.2076 15.6349 14.6431 16.2888 14.3539 17.1099C13.9746 18.1787 14.1375 19.3793 14.7899 20.2981C14.9862 20.5747 15.3641 20.9595 15.6232 21.1465C17.1722 22.2549 19.292 21.9234 20.4488 20.3894C21.4639 19.0463 21.3702 17.1929 20.2234 15.9322C20.1061 15.8007 19.937 15.6366 19.8473 15.5655ZM17.8074 16.2005L17.7976 16.433L17.9896 16.483C18.3418 16.5748 18.543 16.7312 18.705 17.0336C18.79 17.1928 18.7901 17.4274 18.7053 17.5108C18.5113 17.7013 18.2514 17.6104 18.1615 17.3168C18.1341 17.2283 18.0886 17.1537 18.011 17.0747C17.8002 16.8641 17.7921 16.876 17.7756 17.4372L17.7616 17.9403L17.9276 17.9961C18.3955 18.1532 18.6306 18.332 18.7626 18.6281C18.8572 18.8415 18.8628 19.1503 18.7786 19.3961C18.7151 19.5739 18.6907 19.6097 18.527 19.7745C18.3613 19.9372 18.3231 19.9629 18.1441 20.0232C18.0316 20.0622 17.8889 20.0988 17.8227 20.1082L17.7003 20.125L17.6859 20.4176C17.6736 20.7122 17.6388 20.802 17.5346 20.801C17.4223 20.7998 17.385 20.7012 17.3873 20.4125L17.3895 20.1239L17.1994 20.0758C16.9333 20.007 16.7697 19.9171 16.5946 19.7429C16.4036 19.5525 16.3109 19.3651 16.2986 19.1465C16.2845 18.9017 16.3978 18.7706 16.6264 18.7649C16.7728 18.7603 16.8583 18.8434 16.9228 19.0505C17.011 19.3181 17.0882 19.4372 17.2359 19.5269C17.3037 19.5676 17.3737 19.5944 17.3857 19.5865C17.4018 19.5787 17.4179 19.3282 17.4282 19.0276L17.4446 18.4824L17.2427 18.4102C16.9788 18.3153 16.8112 18.2134 16.662 18.0615C16.4313 17.8266 16.3663 17.421 16.5036 17.0514C16.6244 16.7299 16.9591 16.4927 17.3563 16.4526L17.4948 16.4399L17.5026 16.2095C17.5105 15.9669 17.5553 15.8792 17.6736 15.8824C17.7879 15.8815 17.8193 15.958 17.8074 16.2005Z" fill="#932F8F"/>
<path d="M17.3502 16.9557C17.1752 17.0322 17.0741 17.1434 17.0449 17.2915C17.0031 17.5076 17.0841 17.6548 17.3157 17.7814C17.3715 17.8141 17.4296 17.8287 17.4417 17.8168C17.4599 17.7989 17.4928 16.9271 17.4749 16.9089C17.4729 16.9069 17.4166 16.9263 17.3502 16.9557Z" fill="#932F8F"/>
<path d="M17.9405 18.6678C17.8606 18.6309 17.7866 18.6001 17.7726 18.5979C17.7465 18.5997 17.7129 19.0585 17.716 19.4174C17.7164 19.6319 17.7203 19.64 17.7865 19.6306C17.9611 19.6063 18.157 19.4298 18.2207 19.24C18.2597 19.1181 18.2272 18.9233 18.1498 18.8243C18.1121 18.7738 18.0244 18.7087 17.9405 18.6678Z" fill="#932F8F"/>
</svg>
