<svg width="44" height="44" viewBox="0 0 44 44" fill="none" xmlns="http://www.w3.org/2000/svg">
<path d="M29.0389 7.98472C28.7919 7.79928 28.4301 7.62905 28.0841 7.53545C27.6972 7.43324 15.804 7.31303 15.4156 7.4074C14.4389 7.64601 13.7042 8.35672 13.4455 9.31527C13.3921 9.5086 13.3524 12.4627 13.2787 22.1527C13.1691 35.6979 13.1584 34.9769 13.4434 35.5368C13.5214 35.6932 13.6591 35.883 13.8513 36.0952C14.2059 36.4947 14.5074 36.6971 14.9784 36.863C15.3106 36.981 15.3461 36.9786 21.3855 37.0451C25.9068 37.0963 27.5451 37.0965 27.7912 37.0498C27.9826 37.0135 28.2536 36.9262 28.4263 36.8433C28.6922 36.7121 28.7664 36.6556 29.0966 36.3312C29.446 35.9934 29.4819 35.9474 29.6207 35.6539C29.7067 35.4827 29.8044 35.2188 29.8328 35.0717C29.8752 34.8892 29.9231 30.903 29.9912 22.2697C30.0983 8.68353 30.111 9.50009 29.8044 8.90173C29.6431 8.58336 29.3158 8.19504 29.0389 7.98472ZM21.5633 31.1216L14.9696 31.0577L15.0465 21.3104L15.1234 11.5631L21.7143 11.6297L28.3107 11.6964L28.2338 21.4437L28.1569 31.191L21.5633 31.1216ZM22.8874 33.2239C23.1244 33.6413 23.1643 34.1114 22.9969 34.5684C22.9076 34.8133 22.8772 34.8594 22.624 35.108C22.3709 35.3567 22.3242 35.3863 22.0778 35.4711C21.7246 35.5959 21.3314 35.5919 20.9802 35.4601C20.7352 35.3702 20.689 35.3397 20.4398 35.086C20.1933 34.835 20.1609 34.7855 20.0782 34.5471C19.9474 34.1663 19.9444 33.8495 20.0645 33.5039C20.2936 32.8454 20.8675 32.4389 21.5528 32.4486C22.118 32.4516 22.6127 32.7405 22.8874 33.2239Z" fill="#932F8F"/>
<path d="M24.6508 18.0435C23.5599 17.1805 22.132 16.822 20.773 17.0677C20.3874 17.1375 19.7275 17.3684 19.4039 17.5453C18.3316 18.138 17.5628 19.0285 17.169 20.1468C16.6524 21.6025 16.8743 23.2376 17.7627 24.489C18.0301 24.8657 18.5448 25.3897 18.8977 25.6445C21.0074 27.154 23.8944 26.7026 25.47 24.6133C26.8524 22.7841 26.7248 20.2598 25.1629 18.5429C25.0032 18.3638 24.7729 18.1403 24.6508 18.0435ZM21.8725 18.9083L21.8591 19.2249L22.1207 19.2931C22.6002 19.4181 22.8743 19.6311 23.095 20.0429C23.2107 20.2598 23.2109 20.5793 23.0953 20.6928C22.8311 20.9522 22.4772 20.8285 22.3547 20.4286C22.3174 20.3081 22.2554 20.2064 22.1498 20.0989C21.8626 19.812 21.8516 19.8283 21.8292 20.5926L21.8101 21.2778L22.0361 21.3538C22.6734 21.5677 22.9937 21.8113 23.1734 22.2145C23.3022 22.5052 23.3098 22.9258 23.1952 23.2605C23.1087 23.5026 23.0755 23.5515 22.8526 23.7758C22.6269 23.9975 22.5748 24.0324 22.3311 24.1146C22.1778 24.1677 21.9835 24.2176 21.8933 24.2303L21.7266 24.2532L21.707 24.6517C21.6902 25.0529 21.6428 25.1753 21.5009 25.1739C21.348 25.1723 21.2971 25.038 21.3002 24.6449L21.3033 24.2517L21.0445 24.1863C20.682 24.0925 20.4591 23.9701 20.2207 23.7329C19.9606 23.4736 19.8343 23.2183 19.8175 22.9205C19.7983 22.5872 19.9526 22.4086 20.264 22.4008C20.4633 22.3946 20.5799 22.5077 20.6677 22.7899C20.7877 23.1542 20.893 23.3164 21.0941 23.4386C21.1864 23.4941 21.2817 23.5306 21.2982 23.5198C21.3201 23.5091 21.3419 23.168 21.3561 22.7586L21.3783 22.0161L21.1033 21.9178C20.7439 21.7885 20.5156 21.6497 20.3125 21.4428C19.9983 21.1229 19.9098 20.5705 20.0967 20.0672C20.2613 19.6292 20.7171 19.3062 21.2581 19.2516L21.4467 19.2344L21.4573 18.9205C21.4681 18.5902 21.5292 18.4706 21.6902 18.475C21.8459 18.4738 21.8887 18.578 21.8725 18.9083Z" fill="#932F8F"/>
<path d="M21.25 19.9369C21.0116 20.0409 20.8739 20.1925 20.8341 20.3941C20.7771 20.6884 20.8875 20.8889 21.2029 21.0614C21.279 21.1058 21.358 21.1257 21.3745 21.1095C21.3993 21.0852 21.4442 19.8979 21.4198 19.873C21.4171 19.8703 21.3404 19.8968 21.25 19.9369Z" fill="#932F8F"/>
<path d="M22.0537 22.2687C21.9449 22.2185 21.8442 22.1765 21.8251 22.1736C21.7895 22.1759 21.7437 22.8008 21.748 23.2896C21.7484 23.5817 21.7538 23.5927 21.844 23.58C22.0818 23.5469 22.3486 23.3066 22.4353 23.048C22.4884 22.882 22.4441 22.6167 22.3387 22.4818C22.2874 22.4131 22.1679 22.3245 22.0537 22.2687Z" fill="#932F8F"/>
</svg>
