<svg width="22" height="22" viewBox="0 0 22 22" fill="none" xmlns="http://www.w3.org/2000/svg">
<path d="M6.36407 1.32756C3.10916 1.96882 0.340065 2.51293 0.213755 2.54208L0 2.59066V11.0437V19.4967L0.223471 19.5453C0.903601 19.7008 12.1063 21.8286 12.2521 21.8286C12.4269 21.8286 12.4367 21.5371 12.4367 10.9951C12.4367 5.03912 12.4075 0.161621 12.3686 0.171337C12.3201 0.171337 9.62869 0.696009 6.36407 1.32756ZM7.67575 7.00178C8.43361 7.28355 8.80282 7.59447 9.09431 8.18715C9.4538 8.9353 9.48295 9.99435 9.14289 10.6745C8.72509 11.5489 7.53972 12.3068 6.61669 12.3068C6.41265 12.3068 5.97543 12.3359 5.64508 12.3651L5.04268 12.4331L5.06211 13.8517L5.07183 15.2702L4.13908 15.2994L3.20633 15.3285V11.034V6.74916L5.22728 6.78803C6.79158 6.82689 7.33569 6.87547 7.67575 7.00178Z" fill="#932F8F"/>
<path d="M5.05249 9.56689C5.05249 10.2567 5.07192 10.8397 5.09135 10.8591C5.11079 10.8786 5.48972 10.8786 5.91723 10.8494C6.63622 10.8008 6.72367 10.7814 7.01515 10.4899C7.2872 10.2179 7.32607 10.111 7.32607 9.65434C7.33578 8.67301 6.92771 8.32322 5.74234 8.32322H5.05249V9.56689Z" fill="#932F8F"/>
<path d="M13.3112 3.844C13.3112 4.47554 13.3403 5.25284 13.3695 5.57347L13.4278 6.14672L13.9622 5.96211C14.2634 5.86495 14.6131 5.79694 14.7589 5.81637L15.0115 5.84552L15.0407 7.61386L15.0601 9.39191H16.8187H18.587L18.5385 9.85829C18.4316 10.9173 17.6349 12.025 16.5952 12.5594C15.9248 12.9092 14.6423 12.9966 13.933 12.7537C13.6804 12.6663 13.4472 12.6274 13.4181 12.6565C13.3889 12.6857 13.35 13.2784 13.3306 13.9682L13.2917 15.2216H15.3904H17.4891V16.0475V16.8733L15.4293 16.8928L13.3598 16.9219L13.3306 18.1559L13.3015 19.3995H17.2754H21.2493L21.4533 19.1761L21.6671 18.9526V11.0145C21.6671 3.20273 21.6671 3.07642 21.4727 2.8821C21.2881 2.69749 21.1521 2.68777 17.2948 2.68777H13.3112V3.844ZM17.1976 5.2334C17.8681 5.51517 18.3344 5.87467 18.7134 6.39934C19.0631 6.87543 19.4323 7.83733 19.4323 8.28427V8.51746H17.6349H15.8374V6.71026V4.91277L16.3038 4.97107C16.5564 5.00993 16.9547 5.12653 17.1976 5.2334Z" fill="#932F8F"/>
</svg>
