<svg width="15" height="15" viewBox="0 0 15 15" fill="none" xmlns="http://www.w3.org/2000/svg">
<path d="M2.8004 0.780699C2.20503 1.17595 1.44455 2.15656 1.10434 2.97707C0.619034 4.1378 0.498959 5.67376 0.784137 7.04962C1.0393 8.27038 1.70471 9.48614 2.56525 10.3117C2.92047 10.6469 2.98051 10.6869 3.15562 10.6869C3.31572 10.6869 3.37576 10.6569 3.48082 10.5318C3.69596 10.2766 3.66094 10.1816 3.14561 9.64624C2.63529 9.1109 2.41015 8.7907 2.11497 8.20534C1.40452 6.77444 1.31447 4.91828 1.88483 3.40234C2.15499 2.68689 2.67532 1.96644 3.20565 1.5812C3.53085 1.34605 3.63592 1.17094 3.58089 0.960812C3.54086 0.790705 3.33573 0.630605 3.16062 0.630605C3.09058 0.630605 2.92548 0.700648 2.8004 0.780699Z" fill="#932F8F"/>
<path d="M11.4011 0.730719C11.256 0.845791 11.186 1.08094 11.261 1.21602C11.286 1.27106 11.4962 1.5012 11.7263 1.73134C12.1866 2.19663 12.4118 2.51183 12.7119 3.11221C13.4874 4.67819 13.5224 6.76949 12.792 8.26042C12.5268 8.80076 12.1466 9.31108 11.8014 9.60126C11.161 10.1316 11.1059 10.2467 11.3461 10.5318C11.6062 10.842 11.9665 10.6969 12.6319 10.0215C14.0027 8.61565 14.5281 6.33922 13.9927 4.09782C13.7276 2.99713 13.1922 1.9865 12.4468 1.186C11.9415 0.645665 11.6613 0.52559 11.4011 0.730719Z" fill="#932F8F"/>
<path d="M4.19595 2.63682C3.90577 2.82694 3.56056 3.21218 3.33542 3.59242C2.61497 4.80318 2.64999 6.48923 3.41547 7.76503C3.64061 8.13526 4.16594 8.70061 4.38107 8.80568C4.53617 8.88073 4.57619 8.88073 4.73129 8.81568C4.82635 8.77566 4.92641 8.70061 4.95643 8.64558C5.0765 8.42044 5.02147 8.29536 4.61622 7.86009C3.97582 7.18467 3.71065 6.51425 3.71065 5.58366C3.71065 5.02331 3.80571 4.59305 4.00584 4.18779C4.16594 3.8726 4.57619 3.3973 4.77632 3.28723C5.03648 3.14714 5.0715 2.78692 4.85136 2.58179C4.69627 2.4367 4.46612 2.45671 4.19595 2.63682Z" fill="#932F8F"/>
<path d="M9.94451 2.63684C9.71936 2.902 9.75439 2.99706 10.2497 3.51238C10.8401 4.11776 11.1152 4.82821 11.1152 5.75379C11.1152 6.67936 10.9001 7.20469 10.2547 7.84509C9.92449 8.1703 9.81442 8.31539 9.81442 8.41045C9.81442 8.60557 9.90448 8.73565 10.0946 8.8157C10.3398 8.92077 10.5549 8.8157 10.9852 8.37042C11.3954 7.95016 11.6256 7.58493 11.7907 7.09462C12.2409 5.76379 11.9708 4.20282 11.1002 3.13215C10.5749 2.48674 10.2047 2.32664 9.94451 2.63684Z" fill="#932F8F"/>
<path d="M6.9132 3.76257C6.34284 3.91767 5.90256 4.2879 5.6474 4.82324C5.49731 5.13343 5.4873 5.19847 5.4873 5.68377C5.4873 6.16407 5.50231 6.23412 5.6324 6.50929C5.82752 6.89953 6.20775 7.27977 6.57298 7.43487L6.86316 7.55995V10.892V14.2241L6.97824 14.3942C7.19337 14.7094 7.63365 14.7094 7.84878 14.3942L7.96385 14.2241V10.892V7.55995L8.25403 7.43487C8.61926 7.27977 8.9995 6.89953 9.19462 6.50929C9.32971 6.23412 9.33971 6.16407 9.33971 5.65876C9.33971 5.13343 9.32971 5.09341 9.17461 4.79322C8.89443 4.25288 8.46417 3.90766 7.88881 3.76257C7.52858 3.66751 7.27342 3.66751 6.9132 3.76257Z" fill="#932F8F"/>
</svg>
