<svg width="15" height="15" viewBox="0 0 15 15" fill="none" xmlns="http://www.w3.org/2000/svg">
<g clip-path="url(#clip0_1_371)">
<path d="M6.87953 0.930568C6.38953 1.09192 6.07453 1.28424 5.66619 1.67213C5.06619 2.24256 4.61453 2.96782 4.20619 4.01578C4.10286 4.27818 4.09119 4.33685 4.13286 4.35641C4.14953 4.36456 4.84453 4.37271 5.69286 4.37597L7.22453 4.38086L7.21619 2.66468C7.21119 1.72102 7.20286 0.928939 7.19619 0.902862C7.17953 0.840929 7.13953 0.844189 6.87953 0.930568Z" fill="#932F8F"/>
<path d="M7.846 0.901153C7.83934 0.92723 7.82934 1.72094 7.826 2.66297L7.81934 4.37915L9.28267 4.37752C10.6493 4.37752 10.901 4.371 10.9327 4.34004C10.9593 4.31396 10.701 3.65226 10.5027 3.24155C10.336 2.8944 10.0243 2.41198 9.761 2.08928C9.396 1.64597 8.876 1.21407 8.516 1.05598C8.38434 0.997311 8.01934 0.879965 7.926 0.865297C7.86267 0.855518 7.85767 0.857148 7.846 0.901153Z" fill="#932F8F"/>
<path d="M5.0291 1.2826C3.95244 1.70309 3.04577 2.31752 2.34243 3.0982C1.9591 3.52358 1.4541 4.22765 1.4541 4.33522C1.4541 4.35152 1.48243 4.3613 1.54243 4.36944C1.65577 4.38248 2.91243 4.38248 3.2141 4.36781L3.44743 4.35804L3.51243 4.16898C3.91077 3.01019 4.42577 2.0975 5.05077 1.43743C5.1741 1.30705 5.24577 1.21904 5.23577 1.21089C5.23243 1.206 5.1391 1.2386 5.0291 1.2826Z" fill="#932F8F"/>
<path d="M9.81918 1.24509C9.82918 1.26139 9.91585 1.35918 10.0142 1.46185C10.4408 1.91494 10.8142 2.48374 11.1208 3.15685C11.2192 3.37198 11.4558 3.95219 11.5392 4.18688C11.5808 4.30423 11.6042 4.3466 11.6292 4.35475C11.7642 4.39061 13.0008 4.40202 13.4225 4.36942C13.5875 4.35638 13.5992 4.34823 13.5708 4.28141C13.5375 4.20155 13.2375 3.76314 13.0508 3.51866C12.2958 2.53589 11.2625 1.76826 10.0525 1.29398C9.84085 1.20924 9.79251 1.19946 9.81918 1.24509Z" fill="#932F8F"/>
<path d="M1.15768 4.97899C1.11268 4.98551 1.07768 5.05885 0.959344 5.3734C0.809344 5.78085 0.676011 6.37899 0.611011 6.95431C0.574344 7.27212 0.569344 8.0039 0.601011 8.2663C0.659344 8.73569 0.786011 9.34523 0.911011 9.74453C0.972678 9.94011 1.08768 10.2204 1.12101 10.253C1.14101 10.2726 3.13434 10.2726 3.22601 10.253C3.26768 10.2449 3.27268 10.2367 3.26601 10.1992C3.26268 10.1764 3.23101 10.0135 3.19768 9.83906C3.04101 9.0209 3.02934 8.85955 3.02934 7.61438C3.02934 6.38062 3.04101 6.22579 3.19768 5.406C3.23101 5.23161 3.26268 5.06863 3.26601 5.04418C3.27434 5.00507 3.26934 5.00018 3.21934 4.99203C3.15434 4.98062 1.21434 4.96921 1.15768 4.97899Z" fill="#932F8F"/>
<path d="M3.89598 4.98219C3.88764 4.99523 3.79264 5.49069 3.73931 5.79709C3.63098 6.41967 3.59598 7.08463 3.62098 8.00058C3.64431 8.86601 3.69098 9.27998 3.85098 10.0509L3.89764 10.2709L5.25431 10.2725C6.00098 10.2742 6.74931 10.2709 6.91764 10.266L7.22098 10.2579V7.62084V4.98219L7.04264 4.98056C6.49764 4.97241 3.90098 4.97404 3.89598 4.98219Z" fill="#932F8F"/>
<path d="M7.85962 4.97888L7.82129 4.98376V7.62241V10.2594L7.87629 10.2676C7.92129 10.2741 10.7196 10.2725 11.038 10.2643L11.148 10.2627L11.203 9.97259C11.378 9.04849 11.3846 8.9833 11.408 8.245C11.423 7.76747 11.423 7.47736 11.408 6.9982C11.3846 6.26479 11.3746 6.18167 11.203 5.27061L11.148 4.98213L11.0396 4.9805C10.8046 4.97562 7.89462 4.97399 7.85962 4.97888Z" fill="#932F8F"/>
<path d="M12.2013 4.98219C11.9763 4.98707 11.7846 4.99522 11.7779 5.00174C11.7713 5.00989 11.7863 5.10768 11.8096 5.22177C11.8629 5.47928 11.9446 5.9894 11.9779 6.29418C12.0613 7.03085 12.0579 8.24831 11.9713 9.0078C11.9363 9.30442 11.8363 9.92049 11.7963 10.0916C11.7613 10.2334 11.7629 10.2432 11.8263 10.2546C11.9046 10.2676 13.4029 10.2774 13.6979 10.2676L13.9513 10.2579L13.9846 10.1503C14.0029 10.0916 14.0596 9.91397 14.1129 9.75751C14.5263 8.50419 14.5813 7.28021 14.2779 6.05785C14.2129 5.79546 14.1979 5.74493 14.0513 5.29511L13.9479 4.98219L13.7813 4.97893C13.3729 4.97404 12.5796 4.97404 12.2013 4.98219Z" fill="#932F8F"/>
<path d="M1.80243 10.8658C1.51077 10.8789 1.4541 10.887 1.4541 10.9212C1.4541 10.9522 1.64577 11.257 1.81743 11.4998C2.38244 12.3033 3.18077 13.0172 4.0641 13.511C4.44077 13.7212 5.2191 14.0668 5.2491 14.0374C5.25244 14.0342 5.1891 13.9608 5.1091 13.8728C4.62577 13.3513 4.3241 12.9112 4.01077 12.2756C3.8241 11.8926 3.55244 11.2374 3.47077 10.9685C3.4591 10.931 3.43744 10.8952 3.42244 10.8903C3.33744 10.8577 2.35077 10.843 1.80243 10.8658Z" fill="#932F8F"/>
<path d="M11.9456 10.8642C11.7889 10.8723 11.6473 10.8821 11.6289 10.8886C11.6056 10.8951 11.5823 10.9343 11.5556 11.0076C11.1939 12.0164 10.8523 12.7124 10.4439 13.2665C10.3139 13.4425 10.2173 13.5566 9.98893 13.8043C9.78227 14.0292 9.76727 14.0521 9.82227 14.0358C9.95393 13.9966 10.3273 13.8353 10.6289 13.6854C11.3423 13.3333 11.8806 12.9552 12.4306 12.4223C12.8023 12.0621 13.0056 11.816 13.3189 11.358C13.5089 11.0793 13.6006 10.9228 13.5823 10.9049C13.5756 10.8984 13.5239 10.887 13.4656 10.8805C13.3089 10.8609 12.2656 10.8511 11.9456 10.8642Z" fill="#932F8F"/>
<path d="M4.19244 10.8805C4.15244 10.887 4.11577 10.8968 4.11077 10.9033C4.07244 10.9392 4.37077 11.6807 4.60411 12.1289C4.94077 12.776 5.37077 13.3317 5.85244 13.7408C6.23744 14.0668 6.49744 14.2069 6.97911 14.3471C7.15577 14.3976 7.18077 14.3976 7.19577 14.3422C7.20244 14.3161 7.21077 13.524 7.21577 12.5804L7.22411 10.8658L5.74411 10.8675C4.92911 10.8691 4.23077 10.8756 4.19244 10.8805Z" fill="#932F8F"/>
<path d="M7.826 12.5803C7.82934 13.524 7.83934 14.3177 7.846 14.3438C7.85767 14.3878 7.86267 14.3894 7.926 14.3796C8.02934 14.3633 8.39934 14.2411 8.531 14.1808C9.09434 13.9217 9.73934 13.2828 10.2143 12.5184C10.4343 12.1631 10.771 11.4444 10.9027 11.0467C10.9443 10.9196 10.946 10.9049 10.9093 10.8886C10.8927 10.8805 10.191 10.8723 9.34934 10.869L7.81934 10.8642L7.826 12.5803Z" fill="#932F8F"/>
</g>
<defs>
<clipPath id="clip0_1_371">
<rect width="14" height="14" fill="white" transform="translate(0.521484 0.630615)"/>
</clipPath>
</defs>
</svg>
