<svg width="13" height="15" viewBox="0 0 13 15" fill="none" xmlns="http://www.w3.org/2000/svg">
<path d="M3.5862 0.912398C2.51272 0.988093 1.50116 1.16013 0.524012 1.43538C-0.115951 1.61429 -0.0987475 1.58333 0.317573 1.80697C1.0642 2.20265 1.63191 2.61897 2.14456 3.14539C2.79141 3.81632 3.18364 4.5595 3.31095 5.36806C3.35224 5.62955 3.34191 6.37273 3.2903 6.57229C3.26966 6.66519 3.2731 6.66863 3.40729 6.66863C3.772 6.66863 4.73882 6.89915 4.88333 7.01957C4.92806 7.05398 4.95903 7.03678 5.06913 6.90947C5.14138 6.82346 5.20331 6.734 5.20331 6.71336C5.20331 6.60669 4.65281 6.41746 4.04725 6.31424L3.77544 6.26951L3.76856 5.87383C3.75823 5.39902 3.72039 5.12721 3.6034 4.72121C3.40385 4.03652 3.01849 3.39312 2.47143 2.82197C2.12736 2.46758 1.57341 2.02029 1.31536 1.88611C1.23967 1.84826 1.17774 1.80697 1.17774 1.79321C1.17774 1.74504 2.40605 1.81385 2.72604 1.88267C3.57932 2.05814 4.21928 2.42285 4.6356 2.96991C4.90398 3.3243 5.08289 3.72686 5.14826 4.12598C5.16891 4.24984 5.17579 4.25328 5.42007 4.31177C6.61398 4.60079 7.56705 5.25107 8.21733 6.22478C8.54764 6.72024 8.80569 7.31891 8.91923 7.8591L8.95708 8.03457L9.24953 8.10682C9.82412 8.24789 10.3471 8.57475 10.6808 9.0014C11.252 9.72737 11.541 10.8525 11.486 12.1324C11.4756 12.4008 11.4722 12.621 11.4791 12.621C11.5032 12.621 11.744 12.0257 11.8851 11.6232C12.0502 11.138 12.2016 10.529 12.2808 10.0233C12.3564 9.54502 12.3633 8.28574 12.2945 7.80404C12.181 7.00581 11.9264 6.18005 11.5548 5.41278C11.221 4.72465 10.9664 4.32209 10.3849 3.58235L10.3196 3.49634L11.0696 2.74627C11.7991 2.01341 11.8197 1.98933 11.7956 1.87922C11.7853 1.81729 11.7371 1.73128 11.6855 1.68655C11.51 1.53172 11.4756 1.55236 10.674 2.3506L9.93078 3.09034L9.77939 2.93207C9.0603 2.18544 8.03154 1.57989 6.92364 1.24958C6.00843 0.974331 4.64937 0.836704 3.5862 0.912398Z" fill="#932F8F"/>
<path d="M7.11292 5.91173C7.07507 5.92549 5.56462 7.42562 3.75484 9.23885C0.630714 12.3698 0.462122 12.5453 0.369224 12.7586C0.149022 13.2644 0.252241 13.9388 0.61007 14.3379C0.861239 14.6132 1.33261 14.7749 1.81086 14.7439C2.03106 14.7301 2.1274 14.7026 2.33384 14.6028C2.64006 14.4514 2.76048 14.3173 2.76048 14.1349C2.76048 14.0317 2.73984 13.987 2.67103 13.9319C2.54372 13.8321 2.46459 13.8425 2.32008 13.9663C2.1102 14.1521 1.9244 14.214 1.63883 14.1968C0.961018 14.1521 0.616952 13.5431 0.933493 12.941C0.97134 12.8653 2.39577 11.4133 4.27093 9.54163C7.42602 6.38998 7.543 6.26956 7.543 6.14569C7.543 5.93925 7.32624 5.81883 7.11292 5.91173Z" fill="#932F8F"/>
<path d="M6.7237 7.9452C6.50006 8.01402 6.26953 8.334 6.26953 8.58173C6.26953 8.82601 6.43812 9.08062 6.66521 9.18384C7.23636 9.44533 7.81783 8.84322 7.53569 8.28583C7.39119 8.00025 7.03336 7.84886 6.7237 7.9452Z" fill="#932F8F"/>
<path d="M9.41431 8.97052C8.96014 9.17696 8.95326 9.8066 9.40054 10.0302C9.58978 10.13 9.74805 10.13 9.94073 10.0371C10.2125 9.90638 10.3467 9.51414 10.2125 9.25609C10.0508 8.94643 9.72397 8.82945 9.41431 8.97052Z" fill="#932F8F"/>
<path d="M6.13579 9.68268C5.92935 9.7859 5.77452 9.97514 5.71603 10.1919C5.6885 10.2986 5.69194 10.5428 5.73323 11.1931C5.7642 11.6645 5.7986 12.1496 5.80893 12.2666L5.82957 12.4765L5.94311 12.4593L6.05665 12.4421L6.0773 12.7621C6.08762 12.941 6.10826 13.4881 6.12547 13.9801L6.14955 14.8746L6.95123 14.885L7.74946 14.8918L7.7529 14.6785C7.75634 14.5581 7.7701 14.011 7.78043 13.464L7.80107 12.4662L7.93182 12.4559C8.02471 12.449 8.05912 12.4283 8.05912 12.387C8.05912 12.3561 8.09009 11.8744 8.13137 11.3204C8.21739 10.1713 8.21395 10.1334 7.97998 9.8788C7.73226 9.61043 7.67033 9.59323 6.94779 9.59323C6.33535 9.59323 6.31126 9.59667 6.13579 9.68268Z" fill="#932F8F"/>
<path d="M4.29525 10.4293C4.11634 10.5325 4.02688 10.7011 4.04408 10.9041C4.06129 11.114 4.16795 11.2585 4.36062 11.3308C4.55674 11.4065 4.71845 11.3789 4.87672 11.2413C5.09004 11.0521 5.11757 10.7665 4.93865 10.5566C4.75974 10.3399 4.52922 10.2951 4.29525 10.4293Z" fill="#932F8F"/>
<path d="M8.97124 10.4775C8.80953 10.56 8.67535 10.6977 8.60653 10.8491C8.54804 10.9729 8.54116 11.083 8.54116 11.8847C8.54116 12.8825 8.5274 12.8274 8.76824 12.8274C8.88523 12.8274 8.88867 12.8309 8.86802 12.9375C8.74416 13.5982 8.55492 14.8471 8.57213 14.8643C8.58589 14.8815 9.07102 14.8815 9.65249 14.8678C10.6434 14.8471 10.7088 14.8437 10.7088 14.7852C10.7088 14.7232 10.4851 13.0717 10.4507 12.8859C10.437 12.793 10.437 12.793 10.6228 12.793H10.812V11.9157C10.812 10.8422 10.7982 10.794 10.4198 10.5188L10.2856 10.419H9.68002C9.19833 10.4224 9.05382 10.4327 8.97124 10.4775Z" fill="#932F8F"/>
<path d="M3.9375 11.6955C3.76203 11.7849 3.62096 11.9742 3.59687 12.1634C3.58999 12.2357 3.61408 12.5866 3.65193 12.9444C3.69321 13.3023 3.72418 13.6085 3.72418 13.6222C3.72418 13.6394 3.76203 13.6532 3.8102 13.6532H3.89621L3.90309 14.2622L3.91342 14.8746L4.50177 14.885L5.09012 14.8918L5.11421 14.4377C5.14861 13.7736 5.16238 13.6945 5.24839 13.6807C5.31721 13.6704 5.32753 13.6222 5.41698 12.9307C5.5202 12.1256 5.51676 12.0602 5.35161 11.8606C5.18302 11.6611 5.05227 11.6232 4.54306 11.6232C4.14394 11.6232 4.0648 11.6335 3.9375 11.6955Z" fill="#932F8F"/>
</svg>
