<svg width="19" height="15" viewBox="0 0 19 15" fill="none" xmlns="http://www.w3.org/2000/svg">
<path d="M3.38034 0.979378C2.86402 1.14028 2.49113 1.4299 2.02262 2.00914C1.40113 2.78146 1.38201 2.98526 1.38201 8.25205V12.9289L1.09517 12.9932C0.722273 13.079 0.521484 13.5403 0.521484 14.3019V14.8918H4.11657H7.72121L7.6734 14.1946C7.61603 13.4223 7.5013 13.2078 7.05191 12.9932L6.73638 12.8538V9.36762V5.88146H11.8326C17.5312 5.88146 17.3591 5.90291 17.9901 5.09841C18.6881 4.19737 18.4586 2.77073 17.5025 2.1164C17.2157 1.92332 16.9479 1.9126 11.6509 1.9126C6.12446 1.9126 6.09577 1.9126 5.91411 1.68734C5.40735 1.05446 4.20262 0.721938 3.38034 0.979378ZM4.69025 2.51329C5.6177 3.00671 5.63683 4.65862 4.71893 5.19495C3.79148 5.72056 2.61543 4.84097 2.74929 3.71467C2.88315 2.63128 3.8106 2.05204 4.69025 2.51329ZM8.78252 3.83267C9.12673 4.34755 9.41357 4.80879 9.41357 4.8517C9.41357 4.88388 9.12673 4.91606 8.77296 4.91606L8.12279 4.90533L7.5491 4.03647C6.71726 2.77073 6.72682 2.878 7.48217 2.878H8.15147L8.78252 3.83267ZM12.3298 3.75758C13.1616 5.02333 13.1521 4.91606 12.3967 4.91606H11.7274L11.0486 3.89703L10.3697 2.878H11.0581L11.7561 2.88872L12.3298 3.75758ZM15.9536 3.83267C16.2978 4.34755 16.5846 4.80879 16.5846 4.8517C16.5846 4.88388 16.2978 4.91606 15.944 4.91606L15.2938 4.90533L14.7201 4.03647C13.8883 2.77073 13.8979 2.878 14.6532 2.878H15.3225L15.9536 3.83267Z" fill="#932F8F"/>
</svg>
