<svg width="59" height="59" viewBox="0 0 59 59" fill="none" xmlns="http://www.w3.org/2000/svg">
<circle cx="29.5" cy="29.5" r="29.5" fill="#0257E6" fill-opacity="0.05"/>
<path d="M21.3026 23.8342C20.6066 24.0276 20.104 24.3756 19.4724 25.0716C18.6346 25.9996 18.6089 26.2445 18.6089 32.5729V38.1925L18.2222 38.2698C17.7195 38.3729 17.4489 38.9271 17.4489 39.8422V40.5511H22.2951H27.1542L27.0897 39.7133C27.0124 38.7853 26.8577 38.5276 26.252 38.2698L25.8266 38.1022V33.9133V29.7245H32.6964C40.3782 29.7245 40.1462 29.7502 40.9969 28.7836C41.9377 27.7009 41.6284 25.9867 40.3395 25.2004C39.9529 24.9685 39.592 24.9556 32.4515 24.9556C25.0017 24.9556 24.9631 24.9556 24.7182 24.6849C24.0351 23.9244 22.4111 23.5249 21.3026 23.8342ZM23.0684 25.6773C24.3186 26.2702 24.3444 28.2551 23.1071 28.8996C21.8569 29.5311 20.2715 28.4742 20.452 27.1209C20.6324 25.8191 21.8826 25.1231 23.0684 25.6773ZM28.5849 27.2627C29.0489 27.8813 29.4355 28.4356 29.4355 28.4871C29.4355 28.5258 29.0489 28.5645 28.572 28.5645L27.6955 28.5516L26.9222 27.5076C25.8009 25.9867 25.8137 26.1156 26.832 26.1156H27.7342L28.5849 27.2627ZM33.3666 27.1725C34.488 28.6933 34.4751 28.5645 33.4569 28.5645H32.5546L31.6395 27.34L30.7244 26.1156H31.6524L32.5933 26.1285L33.3666 27.1725ZM38.2515 27.2627C38.7155 27.8813 39.1022 28.4356 39.1022 28.4871C39.1022 28.5258 38.7155 28.5645 38.2386 28.5645L37.3622 28.5516L36.5889 27.5076C35.4675 25.9867 35.4804 26.1156 36.4986 26.1156H37.4009L38.2515 27.2627Z" fill="#932F8F"/>
</svg>
