<svg width="125" height="125" viewBox="0 0 125 125" fill="none" xmlns="http://www.w3.org/2000/svg">
<circle cx="62.5" cy="62.5" r="62.5" fill="#0257E6" fill-opacity="0.05"/>
<path d="M84.3337 39.056C82.2091 39.2773 80.4829 40.1183 78.8894 41.6969C75.2009 45.3559 75.2009 51.0067 78.8894 54.6952C80.7042 56.51 82.7402 57.3362 85.3959 57.3362C87.9926 57.3362 89.9402 56.51 91.8287 54.6214C93.791 52.6444 94.6615 50.4018 94.4992 47.6723C94.3516 45.2526 93.5402 43.4674 91.7549 41.6969C89.6746 39.6314 87.2402 38.7609 84.3337 39.056ZM87.7861 43.8658C88.7599 44.8248 89.6599 45.7985 89.7779 46.0346C90.5008 47.4215 88.6861 48.8379 87.491 47.8198C87.2402 47.6133 87.0041 47.451 86.9599 47.451C86.9156 47.451 86.8713 48.7493 86.8713 50.328V53.2051L86.4435 53.6772C86.0746 54.0903 85.9123 54.1641 85.3369 54.1641C84.8058 54.1641 84.5845 54.0755 84.2599 53.751L83.8468 53.3526L83.8025 50.4018L83.7582 47.4657L83.2271 47.8346C82.2828 48.469 81.2501 48.1887 80.8222 47.1707C80.5124 46.3887 80.8222 45.8723 82.7992 43.9248C84.614 42.1543 84.6435 42.1396 85.3222 42.1396C86.0009 42.1396 86.0304 42.1543 87.7861 43.8658Z" fill="#932F8F"/>
<path d="M39.5125 48.3953C38.1404 48.7494 36.9748 49.8117 36.4584 51.1248C36.2076 51.7592 36.1928 52.733 36.1486 66.1149C36.1043 80.7213 36.1338 81.5918 36.665 82.6098C37.0338 83.3328 37.9191 84.1885 38.6863 84.6016L39.4387 85H62.3074H85.1762L85.7958 84.6607C86.7253 84.1738 87.3598 83.5541 87.8319 82.6836C88.2155 81.9902 88.2745 81.7246 88.3188 80.382L88.3778 78.8771H81.5319C73.9926 78.8771 73.8893 78.8623 72.2812 77.9476C71.2041 77.3427 69.9353 76.0443 69.3599 74.9525C66.9697 70.4525 69.4484 64.9198 74.3615 63.7542C75.1139 63.5772 76.5893 63.5329 81.827 63.5329H88.3483V61.8214V60.11L87.9499 60.2133C87.7139 60.2723 86.7106 60.346 85.6926 60.3903C84.1434 60.4493 83.627 60.4051 82.5204 60.1542C79.0385 59.328 75.9254 56.8346 74.332 53.6035C73.7271 52.3494 73.1516 50.4166 73.1516 49.5904C73.1516 49.3248 73.1074 48.8969 73.0631 48.6461L72.9598 48.1887L56.5681 48.2035C44.1158 48.2035 40.0141 48.2478 39.5125 48.3953Z" fill="#932F8F"/>
<path d="M74.7003 66.8378C71.4396 67.8559 70.4511 72.2968 72.9593 74.6132C74.2872 75.8378 74.0806 75.8083 81.6494 75.823L88.3477 75.8525V71.2345V66.6313L81.8265 66.646C77.0167 66.646 75.1281 66.7051 74.7003 66.8378ZM77.0019 70.1427C77.3855 70.4821 77.474 70.6739 77.474 71.1755C77.474 72.2673 76.7216 72.946 75.7183 72.7542C74.4937 72.5329 74.0363 71.028 74.9068 70.1575C75.5117 69.5673 76.3527 69.5526 77.0019 70.1427Z" fill="#932F8F"/>
</svg>
