<svg width="60" height="60" viewBox="0 0 60 60" fill="none" xmlns="http://www.w3.org/2000/svg">
<rect width="60" height="60" rx="30" fill="#FFE4E4"/>
<path d="M31.8582 16.0608C31.3105 16.5383 25.0889 23.8694 25.0889 24.0519C25.0889 24.1502 25.1872 24.3328 25.3136 24.4452C25.4961 24.6277 25.9034 24.6699 27.5606 24.6699H29.583V28.2371V31.8184L29.9482 32.0993C30.2852 32.3661 30.5099 32.3942 32.3216 32.3942C35.2007 32.3942 34.976 32.7453 35.0322 28.2652L35.0743 24.6699H37.0826C39.2314 24.6699 39.4842 24.5856 39.3859 23.9817C39.3578 23.8272 38.0798 22.2262 36.5349 20.4285C32.2233 15.4007 32.4199 15.5833 31.8582 16.0608Z" fill="#F4643D"/>
<path d="M15.5014 17.9836C15.1056 18.17 14.8946 18.756 15.0529 19.1688C15.264 19.7681 15.5146 19.8613 16.9131 19.8879C17.6519 19.9013 18.2852 19.9679 18.3511 20.0344C18.4435 20.1277 20.5412 26.8528 22.9159 34.6168C22.9687 34.7766 22.8236 34.8964 22.3882 35.0562C20.0926 35.9485 19.4989 39.0913 21.2932 40.8226C21.7417 41.262 22.7444 41.7814 23.1402 41.7947C23.2589 41.7947 23.5096 42.0611 23.6943 42.3807C24.5914 43.9255 26.3197 44.4582 27.8633 43.6591C28.3251 43.4194 28.6549 43.0865 29.2222 42.2741L29.4597 41.9279H31.5706C33.6023 41.9279 33.6946 41.9412 33.9321 42.2209C35.2778 43.8589 35.4625 43.9787 36.7686 43.9787C37.9824 43.9787 38.6948 43.6059 39.3413 42.6204L39.7898 41.9279H41.0828C42.2965 41.9279 42.4153 41.9013 42.7055 41.595C43.1277 41.1821 43.1277 40.6761 42.7055 40.2633C42.4153 39.957 42.2833 39.9303 41.1355 39.9303C40.2912 39.9303 39.8294 39.8771 39.7371 39.7572C39.6579 39.6773 39.4204 39.3444 39.1962 39.0248C38.9323 38.6386 38.5761 38.3456 38.1143 38.1192C36.5971 37.4134 35.0535 37.9194 34.1168 39.4243L33.8002 39.9303H31.6233H29.4597L29.0639 39.3444C28.1404 37.986 26.9398 37.5199 25.449 37.9461C24.8817 38.1059 23.9846 38.8516 23.7075 39.411C23.47 39.8504 23.1666 39.8105 22.6389 39.2378C21.8605 38.4388 22.2563 37.1737 23.3645 36.8674C23.6547 36.7875 26.953 36.7342 31.8608 36.7342C40.8849 36.7342 40.6738 36.7608 40.9112 35.8419C42.0459 31.5139 44.0644 22.9775 43.9984 22.7911C43.8401 22.3383 43.5235 22.0853 43.1013 22.0853C42.2569 22.0853 42.2833 22.0187 40.6606 28.4909L39.1434 34.5369H32.0851H25.0268L22.5201 26.44C20.4884 19.8613 19.9607 18.2899 19.6968 18.0768C19.433 17.8504 19.1691 17.8238 17.5859 17.8371C16.5965 17.8371 15.6597 17.9037 15.5014 17.9836ZM37.6394 40.1434C38.6552 41.2354 37.0325 42.7536 35.9902 41.7148C35.4097 41.1156 35.5681 40.1967 36.3333 39.8771C36.8478 39.6507 37.27 39.7439 37.6394 40.1434ZM27.2564 40.21C27.705 40.7427 27.6918 41.1955 27.2169 41.6749C26.6759 42.2209 26.0295 42.2076 25.5677 41.6482C25.1324 41.1289 25.1324 40.6095 25.5545 40.1434C26.0295 39.624 26.7947 39.6507 27.2564 40.21Z" fill="#F4643D"/>
</svg>
