<svg width="60" height="60" viewBox="0 0 60 60" fill="none" xmlns="http://www.w3.org/2000/svg">
<rect width="60" height="60" rx="30" fill="#E9F6FF"/>
<path d="M34.9899 14.1875C34.8468 14.3663 34.6412 14.6078 34.5383 14.7329C34.431 14.8536 33.8856 15.5108 33.3223 16.1859C32.759 16.8609 32.2404 17.4779 32.1689 17.5494C32.0929 17.6254 31.8157 17.9562 31.543 18.2871C31.2748 18.6179 30.9216 19.0426 30.7607 19.2303C30.5997 19.4181 30.26 19.8294 30.0007 20.1423C29.4687 20.7951 28.8517 21.5282 28.3689 22.0871C27.3765 23.2315 25.9772 24.9303 25.9772 24.9885C25.9772 25.0153 26.0174 25.0421 26.0621 25.06C26.1113 25.0734 26.2275 25.1405 26.3214 25.2031C26.5002 25.3238 27.0501 25.6367 27.6268 25.9407C27.8146 26.0391 28.0694 26.1866 28.1901 26.2626C28.3153 26.3431 28.6014 26.5085 28.8339 26.6292C29.5492 27.0002 29.9828 27.5188 30.1527 28.2162C30.2421 28.5828 30.2421 28.7616 30.1527 29.164C30.0677 29.5351 30.0096 29.6647 29.7727 29.9821C29.5357 30.304 29.2586 30.532 28.8607 30.7376C28.5165 30.912 28.5075 30.9165 28.0157 30.9165C27.5329 30.9165 27.5016 30.912 26.7148 30.6527C26.2722 30.5096 25.4899 30.2548 24.9713 30.0894C24.4572 29.9195 23.9922 29.7675 23.943 29.7496C23.8536 29.7183 23.9877 29.8346 24.6002 30.3308C24.779 30.4783 24.9757 30.6527 25.0383 30.7198C25.1009 30.7868 25.2619 30.9299 25.396 31.0372C25.5301 31.1445 25.8833 31.4306 26.1739 31.6765C26.4689 31.9223 27.1306 32.4722 27.6447 32.8969C28.7087 33.7732 29.1021 34.1085 29.643 34.5823C29.8532 34.7656 30.1348 35.0071 30.2689 35.1233L30.5148 35.3245L30.6892 35.1322C30.783 35.0249 30.9663 34.8148 31.0915 34.6628C31.2167 34.5108 31.4939 34.1889 31.704 33.9475C31.9141 33.7061 32.4148 33.1071 32.8172 32.6153C33.224 32.1235 33.6845 31.5692 33.8454 31.3814C34.0063 31.1981 34.3461 30.7868 34.6054 30.4694C34.8647 30.152 35.2 29.7586 35.352 29.5887C35.504 29.4233 35.9063 28.9494 36.2416 28.5336C36.5814 28.1223 36.939 27.6932 37.0374 27.5814C37.1402 27.4652 37.3772 27.1835 37.5649 26.9555C38.2847 26.0748 39.143 25.0555 39.2503 24.9482C39.3129 24.8856 39.6393 24.5056 39.9701 24.0988C40.3009 23.6965 40.6541 23.2718 40.7524 23.16C40.8508 23.0438 41.1414 22.6951 41.4007 22.3821C41.66 22.0647 42.0579 21.5863 42.2859 21.3092C42.5183 21.0365 42.7776 20.7235 42.867 20.6162L43.0324 20.4195L42.8581 20.2809C42.7597 20.2049 42.4736 19.9591 42.2188 19.74C41.0788 18.7565 40.3635 18.1574 38.2892 16.4541C37.8242 16.0741 37.3637 15.6807 37.2654 15.5868C37.167 15.4885 36.9748 15.3186 36.8362 15.2068C36.6976 15.0951 36.4786 14.9118 36.3444 14.8C36.2103 14.6882 35.9242 14.4468 35.7007 14.2635C35.4816 14.0802 35.2894 13.9148 35.276 13.8969C35.2626 13.8791 35.1329 14.0087 34.9899 14.1875ZM33.452 21.3986C34.1181 21.5416 34.9049 22.0379 35.3877 22.6101C35.9332 23.2673 36.2148 24.0183 36.2148 24.832C36.2148 25.3729 36.1433 25.6814 35.9153 26.1508C35.5532 26.884 35.115 27.3087 34.355 27.644C33.8499 27.872 33.6084 27.9122 32.9557 27.8854C32.4148 27.8631 32.2136 27.8228 31.856 27.6529C31.78 27.6216 31.6682 27.5725 31.6056 27.5456C31.3776 27.4607 30.8725 27.1031 30.6087 26.8438C30.1795 26.4191 29.8129 25.7976 29.6654 25.2522C29.5447 24.8007 29.5894 23.7591 29.7459 23.3075C29.9649 22.6682 30.6221 21.9619 31.3285 21.6042C31.4939 21.5193 32.0482 21.3583 32.3477 21.3136C32.5623 21.2779 33.0988 21.3181 33.452 21.3986Z" fill="#932F8F"/>
<path d="M32.034 22.6906C31.891 22.78 31.7434 22.8918 31.7121 22.9365C31.6272 23.0572 31.5825 23.0483 31.3992 22.8918C31.3187 22.8158 31.2248 22.7577 31.1935 22.7577C31.1623 22.7577 31.0326 22.8829 30.903 23.0349L30.666 23.3165L30.894 23.5177L31.122 23.7189L31.055 23.9156C30.8851 24.3895 31.0281 24.9528 31.3858 25.212C31.8239 25.5295 32.119 25.5116 32.8834 25.1271C33.1785 24.9796 33.4557 24.8589 33.4959 24.8589C33.5317 24.8589 33.6121 24.8946 33.6658 24.9393C33.7463 25.0064 33.7641 25.0466 33.7373 25.1495C33.6881 25.3506 33.2366 25.7843 32.9415 25.9184C32.7985 25.981 32.6823 26.057 32.6823 26.0838C32.6867 26.1106 32.7404 26.2045 32.8074 26.2939C32.8745 26.3833 32.9907 26.5398 33.0667 26.6382L33.2098 26.8259L33.4601 26.6918C33.5987 26.6203 33.8044 26.4862 33.9117 26.3968L34.1084 26.2358L34.3051 26.3968C34.4124 26.4862 34.5197 26.5577 34.542 26.5532C34.5912 26.5532 35.007 26.048 35.007 25.9899C35.007 25.9676 34.9086 25.8737 34.7834 25.7798C34.6627 25.6859 34.5599 25.6055 34.5599 25.601C34.5599 25.601 34.6001 25.4892 34.6493 25.3596C34.8371 24.8678 34.7566 24.4833 34.3811 24.1033C33.9117 23.625 33.4557 23.6205 32.651 24.081C32.119 24.385 31.958 24.3939 31.9312 24.1078C31.9133 23.929 32.186 23.6205 32.5437 23.4193C32.6823 23.3433 32.7985 23.2763 32.8074 23.2673C32.8298 23.2539 32.3514 22.5386 32.3201 22.5342C32.3067 22.5342 32.1771 22.6057 32.034 22.6906Z" fill="#932F8F"/>
<path d="M23.63 19.2438C23.326 19.3019 22.7225 19.4584 22.1324 19.6283C21.9714 19.6774 21.7121 19.7445 21.5512 19.7847C21.3903 19.825 21.0416 19.9233 20.7688 20.0083C18.7928 20.6029 18.4039 20.7012 17.9658 20.7012H17.5947L17.6081 23.9424L17.6171 27.1836H17.7244C17.7825 27.1836 17.9568 27.1433 18.1133 27.0986C18.9672 26.8349 20.0714 26.5621 20.219 26.5756C20.4783 26.6024 20.7331 26.7767 21.1936 27.2596C21.426 27.5054 21.7211 27.7826 21.8418 27.8765C22.11 28.0821 22.8879 28.4577 23.1785 28.5247C23.2947 28.5516 23.5093 28.6186 23.6524 28.6812C23.7954 28.7393 24.0413 28.8198 24.1978 28.8556C24.3498 28.8913 24.9712 29.0836 25.5747 29.2803C26.9383 29.7363 27.2601 29.8346 27.658 29.9374C27.9665 30.0134 27.9888 30.0134 28.2794 29.933C28.6773 29.8257 28.9187 29.6424 29.0841 29.3116C29.3479 28.7751 29.263 28.1537 28.8695 27.7781C28.7667 27.6753 28.4627 27.4786 28.19 27.3356C27.9218 27.197 27.6223 27.0316 27.5328 26.9734C27.439 26.9153 27.354 26.8706 27.3451 26.8706C27.3361 26.8706 27.2199 26.7991 27.0903 26.7141C26.9561 26.6292 26.8354 26.5577 26.8175 26.5577C26.7952 26.5577 26.4957 26.3967 26.1514 26.2C25.8027 26.0033 25.5121 25.8424 25.5032 25.8424C25.4943 25.8424 25.378 25.7709 25.2439 25.6859C25.1098 25.601 24.9846 25.5294 24.9712 25.5294C24.9578 25.5294 24.7566 25.4177 24.5286 25.2836C24.1486 25.06 24.1039 25.0198 24.0145 24.8186C23.9653 24.6979 23.9206 24.5414 23.9206 24.4744C23.9206 24.2732 24.1441 23.9245 24.3453 23.8038C24.5197 23.7054 24.5778 23.6965 25.1768 23.692H25.8206L26.1157 23.3254C27.0858 22.1318 28.0872 20.9337 28.5343 20.4374C28.7265 20.2273 28.883 20.0306 28.883 19.9993C28.883 19.9278 28.6639 19.8741 28.0559 19.7847C27.7877 19.7445 27.2914 19.664 26.9606 19.6059C24.7164 19.1946 24.1844 19.1365 23.63 19.2438Z" fill="#932F8F"/>
<path d="M14.6305 20.3078C14.7288 21.3852 14.8093 22.2391 14.8898 22.9588C14.9345 23.4014 14.9837 23.9334 15.0016 24.1435C15.015 24.3537 15.0552 24.7963 15.091 25.1271C15.1267 25.4579 15.167 25.9497 15.1804 26.2224C15.1938 26.4906 15.2161 26.7454 15.2251 26.7812C15.234 26.817 15.2653 27.1299 15.2921 27.4741C15.3145 27.8184 15.3503 28.2163 15.3637 28.3548L15.395 28.6141H15.9895H16.5886V24.2777V19.9412H15.5917H14.5947L14.6305 20.3078Z" fill="#932F8F"/>
<path d="M23.4513 35.6106C22.9193 35.8252 22.6913 36.2454 22.7225 36.9473C22.736 37.3183 22.7538 37.3854 22.8835 37.5821C22.9595 37.7028 23.0847 37.8503 23.1607 37.904C23.5451 38.1901 25.0964 39.5492 26.156 40.5327C27.5374 41.8113 28.5477 42.4059 29.8889 42.7277C30.1616 42.7903 30.6489 42.8037 33.5548 42.8306C37.0776 42.8619 37.091 42.8619 37.5113 43.072C37.9673 43.3 38.1953 43.4922 38.4456 43.8499C38.5037 43.9303 38.5931 44.0153 38.6468 44.0332C38.7496 44.0734 39.1654 44.0421 40.8195 43.8767C41.423 43.8141 42.2367 43.7336 42.6301 43.6979C44.1724 43.5548 45.6343 43.4073 45.7908 43.3849L45.9517 43.3626L45.8087 43.0407C45.7282 42.8619 45.6254 42.5981 45.5807 42.4506C45.5404 42.303 45.4644 42.1019 45.4153 42.0035C45.3661 41.9052 45.2677 41.6548 45.1962 41.4492C45.1202 41.2435 45.0129 40.9708 44.9593 40.8456C44.9011 40.7205 44.7894 40.4477 44.7134 40.2376C44.5211 39.7369 43.864 38.3913 43.6494 38.0605C42.8536 36.84 42.0578 36.1873 41.0207 35.9056C40.2428 35.691 40.064 35.6821 36.2014 35.6776H32.5668L32.2896 35.8162C31.9811 35.9682 31.8247 36.1426 31.695 36.4823C31.5743 36.7997 31.5833 37.1216 31.7263 37.4212C31.8962 37.7877 32.0169 37.9219 32.3075 38.0694L32.5713 38.2035L34.44 38.2259L36.3131 38.2482L36.3981 38.3555C36.4562 38.427 36.483 38.5299 36.483 38.6729C36.483 38.8562 36.4651 38.9054 36.3668 38.9814C36.2506 39.0753 36.2103 39.0753 33.443 39.0753C30.3941 39.0753 30.3404 39.0708 29.576 38.816C29.1244 38.6685 28.9501 38.5567 27.3183 37.4256C27.0367 37.2289 26.4823 36.8489 26.0889 36.5807C25.6955 36.3125 25.235 35.9995 25.0651 35.8833C24.8908 35.767 24.6538 35.6329 24.5376 35.5837C24.2247 35.463 23.791 35.472 23.4513 35.6106Z" fill="#932F8F"/>
<path d="M46.2509 44.3551C46.0318 44.3774 45.3746 44.4445 44.7979 44.5071C44.2212 44.5652 43.6266 44.6278 43.4791 44.6412C42.4464 44.7351 42.1335 44.7619 41.3779 44.82C40.913 44.8558 40.3586 44.9049 40.1485 44.9273C39.9384 44.9496 39.5986 44.9854 39.3885 44.9988C39.1784 45.0122 38.8386 45.0435 38.6285 45.0703C38.4184 45.0927 38.2217 45.1106 38.1904 45.1106C38.1457 45.1106 38.1368 45.2447 38.1457 45.7007L38.1591 46.2953H42.4956H46.832L46.8455 45.2983L46.8544 44.3059L46.756 44.3103C46.6979 44.3148 46.4744 44.3372 46.2509 44.3551Z" fill="#932F8F"/>
</svg>
