<svg width="115" height="20" viewBox="0 0 115 20" fill="none" xmlns="http://www.w3.org/2000/svg">
<path d="M9.5 0.823975L11.6329 7.38831H18.535L12.9511 11.4453L15.084 18.0096L9.5 13.9527L3.91604 18.0096L6.04892 11.4453L0.464963 7.38831H7.36712L9.5 0.823975Z" fill="#FFB800"/>
<path d="M33.5 0.823975L35.6329 7.38831H42.535L36.9511 11.4453L39.084 18.0096L33.5 13.9527L27.916 18.0096L30.0489 11.4453L24.465 7.38831H31.3671L33.5 0.823975Z" fill="#FFB800"/>
<path d="M57.5 0.823975L59.6329 7.38831H66.535L60.9511 11.4453L63.084 18.0096L57.5 13.9527L51.916 18.0096L54.0489 11.4453L48.465 7.38831H55.3671L57.5 0.823975Z" fill="#FFB800"/>
<path d="M81.5 0.823975L83.6329 7.38831H90.535L84.9511 11.4453L87.084 18.0096L81.5 13.9527L75.916 18.0096L78.0489 11.4453L72.465 7.38831H79.3671L81.5 0.823975Z" fill="#FFB800"/>
<path d="M105.5 0.823975L107.633 7.38831H114.535L108.951 11.4453L111.084 18.0096L105.5 13.9527L99.916 18.0096L102.049 11.4453L96.465 7.38831H103.367L105.5 0.823975Z" fill="#FFB800"/>
</svg>
