<svg width="110" height="15" viewBox="0 0 110 15" fill="none" xmlns="http://www.w3.org/2000/svg">
<path d="M12.5433 0.9H0.943281V2.36H5.94328V14.5H7.52328V2.36H12.5433V0.9ZM16.3223 4.98C13.5223 4.98 11.5623 7.12 11.5623 9.86C11.5623 12.6 13.5423 14.74 16.4023 14.74C18.4023 14.74 20.0023 13.78 20.5823 12.18H18.8823C18.4823 12.96 17.5823 13.38 16.4023 13.38C14.4623 13.38 13.2823 12.04 13.1023 10.32H20.8623C21.1623 7.28 19.3023 4.98 16.3223 4.98ZM16.3223 6.3C18.0823 6.3 19.2623 7.4 19.3423 9.24H13.1223C13.3423 7.6 14.4823 6.3 16.3223 6.3ZM25.0272 6.74V5.22H23.5072V14.5H25.0272V8.46C25.8472 7.18 27.0872 6.48 28.6072 6.44V5C27.1272 5 25.8872 5.64 25.0272 6.74ZM32.3123 6.74V5.22H30.7923V14.5H32.3123V8.46C33.1323 7.18 34.3723 6.48 35.8923 6.44V5C34.4123 5 33.1723 5.64 32.3123 6.74ZM45.2859 5.22V6.18C44.4659 5.42 43.3459 4.98 42.0259 4.98C39.3659 4.98 37.2459 7.16 37.2459 9.86C37.2459 12.58 39.3659 14.74 42.0259 14.74C43.3459 14.74 44.4659 14.3 45.2859 13.54V14.5H46.8059V5.22H45.2859ZM42.2259 13.34C40.2659 13.34 38.7659 11.78 38.7659 9.86C38.7659 7.94 40.2659 6.38 42.2259 6.38C43.4459 6.38 44.5259 6.84 45.2859 7.96V11.76C44.5259 12.88 43.4459 13.34 42.2259 13.34ZM50.8692 11.58H49.4492C49.7292 13.76 51.4092 14.74 53.7692 14.74C56.0492 14.74 57.6892 13.72 57.6892 11.9C57.6892 10.12 56.2692 9.52 54.9292 9.3L53.0892 9C51.8292 8.78 51.3692 8.28 51.3692 7.6C51.3692 6.76 52.2092 6.22 53.6092 6.22C55.0892 6.22 56.0692 6.76 56.2292 7.92H57.6492C57.4692 5.72 55.5492 4.98 53.6092 4.98C51.3692 4.98 49.8492 6.02 49.8492 7.74C49.8492 9.32 51.0892 10 52.6092 10.26L54.7092 10.6C55.6092 10.76 56.2292 11.22 56.2292 12C56.2292 12.94 55.2492 13.48 53.8092 13.48C52.1092 13.48 51.1492 12.82 50.8692 11.58ZM71.9064 5.22L69.4664 12.18L67.0464 5.22H65.7264L63.3064 12.2L60.8664 5.22H59.2264L62.6064 14.5H63.9864L66.3864 7.4L68.7864 14.5H70.1664L73.5464 5.22H71.9064ZM76.8709 2.74C77.4509 2.74 77.9109 2.3 77.9109 1.74C77.9109 1.16 77.4509 0.72 76.8709 0.72C76.2909 0.72 75.8509 1.16 75.8509 1.74C75.8509 2.3 76.2909 2.74 76.8709 2.74ZM76.1309 5.22V14.5H77.6509V5.22H76.1309ZM87.1234 13C86.6234 13.18 86.0434 13.32 85.5234 13.32C84.2034 13.32 83.5234 12.66 83.5234 11.06V6.52H87.0234V5.22H83.5234V1.8H82.0034V5.22H79.5834V6.52H82.0034V11.06C82.0034 13.48 83.1034 14.74 85.3834 14.74C85.9434 14.74 86.5834 14.66 87.3434 14.4L87.1234 13ZM93.4927 13.34C91.4727 13.34 90.1527 11.8 90.1527 9.86C90.1527 7.94 91.4727 6.38 93.4927 6.38C94.9327 6.38 96.0127 7.18 96.2927 8.4H97.8727C97.5127 6.36 95.7327 4.98 93.4927 4.98C90.6727 4.98 88.6327 7.12 88.6327 9.86C88.6327 12.6 90.6727 14.74 93.4927 14.74C95.7327 14.74 97.5127 13.36 97.8727 11.34H96.2927C96.0127 12.56 94.9327 13.34 93.4927 13.34ZM105.398 4.98C104.078 4.98 102.938 5.44 102.078 6.26V0.299999H100.558V14.5H102.078V7.98C102.878 6.94 104.018 6.38 105.118 6.38C106.758 6.38 107.858 7.38 107.858 9.26V14.5H109.378V9.18C109.378 6.56 107.758 4.98 105.398 4.98Z" fill="#932F8F"/>
</svg>
