<svg width="28" height="24" viewBox="0 0 28 24" fill="none" xmlns="http://www.w3.org/2000/svg">
<path d="M28 2.71765C26.9694 3.19324 25.8585 3.50576 24.7075 3.65524C25.8853 2.93506 26.7954 1.79365 27.2237 0.421235C26.1128 1.10065 24.8815 1.57624 23.5832 1.848C22.5258 0.679412 21.0402 0 19.3537 0C16.2084 0 13.6386 2.60894 13.6386 5.82935C13.6386 6.29135 13.6922 6.73976 13.7859 7.161C9.02103 6.91641 4.7782 4.59282 1.95411 1.07347C1.45889 1.92953 1.17782 2.93506 1.17782 3.99494C1.17782 6.01959 2.18164 7.81324 3.73423 8.83235C2.78394 8.83235 1.90057 8.56059 1.12428 8.15294C1.12428 8.15294 1.12428 8.15294 1.12428 8.1937C1.12428 11.0201 3.10516 13.3844 5.72849 13.9144C5.24665 14.0502 4.73805 14.1182 4.21606 14.1182C3.85468 14.1182 3.49331 14.0774 3.14532 14.0095C3.86807 16.3059 5.96941 18.018 8.49904 18.0588C6.54493 19.635 4.06883 20.559 1.3652 20.559C0.910134 20.559 0.455067 20.5318 0 20.4775C2.54302 22.1352 5.56788 23.1 8.80688 23.1C19.3537 23.1 25.1491 14.2133 25.1491 6.50876C25.1491 6.25059 25.1491 6.006 25.1358 5.74782C26.26 4.93253 27.2237 3.89982 28 2.71765Z" fill="white" fill-opacity="0.85"/>
</svg>
